<svg width="796" height="222" viewBox="0 0 796 222" fill="none" xmlns="http://www.w3.org/2000/svg">
<rect y="63" width="796" height="59" fill="#4640F0"/>
<path d="M112.5 38V13.01H114.53V36.145H126.255V38H112.5ZM136.673 19.065C138.773 19.065 140.336 19.5783 141.363 20.605C142.389 21.6317 142.903 23.2533 142.903 25.47V38H141.398L141.048 34.85H140.943C140.266 35.9 139.438 36.7517 138.458 37.405C137.501 38.035 136.159 38.35 134.433 38.35C132.636 38.35 131.224 37.9067 130.198 37.02C129.171 36.11 128.658 34.815 128.658 33.135C128.658 31.2683 129.416 29.8567 130.933 28.9C132.449 27.92 134.654 27.3717 137.548 27.255L140.943 27.08V25.785C140.943 23.965 140.569 22.67 139.823 21.9C139.099 21.13 138.026 20.745 136.603 20.745C135.646 20.745 134.724 20.8733 133.838 21.13C132.951 21.3867 132.064 21.725 131.178 22.145L130.548 20.535C131.434 20.115 132.391 19.765 133.418 19.485C134.468 19.205 135.553 19.065 136.673 19.065ZM137.793 28.725C135.413 28.8417 133.639 29.2617 132.473 29.985C131.329 30.685 130.758 31.735 130.758 33.135C130.758 34.3017 131.108 35.1883 131.808 35.795C132.531 36.3783 133.523 36.67 134.783 36.67C136.719 36.67 138.224 36.1217 139.298 35.025C140.371 33.905 140.919 32.365 140.943 30.405V28.585L137.793 28.725ZM173.314 38L171.494 32.05H162.394L160.574 38H154.869L163.689 12.905H170.164L179.019 38H173.314ZM168.414 21.795C168.297 21.3983 168.146 20.8967 167.959 20.29C167.772 19.6833 167.586 19.065 167.399 18.435C167.212 17.805 167.061 17.2567 166.944 16.79C166.827 17.2567 166.664 17.84 166.454 18.54C166.267 19.2167 166.081 19.87 165.894 20.5C165.731 21.1067 165.602 21.5383 165.509 21.795L163.724 27.605H170.234L168.414 21.795ZM186.979 38H181.764V11.4H186.979V38ZM195.053 11.4C195.823 11.4 196.488 11.5867 197.048 11.96C197.608 12.31 197.888 12.975 197.888 13.955C197.888 14.9117 197.608 15.5767 197.048 15.95C196.488 16.3233 195.823 16.51 195.053 16.51C194.26 16.51 193.583 16.3233 193.023 15.95C192.487 15.5767 192.218 14.9117 192.218 13.955C192.218 12.975 192.487 12.31 193.023 11.96C193.583 11.5867 194.26 11.4 195.053 11.4ZM197.643 18.89V38H192.428V18.89H197.643ZM210.932 18.505C213.499 18.505 215.459 19.065 216.812 20.185C218.189 21.2817 218.877 22.9733 218.877 25.26V38H215.237L214.222 35.41H214.082C213.266 36.4367 212.402 37.1833 211.492 37.65C210.582 38.1167 209.334 38.35 207.747 38.35C206.044 38.35 204.632 37.86 203.512 36.88C202.392 35.8767 201.832 34.3483 201.832 32.295C201.832 30.265 202.544 28.7717 203.967 27.815C205.391 26.835 207.526 26.2983 210.372 26.205L213.697 26.1V25.26C213.697 24.2567 213.429 23.5217 212.892 23.055C212.379 22.5883 211.656 22.355 210.722 22.355C209.789 22.355 208.879 22.495 207.992 22.775C207.106 23.0317 206.219 23.3583 205.332 23.755L203.617 20.22C204.644 19.6833 205.776 19.2633 207.012 18.96C208.272 18.6567 209.579 18.505 210.932 18.505ZM211.667 29.215C209.987 29.2617 208.821 29.565 208.167 30.125C207.514 30.685 207.187 31.42 207.187 32.33C207.187 33.1233 207.421 33.695 207.887 34.045C208.354 34.3717 208.961 34.535 209.707 34.535C210.827 34.535 211.772 34.2083 212.542 33.555C213.312 32.8783 213.697 31.9333 213.697 30.72V29.145L211.667 29.215ZM235.065 18.54C237.119 18.54 238.764 19.1 240 20.22C241.237 21.3167 241.855 23.09 241.855 25.54V38H236.64V26.835C236.64 25.4583 236.395 24.4317 235.905 23.755C235.415 23.055 234.634 22.705 233.56 22.705C231.974 22.705 230.889 23.2533 230.305 24.35C229.722 25.4233 229.43 26.975 229.43 29.005V38H224.215V18.89H228.205L228.905 21.34H229.185C229.792 20.36 230.62 19.6483 231.67 19.205C232.744 18.7617 233.875 18.54 235.065 18.54ZM260.518 38H245.433V34.92L254.288 22.88H245.958V18.89H260.203V22.285L251.593 34.01H260.518V38ZM272.148 18.505C274.715 18.505 276.675 19.065 278.028 20.185C279.405 21.2817 280.093 22.9733 280.093 25.26V38H276.453L275.438 35.41H275.298C274.481 36.4367 273.618 37.1833 272.708 37.65C271.798 38.1167 270.55 38.35 268.963 38.35C267.26 38.35 265.848 37.86 264.728 36.88C263.608 35.8767 263.048 34.3483 263.048 32.295C263.048 30.265 263.76 28.7717 265.183 27.815C266.606 26.835 268.741 26.2983 271.588 26.205L274.913 26.1V25.26C274.913 24.2567 274.645 23.5217 274.108 23.055C273.595 22.5883 272.871 22.355 271.938 22.355C271.005 22.355 270.095 22.495 269.208 22.775C268.321 23.0317 267.435 23.3583 266.548 23.755L264.833 20.22C265.86 19.6833 266.991 19.2633 268.228 18.96C269.488 18.6567 270.795 18.505 272.148 18.505ZM272.883 29.215C271.203 29.2617 270.036 29.565 269.383 30.125C268.73 30.685 268.403 31.42 268.403 32.33C268.403 33.1233 268.636 33.695 269.103 34.045C269.57 34.3717 270.176 34.535 270.923 34.535C272.043 34.535 272.988 34.2083 273.758 33.555C274.528 32.8783 274.913 31.9333 274.913 30.72V29.145L272.883 29.215ZM303.238 19.03C305.618 19.03 307.473 19.835 308.803 21.445C310.133 23.055 310.798 25.435 310.798 28.585C310.798 31.735 310.098 34.15 308.698 35.83C307.321 37.51 305.431 38.35 303.028 38.35C301.395 38.35 300.076 38 299.073 37.3C298.07 36.6 297.335 35.76 296.868 34.78H296.728C296.775 35.3633 296.81 36.005 296.833 36.705C296.856 37.3817 296.868 38.0117 296.868 38.595V46.26H294.873V19.38H296.518L296.763 22.845H296.868C297.335 21.8417 298.081 20.955 299.108 20.185C300.135 19.415 301.511 19.03 303.238 19.03ZM302.958 20.745C300.881 20.745 299.353 21.3983 298.373 22.705C297.393 24.0117 296.891 25.89 296.868 28.34V28.69C296.868 31.35 297.346 33.345 298.303 34.675C299.283 35.9817 300.788 36.635 302.818 36.635C304.731 36.635 306.19 35.9233 307.193 34.5C308.22 33.0533 308.733 31.07 308.733 28.55C308.733 26.0533 308.243 24.1283 307.263 22.775C306.306 21.4217 304.871 20.745 302.958 20.745ZM331.4 28.655C331.4 30.615 331.073 32.3183 330.42 33.765C329.79 35.2117 328.845 36.3433 327.585 37.16C326.348 37.9533 324.832 38.35 323.035 38.35C321.308 38.35 319.827 37.9533 318.59 37.16C317.353 36.3667 316.397 35.2467 315.72 33.8C315.067 32.33 314.74 30.615 314.74 28.655C314.74 25.645 315.487 23.2883 316.98 21.585C318.473 19.8817 320.538 19.03 323.175 19.03C324.948 19.03 326.442 19.4383 327.655 20.255C328.892 21.0483 329.825 22.1683 330.455 23.615C331.085 25.0617 331.4 26.7417 331.4 28.655ZM316.805 28.655C316.805 31.0583 317.307 32.995 318.31 34.465C319.337 35.9117 320.923 36.635 323.07 36.635C325.24 36.635 326.827 35.9 327.83 34.43C328.833 32.96 329.335 31.035 329.335 28.655C329.335 27.115 329.125 25.75 328.705 24.56C328.285 23.37 327.62 22.4367 326.71 21.76C325.8 21.0833 324.61 20.745 323.14 20.745C321.04 20.745 319.453 21.445 318.38 22.845C317.33 24.245 316.805 26.1817 316.805 28.655ZM344.135 19.065C345.045 19.065 345.885 19.1583 346.655 19.345L346.34 21.2C345.593 20.99 344.823 20.885 344.03 20.885C342.326 20.885 340.973 21.515 339.97 22.775C338.966 24.035 338.465 25.7033 338.465 27.78V38H336.47V19.38H338.15L338.36 22.845H338.465C338.931 21.795 339.643 20.9083 340.6 20.185C341.556 19.4383 342.735 19.065 344.135 19.065ZM366.406 19.03C367.993 19.03 369.311 19.4033 370.361 20.15C371.434 20.8733 372.239 21.8767 372.776 23.16C373.336 24.4433 373.616 25.9133 373.616 27.57V28.935H360.316C360.316 31.4083 360.888 33.31 362.031 34.64C363.198 35.9467 364.854 36.6 367.001 36.6C368.144 36.6 369.148 36.5067 370.011 36.32C370.874 36.11 371.819 35.7833 372.846 35.34V37.16C371.913 37.58 370.991 37.8833 370.081 38.07C369.171 38.2567 368.121 38.35 366.931 38.35C364.131 38.35 361.984 37.4983 360.491 35.795C358.998 34.0917 358.251 31.77 358.251 28.83C358.251 26.94 358.566 25.26 359.196 23.79C359.849 22.32 360.783 21.165 361.996 20.325C363.209 19.4617 364.679 19.03 366.406 19.03ZM366.371 20.71C364.668 20.71 363.279 21.2817 362.206 22.425C361.156 23.5683 360.549 25.19 360.386 27.29H371.551C371.551 25.33 371.119 23.7433 370.256 22.53C369.416 21.3167 368.121 20.71 366.371 20.71ZM380.642 38H378.647V11.4H380.642V38ZM405.463 23.965H415.368V36.915C414.061 37.3583 412.696 37.7083 411.273 37.965C409.873 38.2217 408.275 38.35 406.478 38.35C402.745 38.35 399.875 37.2533 397.868 35.06C395.861 32.8667 394.858 29.67 394.858 25.47C394.858 22.8567 395.36 20.5933 396.363 18.68C397.39 16.7667 398.871 15.285 400.808 14.235C402.745 13.185 405.113 12.66 407.913 12.66C409.243 12.66 410.55 12.8 411.833 13.08C413.116 13.36 414.283 13.7333 415.333 14.2L413.583 18.435C412.813 18.0383 411.938 17.7117 410.958 17.455C409.978 17.1983 408.951 17.07 407.878 17.07C406.338 17.07 404.996 17.42 403.853 18.12C402.733 18.82 401.858 19.8117 401.228 21.095C400.621 22.355 400.318 23.8483 400.318 25.575C400.318 27.2083 400.54 28.655 400.983 29.915C401.426 31.175 402.126 32.1667 403.083 32.89C404.04 33.59 405.288 33.94 406.828 33.94C407.575 33.94 408.205 33.905 408.718 33.835C409.255 33.765 409.745 33.6833 410.188 33.59V28.375H405.463V23.965ZM438.245 28.41C438.245 31.5833 437.405 34.0333 435.725 35.76C434.069 37.4867 431.805 38.35 428.935 38.35C427.162 38.35 425.575 37.965 424.175 37.195C422.799 36.425 421.714 35.305 420.92 33.835C420.127 32.3417 419.73 30.5333 419.73 28.41C419.73 25.2367 420.559 22.7983 422.215 21.095C423.872 19.3917 426.147 18.54 429.04 18.54C430.837 18.54 432.424 18.925 433.8 19.695C435.177 20.465 436.262 21.585 437.055 23.055C437.849 24.5017 438.245 26.2867 438.245 28.41ZM425.05 28.41C425.05 30.3 425.354 31.735 425.96 32.715C426.59 33.6717 427.605 34.15 429.005 34.15C430.382 34.15 431.374 33.6717 431.98 32.715C432.61 31.735 432.925 30.3 432.925 28.41C432.925 26.52 432.61 25.1083 431.98 24.175C431.374 23.2183 430.37 22.74 428.97 22.74C427.594 22.74 426.59 23.2183 425.96 24.175C425.354 25.1083 425.05 26.52 425.05 28.41ZM447.77 17.595C447.77 18.3183 447.747 19.03 447.7 19.73C447.654 20.43 447.607 20.9783 447.56 21.375H447.77C448.284 20.5817 448.972 19.9167 449.835 19.38C450.699 18.82 451.819 18.54 453.195 18.54C455.342 18.54 457.08 19.38 458.41 21.06C459.74 22.7167 460.405 25.1667 460.405 28.41C460.405 31.6767 459.729 34.15 458.375 35.83C457.022 37.51 455.249 38.35 453.055 38.35C451.655 38.35 450.547 38.105 449.73 37.615C448.937 37.1017 448.284 36.53 447.77 35.9H447.42L446.545 38H442.555V11.4H447.77V17.595ZM451.515 22.705C450.162 22.705 449.205 23.125 448.645 23.965C448.109 24.805 447.817 26.0883 447.77 27.815V28.375C447.77 30.2183 448.039 31.6417 448.575 32.645C449.135 33.625 450.139 34.115 451.585 34.115C452.659 34.115 453.51 33.625 454.14 32.645C454.77 31.6417 455.085 30.2067 455.085 28.34C455.085 26.4733 454.759 25.0733 454.105 24.14C453.475 23.1833 452.612 22.705 451.515 22.705ZM467.329 11.4C468.099 11.4 468.764 11.5867 469.324 11.96C469.884 12.31 470.164 12.975 470.164 13.955C470.164 14.9117 469.884 15.5767 469.324 15.95C468.764 16.3233 468.099 16.51 467.329 16.51C466.535 16.51 465.859 16.3233 465.299 15.95C464.762 15.5767 464.494 14.9117 464.494 13.955C464.494 12.975 464.762 12.31 465.299 11.96C465.859 11.5867 466.535 11.4 467.329 11.4ZM469.919 18.89V38H464.704V18.89H469.919ZM483.243 18.54C485.879 18.54 487.968 19.2983 489.508 20.815C491.048 22.3083 491.818 24.4433 491.818 27.22V29.74H479.498C479.544 31.21 479.976 32.365 480.793 33.205C481.633 34.045 482.788 34.465 484.258 34.465C485.494 34.465 486.614 34.3483 487.618 34.115C488.621 33.8583 489.659 33.4733 490.733 32.96V36.985C489.799 37.4517 488.808 37.79 487.758 38C486.731 38.2333 485.483 38.35 484.013 38.35C482.099 38.35 480.408 38 478.938 37.3C477.468 36.5767 476.313 35.4917 475.473 34.045C474.633 32.5983 474.213 30.7783 474.213 28.585C474.213 26.345 474.586 24.49 475.333 23.02C476.103 21.5267 477.164 20.4067 478.518 19.66C479.871 18.9133 481.446 18.54 483.243 18.54ZM483.278 22.25C482.274 22.25 481.434 22.5767 480.758 23.23C480.104 23.8833 479.719 24.8983 479.603 26.275H486.918C486.894 25.1083 486.591 24.1517 486.008 23.405C485.424 22.635 484.514 22.25 483.278 22.25ZM506.721 18.54C506.978 18.54 507.281 18.5517 507.631 18.575C507.981 18.5983 508.261 18.6333 508.471 18.68L508.086 23.58C507.923 23.5333 507.678 23.4983 507.351 23.475C507.048 23.4283 506.78 23.405 506.546 23.405C505.66 23.405 504.808 23.5683 503.991 23.895C503.175 24.1983 502.51 24.7 501.996 25.4C501.506 26.1 501.261 27.0567 501.261 28.27V38H496.046V18.89H500.001L500.771 22.11H501.016C501.576 21.13 502.346 20.29 503.326 19.59C504.306 18.89 505.438 18.54 506.721 18.54ZM522.79 18.54C524.843 18.54 526.488 19.1 527.725 20.22C528.962 21.3167 529.58 23.09 529.58 25.54V38H524.365V26.835C524.365 25.4583 524.12 24.4317 523.63 23.755C523.14 23.055 522.358 22.705 521.285 22.705C519.698 22.705 518.613 23.2533 518.03 24.35C517.447 25.4233 517.155 26.975 517.155 29.005V38H511.94V18.89H515.93L516.63 21.34H516.91C517.517 20.36 518.345 19.6483 519.395 19.205C520.468 18.7617 521.6 18.54 522.79 18.54ZM552.303 28.41C552.303 31.5833 551.463 34.0333 549.783 35.76C548.126 37.4867 545.863 38.35 542.993 38.35C541.22 38.35 539.633 37.965 538.233 37.195C536.856 36.425 535.771 35.305 534.978 33.835C534.185 32.3417 533.788 30.5333 533.788 28.41C533.788 25.2367 534.616 22.7983 536.273 21.095C537.93 19.3917 540.205 18.54 543.098 18.54C544.895 18.54 546.481 18.925 547.858 19.695C549.235 20.465 550.32 21.585 551.113 23.055C551.906 24.5017 552.303 26.2867 552.303 28.41ZM539.108 28.41C539.108 30.3 539.411 31.735 540.018 32.715C540.648 33.6717 541.663 34.15 543.063 34.15C544.44 34.15 545.431 33.6717 546.038 32.715C546.668 31.735 546.983 30.3 546.983 28.41C546.983 26.52 546.668 25.1083 546.038 24.175C545.431 23.2183 544.428 22.74 543.028 22.74C541.651 22.74 540.648 23.2183 540.018 24.175C539.411 25.1083 539.108 26.52 539.108 28.41ZM581.42 38L579.6 32.05H570.5L568.68 38H562.975L571.795 12.905H578.27L587.125 38H581.42ZM576.52 21.795C576.403 21.3983 576.251 20.8967 576.065 20.29C575.878 19.6833 575.691 19.065 575.505 18.435C575.318 17.805 575.166 17.2567 575.05 16.79C574.933 17.2567 574.77 17.84 574.56 18.54C574.373 19.2167 574.186 19.87 574 20.5C573.836 21.1067 573.708 21.5383 573.615 21.795L571.83 27.605H578.34L576.52 21.795ZM595.085 17.595C595.085 18.3183 595.061 19.03 595.015 19.73C594.968 20.43 594.921 20.9783 594.875 21.375H595.085C595.598 20.5817 596.286 19.9167 597.15 19.38C598.013 18.82 599.133 18.54 600.51 18.54C602.656 18.54 604.395 19.38 605.725 21.06C607.055 22.7167 607.72 25.1667 607.72 28.41C607.72 31.6767 607.043 34.15 605.69 35.83C604.336 37.51 602.563 38.35 600.37 38.35C598.97 38.35 597.861 38.105 597.045 37.615C596.251 37.1017 595.598 36.53 595.085 35.9H594.735L593.86 38H589.87V11.4H595.085V17.595ZM598.83 22.705C597.476 22.705 596.52 23.125 595.96 23.965C595.423 24.805 595.131 26.0883 595.085 27.815V28.375C595.085 30.2183 595.353 31.6417 595.89 32.645C596.45 33.625 597.453 34.115 598.9 34.115C599.973 34.115 600.825 33.625 601.455 32.645C602.085 31.6417 602.4 30.2067 602.4 28.34C602.4 26.4733 602.073 25.0733 601.42 24.14C600.79 23.1833 599.926 22.705 598.83 22.705ZM614.643 11.4C615.413 11.4 616.078 11.5867 616.638 11.96C617.198 12.31 617.478 12.975 617.478 13.955C617.478 14.9117 617.198 15.5767 616.638 15.95C616.078 16.3233 615.413 16.51 614.643 16.51C613.85 16.51 613.173 16.3233 612.613 15.95C612.076 15.5767 611.808 14.9117 611.808 13.955C611.808 12.975 612.076 12.31 612.613 11.96C613.173 11.5867 613.85 11.4 614.643 11.4ZM617.233 18.89V38H612.018V18.89H617.233ZM630.557 18.54C633.194 18.54 635.282 19.2983 636.822 20.815C638.362 22.3083 639.132 24.4433 639.132 27.22V29.74H626.812C626.859 31.21 627.29 32.365 628.107 33.205C628.947 34.045 630.102 34.465 631.572 34.465C632.809 34.465 633.929 34.3483 634.932 34.115C635.935 33.8583 636.974 33.4733 638.047 32.96V36.985C637.114 37.4517 636.122 37.79 635.072 38C634.045 38.2333 632.797 38.35 631.327 38.35C629.414 38.35 627.722 38 626.252 37.3C624.782 36.5767 623.627 35.4917 622.787 34.045C621.947 32.5983 621.527 30.7783 621.527 28.585C621.527 26.345 621.9 24.49 622.647 23.02C623.417 21.5267 624.479 20.4067 625.832 19.66C627.185 18.9133 628.76 18.54 630.557 18.54ZM630.592 22.25C629.589 22.25 628.749 22.5767 628.072 23.23C627.419 23.8833 627.034 24.8983 626.917 26.275H634.232C634.209 25.1083 633.905 24.1517 633.322 23.405C632.739 22.635 631.829 22.25 630.592 22.25ZM654.036 18.54C654.293 18.54 654.596 18.5517 654.946 18.575C655.296 18.5983 655.576 18.6333 655.786 18.68L655.401 23.58C655.238 23.5333 654.993 23.4983 654.666 23.475C654.363 23.4283 654.094 23.405 653.861 23.405C652.974 23.405 652.123 23.5683 651.306 23.895C650.489 24.1983 649.824 24.7 649.311 25.4C648.821 26.1 648.576 27.0567 648.576 28.27V38H643.361V18.89H647.316L648.086 22.11H648.331C648.891 21.13 649.661 20.29 650.641 19.59C651.621 18.89 652.753 18.54 654.036 18.54ZM667.304 34.185C667.888 34.185 668.448 34.1267 668.984 34.01C669.521 33.8933 670.058 33.7533 670.594 33.59V37.475C670.034 37.7083 669.334 37.9067 668.494 38.07C667.678 38.2567 666.779 38.35 665.799 38.35C664.656 38.35 663.629 38.1633 662.719 37.79C661.833 37.4167 661.121 36.775 660.584 35.865C660.071 34.9317 659.814 33.6483 659.814 32.015V22.81H657.329V20.605L660.199 18.855L661.704 14.83H665.029V18.89H670.384V22.81H665.029V32.015C665.029 32.7383 665.239 33.2867 665.659 33.66C666.079 34.01 666.628 34.185 667.304 34.185ZM691.79 28.41C691.79 31.5833 690.95 34.0333 689.27 35.76C687.614 37.4867 685.35 38.35 682.48 38.35C680.707 38.35 679.12 37.965 677.72 37.195C676.344 36.425 675.259 35.305 674.465 33.835C673.672 32.3417 673.275 30.5333 673.275 28.41C673.275 25.2367 674.104 22.7983 675.76 21.095C677.417 19.3917 679.692 18.54 682.585 18.54C684.382 18.54 685.969 18.925 687.345 19.695C688.722 20.465 689.807 21.585 690.6 23.055C691.394 24.5017 691.79 26.2867 691.79 28.41ZM678.595 28.41C678.595 30.3 678.899 31.735 679.505 32.715C680.135 33.6717 681.15 34.15 682.55 34.15C683.927 34.15 684.919 33.6717 685.525 32.715C686.155 31.735 686.47 30.3 686.47 28.41C686.47 26.52 686.155 25.1083 685.525 24.175C684.919 23.2183 683.915 22.74 682.515 22.74C681.139 22.74 680.135 23.2183 679.505 24.175C678.899 25.1083 678.595 26.52 678.595 28.41Z" fill="black"/>
<path d="M90.4781 140.01C93.6981 140.01 96.0431 140.71 97.5131 142.11C99.0065 143.487 99.7531 145.388 99.7531 147.815C99.7531 149.262 99.4498 150.627 98.8431 151.91C98.2365 153.17 97.2215 154.185 95.7981 154.955C94.3981 155.725 92.4848 156.11 90.0581 156.11H87.7831V165H82.4981V140.01H90.4781ZM90.1981 144.35H87.7831V151.77H89.5331C91.0265 151.77 92.2048 151.478 93.0681 150.895C93.9548 150.288 94.3981 149.32 94.3981 147.99C94.3981 145.563 92.9981 144.35 90.1981 144.35ZM111.931 145.54C114.567 145.54 116.656 146.298 118.196 147.815C119.736 149.308 120.506 151.443 120.506 154.22V156.74H108.186C108.232 158.21 108.664 159.365 109.481 160.205C110.321 161.045 111.476 161.465 112.946 161.465C114.182 161.465 115.302 161.348 116.306 161.115C117.309 160.858 118.347 160.473 119.421 159.96V163.985C118.487 164.452 117.496 164.79 116.446 165C115.419 165.233 114.171 165.35 112.701 165.35C110.787 165.35 109.096 165 107.626 164.3C106.156 163.577 105.001 162.492 104.161 161.045C103.321 159.598 102.901 157.778 102.901 155.585C102.901 153.345 103.274 151.49 104.021 150.02C104.791 148.527 105.852 147.407 107.206 146.66C108.559 145.913 110.134 145.54 111.931 145.54ZM111.966 149.25C110.962 149.25 110.122 149.577 109.446 150.23C108.792 150.883 108.407 151.898 108.291 153.275H115.606C115.582 152.108 115.279 151.152 114.696 150.405C114.112 149.635 113.202 149.25 111.966 149.25ZM135.409 145.54C135.666 145.54 135.969 145.552 136.319 145.575C136.669 145.598 136.949 145.633 137.159 145.68L136.774 150.58C136.611 150.533 136.366 150.498 136.039 150.475C135.736 150.428 135.468 150.405 135.234 150.405C134.348 150.405 133.496 150.568 132.679 150.895C131.863 151.198 131.198 151.7 130.684 152.4C130.194 153.1 129.949 154.057 129.949 155.27V165H124.734V145.89H128.689L129.459 149.11H129.704C130.264 148.13 131.034 147.29 132.014 146.59C132.994 145.89 134.126 145.54 135.409 145.54ZM153.963 159.33C153.963 161.267 153.275 162.76 151.898 163.81C150.545 164.837 148.515 165.35 145.808 165.35C144.478 165.35 143.335 165.257 142.378 165.07C141.421 164.907 140.465 164.627 139.508 164.23V159.925C140.535 160.392 141.643 160.777 142.833 161.08C144.023 161.383 145.073 161.535 145.983 161.535C147.01 161.535 147.733 161.383 148.153 161.08C148.596 160.777 148.818 160.38 148.818 159.89C148.818 159.563 148.725 159.272 148.538 159.015C148.375 158.758 148.001 158.467 147.418 158.14C146.835 157.813 145.925 157.393 144.688 156.88C143.498 156.367 142.518 155.865 141.748 155.375C140.978 154.862 140.406 154.255 140.033 153.555C139.66 152.832 139.473 151.933 139.473 150.86C139.473 149.087 140.161 147.757 141.538 146.87C142.915 145.983 144.746 145.54 147.033 145.54C148.223 145.54 149.355 145.657 150.428 145.89C151.501 146.123 152.61 146.508 153.753 147.045L152.178 150.79C151.245 150.393 150.358 150.067 149.518 149.81C148.678 149.53 147.826 149.39 146.963 149.39C145.423 149.39 144.653 149.81 144.653 150.65C144.653 150.953 144.746 151.233 144.933 151.49C145.143 151.723 145.528 151.98 146.088 152.26C146.671 152.54 147.523 152.913 148.643 153.38C149.74 153.823 150.685 154.29 151.478 154.78C152.271 155.247 152.878 155.842 153.298 156.565C153.741 157.265 153.963 158.187 153.963 159.33ZM175.385 155.41C175.385 158.583 174.545 161.033 172.865 162.76C171.209 164.487 168.945 165.35 166.075 165.35C164.302 165.35 162.715 164.965 161.315 164.195C159.939 163.425 158.854 162.305 158.06 160.835C157.267 159.342 156.87 157.533 156.87 155.41C156.87 152.237 157.699 149.798 159.355 148.095C161.012 146.392 163.287 145.54 166.18 145.54C167.977 145.54 169.564 145.925 170.94 146.695C172.317 147.465 173.402 148.585 174.195 150.055C174.989 151.502 175.385 153.287 175.385 155.41ZM162.19 155.41C162.19 157.3 162.494 158.735 163.1 159.715C163.73 160.672 164.745 161.15 166.145 161.15C167.522 161.15 168.514 160.672 169.12 159.715C169.75 158.735 170.065 157.3 170.065 155.41C170.065 153.52 169.75 152.108 169.12 151.175C168.514 150.218 167.51 149.74 166.11 149.74C164.734 149.74 163.73 150.218 163.1 151.175C162.494 152.108 162.19 153.52 162.19 155.41ZM190.545 145.54C192.599 145.54 194.244 146.1 195.48 147.22C196.717 148.317 197.335 150.09 197.335 152.54V165H192.12V153.835C192.12 152.458 191.875 151.432 191.385 150.755C190.895 150.055 190.114 149.705 189.04 149.705C187.454 149.705 186.369 150.253 185.785 151.35C185.202 152.423 184.91 153.975 184.91 156.005V165H179.695V145.89H183.685L184.385 148.34H184.665C185.272 147.36 186.1 146.648 187.15 146.205C188.224 145.762 189.355 145.54 190.545 145.54ZM210.538 145.505C213.105 145.505 215.065 146.065 216.418 147.185C217.795 148.282 218.483 149.973 218.483 152.26V165H214.843L213.828 162.41H213.688C212.872 163.437 212.008 164.183 211.098 164.65C210.188 165.117 208.94 165.35 207.353 165.35C205.65 165.35 204.238 164.86 203.118 163.88C201.998 162.877 201.438 161.348 201.438 159.295C201.438 157.265 202.15 155.772 203.573 154.815C204.997 153.835 207.132 153.298 209.978 153.205L213.303 153.1V152.26C213.303 151.257 213.035 150.522 212.498 150.055C211.985 149.588 211.262 149.355 210.328 149.355C209.395 149.355 208.485 149.495 207.598 149.775C206.712 150.032 205.825 150.358 204.938 150.755L203.223 147.22C204.25 146.683 205.382 146.263 206.618 145.96C207.878 145.657 209.185 145.505 210.538 145.505ZM211.273 156.215C209.593 156.262 208.427 156.565 207.773 157.125C207.12 157.685 206.793 158.42 206.793 159.33C206.793 160.123 207.027 160.695 207.493 161.045C207.96 161.372 208.567 161.535 209.313 161.535C210.433 161.535 211.378 161.208 212.148 160.555C212.918 159.878 213.303 158.933 213.303 157.72V156.145L211.273 156.215ZM237.156 159.33C237.156 161.267 236.468 162.76 235.091 163.81C233.738 164.837 231.708 165.35 229.001 165.35C227.671 165.35 226.528 165.257 225.571 165.07C224.615 164.907 223.658 164.627 222.701 164.23V159.925C223.728 160.392 224.836 160.777 226.026 161.08C227.216 161.383 228.266 161.535 229.176 161.535C230.203 161.535 230.926 161.383 231.346 161.08C231.79 160.777 232.011 160.38 232.011 159.89C232.011 159.563 231.918 159.272 231.731 159.015C231.568 158.758 231.195 158.467 230.611 158.14C230.028 157.813 229.118 157.393 227.881 156.88C226.691 156.367 225.711 155.865 224.941 155.375C224.171 154.862 223.6 154.255 223.226 153.555C222.853 152.832 222.666 151.933 222.666 150.86C222.666 149.087 223.355 147.757 224.731 146.87C226.108 145.983 227.94 145.54 230.226 145.54C231.416 145.54 232.548 145.657 233.621 145.89C234.695 146.123 235.803 146.508 236.946 147.045L235.371 150.79C234.438 150.393 233.551 150.067 232.711 149.81C231.871 149.53 231.02 149.39 230.156 149.39C228.616 149.39 227.846 149.81 227.846 150.65C227.846 150.953 227.94 151.233 228.126 151.49C228.336 151.723 228.721 151.98 229.281 152.26C229.865 152.54 230.716 152.913 231.836 153.38C232.933 153.823 233.878 154.29 234.671 154.78C235.465 155.247 236.071 155.842 236.491 156.565C236.935 157.265 237.156 158.187 237.156 159.33ZM247.581 145.89H253.286L256.891 156.635C257.077 157.148 257.217 157.685 257.311 158.245C257.404 158.782 257.474 159.353 257.521 159.96H257.626C257.696 159.353 257.789 158.782 257.906 158.245C258.046 157.685 258.197 157.148 258.361 156.635L261.896 145.89H267.496L259.411 167.45C258.687 169.433 257.626 170.915 256.226 171.895C254.849 172.898 253.251 173.4 251.431 173.4C250.847 173.4 250.334 173.365 249.891 173.295C249.471 173.248 249.097 173.19 248.771 173.12V168.99C249.027 169.037 249.331 169.083 249.681 169.13C250.054 169.177 250.439 169.2 250.836 169.2C251.932 169.2 252.796 168.862 253.426 168.185C254.079 167.532 254.557 166.738 254.861 165.805L255.176 164.86L247.581 145.89ZM285.524 145.54C287.881 145.54 289.724 146.473 291.054 148.34H291.194L291.614 145.89H296.024V165.035C296.024 167.765 295.219 169.842 293.609 171.265C291.999 172.688 289.619 173.4 286.469 173.4C285.116 173.4 283.856 173.318 282.689 173.155C281.546 172.992 280.426 172.7 279.329 172.28V168.115C281.686 169.095 284.171 169.585 286.784 169.585C289.467 169.585 290.809 168.138 290.809 165.245V164.86C290.809 164.463 290.821 164.055 290.844 163.635C290.891 163.215 290.926 162.842 290.949 162.515H290.809C290.156 163.518 289.374 164.242 288.464 164.685C287.554 165.128 286.527 165.35 285.384 165.35C283.121 165.35 281.347 164.487 280.064 162.76C278.804 161.01 278.174 158.583 278.174 155.48C278.174 152.353 278.827 149.915 280.134 148.165C281.441 146.415 283.237 145.54 285.524 145.54ZM287.169 149.775C284.719 149.775 283.494 151.7 283.494 155.55C283.494 159.353 284.742 161.255 287.239 161.255C288.569 161.255 289.549 160.882 290.179 160.135C290.832 159.365 291.159 158.035 291.159 156.145V155.515C291.159 153.462 290.844 151.992 290.214 151.105C289.584 150.218 288.569 149.775 287.169 149.775ZM318.838 155.41C318.838 158.583 317.998 161.033 316.318 162.76C314.661 164.487 312.398 165.35 309.528 165.35C307.754 165.35 306.168 164.965 304.768 164.195C303.391 163.425 302.306 162.305 301.513 160.835C300.719 159.342 300.323 157.533 300.323 155.41C300.323 152.237 301.151 149.798 302.808 148.095C304.464 146.392 306.739 145.54 309.633 145.54C311.429 145.54 313.016 145.925 314.393 146.695C315.769 147.465 316.854 148.585 317.648 150.055C318.441 151.502 318.838 153.287 318.838 155.41ZM305.643 155.41C305.643 157.3 305.946 158.735 306.553 159.715C307.183 160.672 308.198 161.15 309.598 161.15C310.974 161.15 311.966 160.672 312.573 159.715C313.203 158.735 313.518 157.3 313.518 155.41C313.518 153.52 313.203 152.108 312.573 151.175C311.966 150.218 310.963 149.74 309.563 149.74C308.186 149.74 307.183 150.218 306.553 151.175C305.946 152.108 305.643 153.52 305.643 155.41ZM328.362 144.595C328.362 145.318 328.339 146.03 328.292 146.73C328.246 147.43 328.199 147.978 328.152 148.375H328.362C328.876 147.582 329.564 146.917 330.427 146.38C331.291 145.82 332.411 145.54 333.787 145.54C335.934 145.54 337.672 146.38 339.002 148.06C340.332 149.717 340.997 152.167 340.997 155.41C340.997 158.677 340.321 161.15 338.967 162.83C337.614 164.51 335.841 165.35 333.647 165.35C332.247 165.35 331.139 165.105 330.322 164.615C329.529 164.102 328.876 163.53 328.362 162.9H328.012L327.137 165H323.147V138.4H328.362V144.595ZM332.107 149.705C330.754 149.705 329.797 150.125 329.237 150.965C328.701 151.805 328.409 153.088 328.362 154.815V155.375C328.362 157.218 328.631 158.642 329.167 159.645C329.727 160.625 330.731 161.115 332.177 161.115C333.251 161.115 334.102 160.625 334.732 159.645C335.362 158.642 335.677 157.207 335.677 155.34C335.677 153.473 335.351 152.073 334.697 151.14C334.067 150.183 333.204 149.705 332.107 149.705ZM347.921 138.4C348.691 138.4 349.356 138.587 349.916 138.96C350.476 139.31 350.756 139.975 350.756 140.955C350.756 141.912 350.476 142.577 349.916 142.95C349.356 143.323 348.691 143.51 347.921 143.51C347.128 143.51 346.451 143.323 345.891 142.95C345.354 142.577 345.086 141.912 345.086 140.955C345.086 139.975 345.354 139.31 345.891 138.96C346.451 138.587 347.128 138.4 347.921 138.4ZM350.511 145.89V165H345.296V145.89H350.511ZM363.835 145.54C366.472 145.54 368.56 146.298 370.1 147.815C371.64 149.308 372.41 151.443 372.41 154.22V156.74H360.09C360.137 158.21 360.568 159.365 361.385 160.205C362.225 161.045 363.38 161.465 364.85 161.465C366.087 161.465 367.207 161.348 368.21 161.115C369.213 160.858 370.252 160.473 371.325 159.96V163.985C370.392 164.452 369.4 164.79 368.35 165C367.323 165.233 366.075 165.35 364.605 165.35C362.692 165.35 361 165 359.53 164.3C358.06 163.577 356.905 162.492 356.065 161.045C355.225 159.598 354.805 157.778 354.805 155.585C354.805 153.345 355.178 151.49 355.925 150.02C356.695 148.527 357.757 147.407 359.11 146.66C360.463 145.913 362.038 145.54 363.835 145.54ZM363.87 149.25C362.867 149.25 362.027 149.577 361.35 150.23C360.697 150.883 360.312 151.898 360.195 153.275H367.51C367.487 152.108 367.183 151.152 366.6 150.405C366.017 149.635 365.107 149.25 363.87 149.25ZM387.314 145.54C387.57 145.54 387.874 145.552 388.224 145.575C388.574 145.598 388.854 145.633 389.064 145.68L388.679 150.58C388.515 150.533 388.27 150.498 387.944 150.475C387.64 150.428 387.372 150.405 387.139 150.405C386.252 150.405 385.4 150.568 384.584 150.895C383.767 151.198 383.102 151.7 382.589 152.4C382.099 153.1 381.854 154.057 381.854 155.27V165H376.639V145.89H380.594L381.364 149.11H381.609C382.169 148.13 382.939 147.29 383.919 146.59C384.899 145.89 386.03 145.54 387.314 145.54ZM403.382 145.54C405.436 145.54 407.081 146.1 408.317 147.22C409.554 148.317 410.172 150.09 410.172 152.54V165H404.957V153.835C404.957 152.458 404.712 151.432 404.222 150.755C403.732 150.055 402.951 149.705 401.877 149.705C400.291 149.705 399.206 150.253 398.622 151.35C398.039 152.423 397.747 153.975 397.747 156.005V165H392.532V145.89H396.522L397.222 148.34H397.502C398.109 147.36 398.937 146.648 399.987 146.205C401.061 145.762 402.192 145.54 403.382 145.54ZM432.895 155.41C432.895 158.583 432.055 161.033 430.375 162.76C428.719 164.487 426.455 165.35 423.585 165.35C421.812 165.35 420.225 164.965 418.825 164.195C417.449 163.425 416.364 162.305 415.57 160.835C414.777 159.342 414.38 157.533 414.38 155.41C414.38 152.237 415.209 149.798 416.865 148.095C418.522 146.392 420.797 145.54 423.69 145.54C425.487 145.54 427.074 145.925 428.45 146.695C429.827 147.465 430.912 148.585 431.705 150.055C432.499 151.502 432.895 153.287 432.895 155.41ZM419.7 155.41C419.7 157.3 420.004 158.735 420.61 159.715C421.24 160.672 422.255 161.15 423.655 161.15C425.032 161.15 426.024 160.672 426.63 159.715C427.26 158.735 427.575 157.3 427.575 155.41C427.575 153.52 427.26 152.108 426.63 151.175C426.024 150.218 425.02 149.74 423.62 149.74C422.244 149.74 421.24 150.218 420.61 151.175C420.004 152.108 419.7 153.52 419.7 155.41ZM454.347 161.185C454.93 161.185 455.49 161.127 456.027 161.01C456.564 160.893 457.1 160.753 457.637 160.59V164.475C457.077 164.708 456.377 164.907 455.537 165.07C454.72 165.257 453.822 165.35 452.842 165.35C451.699 165.35 450.672 165.163 449.762 164.79C448.875 164.417 448.164 163.775 447.627 162.865C447.114 161.932 446.857 160.648 446.857 159.015V149.81H444.372V147.605L447.242 145.855L448.747 141.83H452.072V145.89H457.427V149.81H452.072V159.015C452.072 159.738 452.282 160.287 452.702 160.66C453.122 161.01 453.67 161.185 454.347 161.185ZM472.148 145.54C472.404 145.54 472.708 145.552 473.058 145.575C473.408 145.598 473.688 145.633 473.898 145.68L473.513 150.58C473.349 150.533 473.104 150.498 472.778 150.475C472.474 150.428 472.206 150.405 471.973 150.405C471.086 150.405 470.234 150.568 469.418 150.895C468.601 151.198 467.936 151.7 467.423 152.4C466.933 153.1 466.688 154.057 466.688 155.27V165H461.473V145.89H465.428L466.198 149.11H466.443C467.003 148.13 467.773 147.29 468.753 146.59C469.733 145.89 470.864 145.54 472.148 145.54ZM484.523 145.505C487.089 145.505 489.049 146.065 490.403 147.185C491.779 148.282 492.468 149.973 492.468 152.26V165H488.828L487.813 162.41H487.673C486.856 163.437 485.993 164.183 485.083 164.65C484.173 165.117 482.924 165.35 481.338 165.35C479.634 165.35 478.223 164.86 477.103 163.88C475.983 162.877 475.423 161.348 475.423 159.295C475.423 157.265 476.134 155.772 477.558 154.815C478.981 153.835 481.116 153.298 483.963 153.205L487.288 153.1V152.26C487.288 151.257 487.019 150.522 486.483 150.055C485.969 149.588 485.246 149.355 484.313 149.355C483.379 149.355 482.469 149.495 481.583 149.775C480.696 150.032 479.809 150.358 478.923 150.755L477.208 147.22C478.234 146.683 479.366 146.263 480.603 145.96C481.863 145.657 483.169 145.505 484.523 145.505ZM485.258 156.215C483.578 156.262 482.411 156.565 481.758 157.125C481.104 157.685 480.778 158.42 480.778 159.33C480.778 160.123 481.011 160.695 481.478 161.045C481.944 161.372 482.551 161.535 483.298 161.535C484.418 161.535 485.363 161.208 486.133 160.555C486.903 159.878 487.288 158.933 487.288 157.72V156.145L485.258 156.215ZM503.021 144.595C503.021 145.318 502.997 146.03 502.951 146.73C502.904 147.43 502.857 147.978 502.811 148.375H503.021C503.534 147.582 504.222 146.917 505.086 146.38C505.949 145.82 507.069 145.54 508.446 145.54C510.592 145.54 512.331 146.38 513.661 148.06C514.991 149.717 515.656 152.167 515.656 155.41C515.656 158.677 514.979 161.15 513.626 162.83C512.272 164.51 510.499 165.35 508.306 165.35C506.906 165.35 505.797 165.105 504.981 164.615C504.187 164.102 503.534 163.53 503.021 162.9H502.671L501.796 165H497.806V138.4H503.021V144.595ZM506.766 149.705C505.412 149.705 504.456 150.125 503.896 150.965C503.359 151.805 503.067 153.088 503.021 154.815V155.375C503.021 157.218 503.289 158.642 503.826 159.645C504.386 160.625 505.389 161.115 506.836 161.115C507.909 161.115 508.761 160.625 509.391 159.645C510.021 158.642 510.336 157.207 510.336 155.34C510.336 153.473 510.009 152.073 509.356 151.14C508.726 150.183 507.862 149.705 506.766 149.705ZM527.794 145.505C530.361 145.505 532.321 146.065 533.674 147.185C535.051 148.282 535.739 149.973 535.739 152.26V165H532.099L531.084 162.41H530.944C530.127 163.437 529.264 164.183 528.354 164.65C527.444 165.117 526.196 165.35 524.609 165.35C522.906 165.35 521.494 164.86 520.374 163.88C519.254 162.877 518.694 161.348 518.694 159.295C518.694 157.265 519.406 155.772 520.829 154.815C522.252 153.835 524.387 153.298 527.234 153.205L530.559 153.1V152.26C530.559 151.257 530.291 150.522 529.754 150.055C529.241 149.588 528.517 149.355 527.584 149.355C526.651 149.355 525.741 149.495 524.854 149.775C523.967 150.032 523.081 150.358 522.194 150.755L520.479 147.22C521.506 146.683 522.637 146.263 523.874 145.96C525.134 145.657 526.441 145.505 527.794 145.505ZM528.529 156.215C526.849 156.262 525.682 156.565 525.029 157.125C524.376 157.685 524.049 158.42 524.049 159.33C524.049 160.123 524.282 160.695 524.749 161.045C525.216 161.372 525.822 161.535 526.569 161.535C527.689 161.535 528.634 161.208 529.404 160.555C530.174 159.878 530.559 158.933 530.559 157.72V156.145L528.529 156.215ZM540.867 140.955C540.867 139.975 541.136 139.31 541.672 138.96C542.232 138.587 542.909 138.4 543.702 138.4C544.472 138.4 545.137 138.587 545.697 138.96C546.257 139.31 546.537 139.975 546.537 140.955C546.537 141.912 546.257 142.577 545.697 142.95C545.137 143.323 544.472 143.51 543.702 143.51C542.909 143.51 542.232 143.323 541.672 142.95C541.136 142.577 540.867 141.912 540.867 140.955ZM539.537 173.4C538.954 173.4 538.347 173.353 537.717 173.26C537.064 173.19 536.527 173.097 536.107 172.98V168.885C536.527 168.978 536.924 169.048 537.297 169.095C537.671 169.165 538.091 169.2 538.557 169.2C539.257 169.2 539.852 169.002 540.342 168.605C540.832 168.208 541.077 167.438 541.077 166.295V145.89H546.292V167.065C546.292 168.232 546.071 169.293 545.627 170.25C545.184 171.207 544.461 171.965 543.457 172.525C542.477 173.108 541.171 173.4 539.537 173.4ZM559.581 145.505C562.148 145.505 564.108 146.065 565.461 147.185C566.838 148.282 567.526 149.973 567.526 152.26V165H563.886L562.871 162.41H562.731C561.915 163.437 561.051 164.183 560.141 164.65C559.231 165.117 557.983 165.35 556.396 165.35C554.693 165.35 553.281 164.86 552.161 163.88C551.041 162.877 550.481 161.348 550.481 159.295C550.481 157.265 551.193 155.772 552.616 154.815C554.04 153.835 556.175 153.298 559.021 153.205L562.346 153.1V152.26C562.346 151.257 562.078 150.522 561.541 150.055C561.028 149.588 560.305 149.355 559.371 149.355C558.438 149.355 557.528 149.495 556.641 149.775C555.755 150.032 554.868 150.358 553.981 150.755L552.266 147.22C553.293 146.683 554.425 146.263 555.661 145.96C556.921 145.657 558.228 145.505 559.581 145.505ZM560.316 156.215C558.636 156.262 557.47 156.565 556.816 157.125C556.163 157.685 555.836 158.42 555.836 159.33C555.836 160.123 556.07 160.695 556.536 161.045C557.003 161.372 557.61 161.535 558.356 161.535C559.476 161.535 560.421 161.208 561.191 160.555C561.961 159.878 562.346 158.933 562.346 157.72V156.145L560.316 156.215ZM583.714 145.54C585.768 145.54 587.413 146.1 588.649 147.22C589.886 148.317 590.504 150.09 590.504 152.54V165H585.289V153.835C585.289 152.458 585.044 151.432 584.554 150.755C584.064 150.055 583.283 149.705 582.209 149.705C580.623 149.705 579.538 150.253 578.954 151.35C578.371 152.423 578.079 153.975 578.079 156.005V165H572.864V145.89H576.854L577.554 148.34H577.834C578.441 147.36 579.269 146.648 580.319 146.205C581.393 145.762 582.524 145.54 583.714 145.54ZM601.922 165.35C599.799 165.35 598.061 164.522 596.707 162.865C595.377 161.185 594.712 158.723 594.712 155.48C594.712 152.213 595.389 149.74 596.742 148.06C598.096 146.38 599.869 145.54 602.062 145.54C603.439 145.54 604.571 145.808 605.457 146.345C606.344 146.882 607.044 147.547 607.557 148.34H607.732C607.662 147.967 607.581 147.43 607.487 146.73C607.394 146.007 607.347 145.272 607.347 144.525V138.4H612.562V165H608.572L607.557 162.515H607.347C606.834 163.308 606.146 163.985 605.282 164.545C604.419 165.082 603.299 165.35 601.922 165.35ZM603.742 161.185C605.189 161.185 606.204 160.765 606.787 159.925C607.371 159.062 607.674 157.778 607.697 156.075V155.515C607.697 153.648 607.406 152.225 606.822 151.245C606.262 150.265 605.212 149.775 603.672 149.775C602.529 149.775 601.631 150.277 600.977 151.28C600.324 152.26 599.997 153.683 599.997 155.55C599.997 157.417 600.324 158.828 600.977 159.785C601.631 160.718 602.552 161.185 603.742 161.185ZM635.376 155.41C635.376 158.583 634.536 161.033 632.856 162.76C631.199 164.487 628.936 165.35 626.066 165.35C624.292 165.35 622.706 164.965 621.306 164.195C619.929 163.425 618.844 162.305 618.051 160.835C617.257 159.342 616.861 157.533 616.861 155.41C616.861 152.237 617.689 149.798 619.346 148.095C621.002 146.392 623.277 145.54 626.171 145.54C627.967 145.54 629.554 145.925 630.931 146.695C632.307 147.465 633.392 148.585 634.186 150.055C634.979 151.502 635.376 153.287 635.376 155.41ZM622.181 155.41C622.181 157.3 622.484 158.735 623.091 159.715C623.721 160.672 624.736 161.15 626.136 161.15C627.512 161.15 628.504 160.672 629.111 159.715C629.741 158.735 630.056 157.3 630.056 155.41C630.056 153.52 629.741 152.108 629.111 151.175C628.504 150.218 627.501 149.74 626.101 149.74C624.724 149.74 623.721 150.218 623.091 151.175C622.484 152.108 622.181 153.52 622.181 155.41ZM659.417 145.54C661.564 145.54 663.302 146.38 664.632 148.06C665.962 149.717 666.627 152.167 666.627 155.41C666.627 158.653 665.939 161.127 664.562 162.83C663.186 164.51 661.424 165.35 659.277 165.35C657.901 165.35 656.804 165.105 655.987 164.615C655.171 164.102 654.506 163.53 653.992 162.9H653.712C653.899 163.88 653.992 164.813 653.992 165.7V173.4H648.777V145.89H653.012L653.747 148.375H653.992C654.506 147.605 655.194 146.94 656.057 146.38C656.921 145.82 658.041 145.54 659.417 145.54ZM657.737 149.705C656.384 149.705 655.427 150.125 654.867 150.965C654.331 151.805 654.039 153.088 653.992 154.815V155.375C653.992 157.218 654.261 158.642 654.797 159.645C655.357 160.625 656.361 161.115 657.807 161.115C658.997 161.115 659.872 160.625 660.432 159.645C661.016 158.642 661.307 157.207 661.307 155.34C661.307 151.583 660.117 149.705 657.737 149.705ZM678.766 145.505C681.332 145.505 683.292 146.065 684.646 147.185C686.022 148.282 686.711 149.973 686.711 152.26V165H683.071L682.056 162.41H681.916C681.099 163.437 680.236 164.183 679.326 164.65C678.416 165.117 677.167 165.35 675.581 165.35C673.877 165.35 672.466 164.86 671.346 163.88C670.226 162.877 669.666 161.348 669.666 159.295C669.666 157.265 670.377 155.772 671.801 154.815C673.224 153.835 675.359 153.298 678.206 153.205L681.531 153.1V152.26C681.531 151.257 681.262 150.522 680.726 150.055C680.212 149.588 679.489 149.355 678.556 149.355C677.622 149.355 676.712 149.495 675.826 149.775C674.939 150.032 674.052 150.358 673.166 150.755L671.451 147.22C672.477 146.683 673.609 146.263 674.846 145.96C676.106 145.657 677.412 145.505 678.766 145.505ZM679.501 156.215C677.821 156.262 676.654 156.565 676.001 157.125C675.347 157.685 675.021 158.42 675.021 159.33C675.021 160.123 675.254 160.695 675.721 161.045C676.187 161.372 676.794 161.535 677.541 161.535C678.661 161.535 679.606 161.208 680.376 160.555C681.146 159.878 681.531 158.933 681.531 157.72V156.145L679.501 156.215ZM702.724 145.54C702.981 145.54 703.284 145.552 703.634 145.575C703.984 145.598 704.264 145.633 704.474 145.68L704.089 150.58C703.926 150.533 703.681 150.498 703.354 150.475C703.051 150.428 702.782 150.405 702.549 150.405C701.662 150.405 700.811 150.568 699.994 150.895C699.177 151.198 698.512 151.7 697.999 152.4C697.509 153.1 697.264 154.057 697.264 155.27V165H692.049V145.89H696.004L696.774 149.11H697.019C697.579 148.13 698.349 147.29 699.329 146.59C700.309 145.89 701.441 145.54 702.724 145.54ZM715.099 145.505C717.665 145.505 719.625 146.065 720.979 147.185C722.355 148.282 723.044 149.973 723.044 152.26V165H719.404L718.389 162.41H718.249C717.432 163.437 716.569 164.183 715.659 164.65C714.749 165.117 713.5 165.35 711.914 165.35C710.21 165.35 708.799 164.86 707.679 163.88C706.559 162.877 705.999 161.348 705.999 159.295C705.999 157.265 706.71 155.772 708.134 154.815C709.557 153.835 711.692 153.298 714.539 153.205L717.864 153.1V152.26C717.864 151.257 717.595 150.522 717.059 150.055C716.545 149.588 715.822 149.355 714.889 149.355C713.955 149.355 713.045 149.495 712.159 149.775C711.272 150.032 710.385 150.358 709.499 150.755L707.784 147.22C708.81 146.683 709.942 146.263 711.179 145.96C712.439 145.657 713.745 145.505 715.099 145.505ZM715.834 156.215C714.154 156.262 712.987 156.565 712.334 157.125C711.68 157.685 711.354 158.42 711.354 159.33C711.354 160.123 711.587 160.695 712.054 161.045C712.52 161.372 713.127 161.535 713.874 161.535C714.994 161.535 715.939 161.208 716.709 160.555C717.479 159.878 717.864 158.933 717.864 157.72V156.145L715.834 156.215ZM274.335 193.54C276.505 193.54 278.138 194.1 279.235 195.22C280.355 196.317 280.915 198.09 280.915 200.54V213H275.7V201.835C275.7 199.082 274.743 197.705 272.83 197.705C271.453 197.705 270.473 198.195 269.89 199.175C269.307 200.155 269.015 201.567 269.015 203.41V213H263.8V201.835C263.8 199.082 262.843 197.705 260.93 197.705C259.483 197.705 258.48 198.253 257.92 199.35C257.383 200.423 257.115 201.975 257.115 204.005V213H251.9V193.89H255.89L256.59 196.34H256.87C257.453 195.36 258.247 194.648 259.25 194.205C260.277 193.762 261.338 193.54 262.435 193.54C263.835 193.54 265.025 193.773 266.005 194.24C266.985 194.683 267.732 195.383 268.245 196.34H268.7C269.283 195.36 270.088 194.648 271.115 194.205C272.165 193.762 273.238 193.54 274.335 193.54ZM294.16 193.54C296.796 193.54 298.885 194.298 300.425 195.815C301.965 197.308 302.735 199.443 302.735 202.22V204.74H290.415C290.461 206.21 290.893 207.365 291.71 208.205C292.55 209.045 293.705 209.465 295.175 209.465C296.411 209.465 297.531 209.348 298.535 209.115C299.538 208.858 300.576 208.473 301.65 207.96V211.985C300.716 212.452 299.725 212.79 298.675 213C297.648 213.233 296.4 213.35 294.93 213.35C293.016 213.35 291.325 213 289.855 212.3C288.385 211.577 287.23 210.492 286.39 209.045C285.55 207.598 285.13 205.778 285.13 203.585C285.13 201.345 285.503 199.49 286.25 198.02C287.02 196.527 288.081 195.407 289.435 194.66C290.788 193.913 292.363 193.54 294.16 193.54ZM294.195 197.25C293.191 197.25 292.351 197.577 291.675 198.23C291.021 198.883 290.636 199.898 290.52 201.275H297.835C297.811 200.108 297.508 199.152 296.925 198.405C296.341 197.635 295.431 197.25 294.195 197.25ZM306.753 188.955C306.753 187.975 307.022 187.31 307.558 186.96C308.118 186.587 308.795 186.4 309.588 186.4C310.358 186.4 311.023 186.587 311.583 186.96C312.143 187.31 312.423 187.975 312.423 188.955C312.423 189.912 312.143 190.577 311.583 190.95C311.023 191.323 310.358 191.51 309.588 191.51C308.795 191.51 308.118 191.323 307.558 190.95C307.022 190.577 306.753 189.912 306.753 188.955ZM305.423 221.4C304.84 221.4 304.233 221.353 303.603 221.26C302.95 221.19 302.413 221.097 301.993 220.98V216.885C302.413 216.978 302.81 217.048 303.183 217.095C303.557 217.165 303.977 217.2 304.443 217.2C305.143 217.2 305.738 217.002 306.228 216.605C306.718 216.208 306.963 215.438 306.963 214.295V193.89H312.178V215.065C312.178 216.232 311.957 217.293 311.513 218.25C311.07 219.207 310.347 219.965 309.343 220.525C308.363 221.108 307.057 221.4 305.423 221.4ZM334.987 203.41C334.987 206.583 334.147 209.033 332.467 210.76C330.811 212.487 328.547 213.35 325.677 213.35C323.904 213.35 322.317 212.965 320.917 212.195C319.541 211.425 318.456 210.305 317.662 208.835C316.869 207.342 316.472 205.533 316.472 203.41C316.472 200.237 317.301 197.798 318.957 196.095C320.614 194.392 322.889 193.54 325.782 193.54C327.579 193.54 329.166 193.925 330.542 194.695C331.919 195.465 333.004 196.585 333.797 198.055C334.591 199.502 334.987 201.287 334.987 203.41ZM321.792 203.41C321.792 205.3 322.096 206.735 322.702 207.715C323.332 208.672 324.347 209.15 325.747 209.15C327.124 209.15 328.116 208.672 328.722 207.715C329.352 206.735 329.667 205.3 329.667 203.41C329.667 201.52 329.352 200.108 328.722 199.175C328.116 198.218 327.112 197.74 325.712 197.74C324.336 197.74 323.332 198.218 322.702 199.175C322.096 200.108 321.792 201.52 321.792 203.41ZM349.972 193.54C350.229 193.54 350.532 193.552 350.882 193.575C351.232 193.598 351.512 193.633 351.722 193.68L351.337 198.58C351.174 198.533 350.929 198.498 350.602 198.475C350.299 198.428 350.031 198.405 349.797 198.405C348.911 198.405 348.059 198.568 347.242 198.895C346.426 199.198 345.761 199.7 345.247 200.4C344.757 201.1 344.512 202.057 344.512 203.27V213H339.297V193.89H343.252L344.022 197.11H344.267C344.827 196.13 345.597 195.29 346.577 194.59C347.557 193.89 348.689 193.54 349.972 193.54ZM362.347 193.505C364.914 193.505 366.874 194.065 368.227 195.185C369.604 196.282 370.292 197.973 370.292 200.26V213H366.652L365.637 210.41H365.497C364.681 211.437 363.817 212.183 362.907 212.65C361.997 213.117 360.749 213.35 359.162 213.35C357.459 213.35 356.047 212.86 354.927 211.88C353.807 210.877 353.247 209.348 353.247 207.295C353.247 205.265 353.959 203.772 355.382 202.815C356.806 201.835 358.941 201.298 361.787 201.205L365.112 201.1V200.26C365.112 199.257 364.844 198.522 364.307 198.055C363.794 197.588 363.071 197.355 362.137 197.355C361.204 197.355 360.294 197.495 359.407 197.775C358.521 198.032 357.634 198.358 356.747 198.755L355.032 195.22C356.059 194.683 357.191 194.263 358.427 193.96C359.687 193.657 360.994 193.505 362.347 193.505ZM363.082 204.215C361.402 204.262 360.236 204.565 359.582 205.125C358.929 205.685 358.602 206.42 358.602 207.33C358.602 208.123 358.836 208.695 359.302 209.045C359.769 209.372 360.376 209.535 361.122 209.535C362.242 209.535 363.187 209.208 363.957 208.555C364.727 207.878 365.112 206.933 365.112 205.72V204.145L363.082 204.215ZM386.305 193.54C386.562 193.54 386.865 193.552 387.215 193.575C387.565 193.598 387.845 193.633 388.055 193.68L387.67 198.58C387.507 198.533 387.262 198.498 386.935 198.475C386.632 198.428 386.364 198.405 386.13 198.405C385.244 198.405 384.392 198.568 383.575 198.895C382.759 199.198 382.094 199.7 381.58 200.4C381.09 201.1 380.845 202.057 380.845 203.27V213H375.63V193.89H379.585L380.355 197.11H380.6C381.16 196.13 381.93 195.29 382.91 194.59C383.89 193.89 385.022 193.54 386.305 193.54ZM405.831 213H400.616V186.4H405.831V213ZM419.12 193.505C421.686 193.505 423.646 194.065 425 195.185C426.376 196.282 427.065 197.973 427.065 200.26V213H423.425L422.41 210.41H422.27C421.453 211.437 420.59 212.183 419.68 212.65C418.77 213.117 417.521 213.35 415.935 213.35C414.231 213.35 412.82 212.86 411.7 211.88C410.58 210.877 410.02 209.348 410.02 207.295C410.02 205.265 410.731 203.772 412.155 202.815C413.578 201.835 415.713 201.298 418.56 201.205L421.885 201.1V200.26C421.885 199.257 421.616 198.522 421.08 198.055C420.566 197.588 419.843 197.355 418.91 197.355C417.976 197.355 417.066 197.495 416.18 197.775C415.293 198.032 414.406 198.358 413.52 198.755L411.805 195.22C412.831 194.683 413.963 194.263 415.2 193.96C416.46 193.657 417.766 193.505 419.12 193.505ZM419.855 204.215C418.175 204.262 417.008 204.565 416.355 205.125C415.701 205.685 415.375 206.42 415.375 207.33C415.375 208.123 415.608 208.695 416.075 209.045C416.541 209.372 417.148 209.535 417.895 209.535C419.015 209.535 419.96 209.208 420.73 208.555C421.5 207.878 421.885 206.933 421.885 205.72V204.145L419.855 204.215ZM449.265 213.35C446.418 213.35 444.213 212.568 442.65 211.005C441.11 209.418 440.34 206.933 440.34 203.55C440.34 201.217 440.736 199.315 441.53 197.845C442.323 196.375 443.42 195.29 444.82 194.59C446.243 193.89 447.876 193.54 449.72 193.54C451.026 193.54 452.158 193.668 453.115 193.925C454.095 194.182 454.946 194.485 455.67 194.835L454.13 198.86C453.313 198.533 452.543 198.265 451.82 198.055C451.12 197.845 450.42 197.74 449.72 197.74C447.013 197.74 445.66 199.665 445.66 203.515C445.66 205.428 446.01 206.84 446.71 207.75C447.433 208.66 448.436 209.115 449.72 209.115C450.816 209.115 451.785 208.975 452.625 208.695C453.465 208.392 454.281 207.983 455.075 207.47V211.915C454.281 212.428 453.441 212.79 452.555 213C451.691 213.233 450.595 213.35 449.265 213.35ZM462.098 186.4C462.868 186.4 463.533 186.587 464.093 186.96C464.653 187.31 464.933 187.975 464.933 188.955C464.933 189.912 464.653 190.577 464.093 190.95C463.533 191.323 462.868 191.51 462.098 191.51C461.305 191.51 460.628 191.323 460.068 190.95C459.531 190.577 459.263 189.912 459.263 188.955C459.263 187.975 459.531 187.31 460.068 186.96C460.628 186.587 461.305 186.4 462.098 186.4ZM464.688 193.89V213H459.473V193.89H464.688ZM487.672 193.89V213H483.682L482.982 210.55H482.702C482.096 211.53 481.256 212.242 480.182 212.685C479.132 213.128 478.012 213.35 476.822 213.35C474.769 213.35 473.124 212.802 471.887 211.705C470.651 210.585 470.032 208.8 470.032 206.35V193.89H475.247V205.055C475.247 206.408 475.492 207.435 475.982 208.135C476.472 208.835 477.254 209.185 478.327 209.185C479.914 209.185 480.999 208.648 481.582 207.575C482.166 206.478 482.457 204.915 482.457 202.885V193.89H487.672ZM499.195 213.35C497.072 213.35 495.333 212.522 493.98 210.865C492.65 209.185 491.985 206.723 491.985 203.48C491.985 200.213 492.662 197.74 494.015 196.06C495.368 194.38 497.142 193.54 499.335 193.54C500.712 193.54 501.843 193.808 502.73 194.345C503.617 194.882 504.317 195.547 504.83 196.34H505.005C504.935 195.967 504.853 195.43 504.76 194.73C504.667 194.007 504.62 193.272 504.62 192.525V186.4H509.835V213H505.845L504.83 210.515H504.62C504.107 211.308 503.418 211.985 502.555 212.545C501.692 213.082 500.572 213.35 499.195 213.35ZM501.015 209.185C502.462 209.185 503.477 208.765 504.06 207.925C504.643 207.062 504.947 205.778 504.97 204.075V203.515C504.97 201.648 504.678 200.225 504.095 199.245C503.535 198.265 502.485 197.775 500.945 197.775C499.802 197.775 498.903 198.277 498.25 199.28C497.597 200.26 497.27 201.683 497.27 203.55C497.27 205.417 497.597 206.828 498.25 207.785C498.903 208.718 499.825 209.185 501.015 209.185ZM523.129 193.505C525.695 193.505 527.655 194.065 529.009 195.185C530.385 196.282 531.074 197.973 531.074 200.26V213H527.434L526.419 210.41H526.279C525.462 211.437 524.599 212.183 523.689 212.65C522.779 213.117 521.53 213.35 519.944 213.35C518.24 213.35 516.829 212.86 515.709 211.88C514.589 210.877 514.029 209.348 514.029 207.295C514.029 205.265 514.74 203.772 516.164 202.815C517.587 201.835 519.722 201.298 522.569 201.205L525.894 201.1V200.26C525.894 199.257 525.625 198.522 525.089 198.055C524.575 197.588 523.852 197.355 522.919 197.355C521.985 197.355 521.075 197.495 520.189 197.775C519.302 198.032 518.415 198.358 517.529 198.755L515.814 195.22C516.84 194.683 517.972 194.263 519.209 193.96C520.469 193.657 521.775 193.505 523.129 193.505ZM523.864 204.215C522.184 204.262 521.017 204.565 520.364 205.125C519.71 205.685 519.384 206.42 519.384 207.33C519.384 208.123 519.617 208.695 520.084 209.045C520.55 209.372 521.157 209.535 521.904 209.535C523.024 209.535 523.969 209.208 524.739 208.555C525.509 207.878 525.894 206.933 525.894 205.72V204.145L523.864 204.215ZM542.467 213.35C540.343 213.35 538.605 212.522 537.252 210.865C535.922 209.185 535.257 206.723 535.257 203.48C535.257 200.213 535.933 197.74 537.287 196.06C538.64 194.38 540.413 193.54 542.607 193.54C543.983 193.54 545.115 193.808 546.002 194.345C546.888 194.882 547.588 195.547 548.102 196.34H548.277C548.207 195.967 548.125 195.43 548.032 194.73C547.938 194.007 547.892 193.272 547.892 192.525V186.4H553.107V213H549.117L548.102 210.515H547.892C547.378 211.308 546.69 211.985 545.827 212.545C544.963 213.082 543.843 213.35 542.467 213.35ZM544.287 209.185C545.733 209.185 546.748 208.765 547.332 207.925C547.915 207.062 548.218 205.778 548.242 204.075V203.515C548.242 201.648 547.95 200.225 547.367 199.245C546.807 198.265 545.757 197.775 544.217 197.775C543.073 197.775 542.175 198.277 541.522 199.28C540.868 200.26 540.542 201.683 540.542 203.55C540.542 205.417 540.868 206.828 541.522 207.785C542.175 208.718 543.097 209.185 544.287 209.185Z" fill="black"/>
<path d="M45.1798 83.53C43.1398 83.53 41.5348 84.37 40.3648 86.05C39.1948 87.73 38.6098 90.07 38.6098 93.07C38.6098 96.1 39.1948 98.41 40.3648 100C41.5348 101.56 43.3048 102.34 45.6748 102.34C47.0848 102.34 48.4498 102.145 49.7698 101.755C51.1198 101.365 52.4698 100.885 53.8198 100.315V107.65C52.4098 108.28 50.9548 108.73 49.4548 109C47.9848 109.3 46.4098 109.45 44.7298 109.45C41.2498 109.45 38.3998 108.76 36.1798 107.38C33.9598 106 32.3248 104.08 31.2748 101.62C30.2248 99.13 29.6998 96.265 29.6998 93.025C29.6998 89.785 30.2998 86.92 31.4998 84.43C32.6998 81.94 34.4548 79.99 36.7648 78.58C39.1048 77.14 41.9398 76.42 45.2698 76.42C46.8298 76.42 48.4648 76.6 50.1748 76.96C51.8848 77.32 53.5648 77.89 55.2148 78.67L52.5598 85.51C51.3898 84.94 50.2048 84.475 49.0048 84.115C47.8048 83.725 46.5298 83.53 45.1798 83.53ZM63.9634 74.08C65.1934 74.08 66.2584 74.335 67.1584 74.845C68.0884 75.355 68.5534 76.375 68.5534 77.905C68.5534 79.375 68.0884 80.38 67.1584 80.92C66.2584 81.43 65.1934 81.685 63.9634 81.685C62.7034 81.685 61.6234 81.43 60.7234 80.92C59.8534 80.38 59.4184 79.375 59.4184 77.905C59.4184 76.375 59.8534 75.355 60.7234 74.845C61.6234 74.335 62.7034 74.08 63.9634 74.08ZM68.2384 84.115V109H59.6434V84.115H68.2384ZM98.4422 84.115V109H91.9622L90.8822 105.895H90.3872C89.6072 107.155 88.5422 108.07 87.1922 108.64C85.8422 109.18 84.4022 109.45 82.8722 109.45C81.2522 109.45 79.7822 109.135 78.4622 108.505C77.1422 107.875 76.0922 106.885 75.3122 105.535C74.5622 104.185 74.1872 102.445 74.1872 100.315V84.115H82.7822V97.705C82.7822 99.325 83.0072 100.555 83.4572 101.395C83.9372 102.235 84.7022 102.655 85.7522 102.655C87.3722 102.655 88.4522 101.995 88.9922 100.675C89.5622 99.355 89.8472 97.465 89.8472 95.005V84.115H98.4422ZM112.119 109.45C109.569 109.45 107.454 108.355 105.774 106.165C104.124 103.975 103.299 100.78 103.299 96.58C103.299 92.32 104.139 89.11 105.819 86.95C107.529 84.76 109.734 83.665 112.434 83.665C114.114 83.665 115.449 84.01 116.439 84.7C117.459 85.39 118.299 86.26 118.959 87.31H119.139C119.019 86.68 118.914 85.81 118.824 84.7C118.764 83.59 118.734 82.51 118.734 81.46V74.8H127.374V109H120.894L119.049 105.85H118.734C118.134 106.84 117.309 107.695 116.259 108.415C115.209 109.105 113.829 109.45 112.119 109.45ZM115.629 102.655C117.009 102.655 117.984 102.22 118.554 101.35C119.124 100.48 119.424 99.145 119.454 97.345V96.67C119.454 94.72 119.169 93.22 118.599 92.17C118.059 91.12 117.039 90.595 115.539 90.595C114.519 90.595 113.664 91.09 112.974 92.08C112.314 93.07 111.984 94.615 111.984 96.715C111.984 98.785 112.314 100.3 112.974 101.26C113.664 102.19 114.549 102.655 115.629 102.655ZM145.445 83.665C148.595 83.665 151.055 84.445 152.825 86.005C154.595 87.565 155.48 89.785 155.48 92.665V109H149.54L147.875 105.715H147.695C147.005 106.585 146.285 107.305 145.535 107.875C144.815 108.415 143.975 108.805 143.015 109.045C142.055 109.315 140.885 109.45 139.505 109.45C137.345 109.45 135.545 108.79 134.105 107.47C132.665 106.15 131.945 104.125 131.945 101.395C131.945 98.725 132.86 96.745 134.69 95.455C136.55 94.165 139.235 93.445 142.745 93.295L146.885 93.16V92.8C146.885 91.69 146.615 90.91 146.075 90.46C145.535 89.98 144.8 89.74 143.87 89.74C142.88 89.74 141.785 89.92 140.585 90.28C139.385 90.61 138.17 91.045 136.94 91.585L134.465 85.915C135.905 85.165 137.525 84.61 139.325 84.25C141.155 83.86 143.195 83.665 145.445 83.665ZM144.95 97.975C143.39 98.035 142.28 98.32 141.62 98.83C140.99 99.31 140.675 100 140.675 100.9C140.675 101.74 140.9 102.37 141.35 102.79C141.8 103.18 142.4 103.375 143.15 103.375C144.2 103.375 145.085 103.045 145.805 102.385C146.555 101.725 146.93 100.87 146.93 99.82V97.885L144.95 97.975ZM169.072 109.45C166.522 109.45 164.407 108.355 162.727 106.165C161.077 103.975 160.252 100.78 160.252 96.58C160.252 92.32 161.092 89.11 162.772 86.95C164.482 84.76 166.687 83.665 169.387 83.665C171.067 83.665 172.402 84.01 173.392 84.7C174.412 85.39 175.252 86.26 175.912 87.31H176.092C175.972 86.68 175.867 85.81 175.777 84.7C175.717 83.59 175.687 82.51 175.687 81.46V74.8H184.327V109H177.847L176.002 105.85H175.687C175.087 106.84 174.262 107.695 173.212 108.415C172.162 109.105 170.782 109.45 169.072 109.45ZM172.582 102.655C173.962 102.655 174.937 102.22 175.507 101.35C176.077 100.48 176.377 99.145 176.407 97.345V96.67C176.407 94.72 176.122 93.22 175.552 92.17C175.012 91.12 173.992 90.595 172.492 90.595C171.472 90.595 170.617 91.09 169.927 92.08C169.267 93.07 168.937 94.615 168.937 96.715C168.937 98.785 169.267 100.3 169.927 101.26C170.617 102.19 171.502 102.655 172.582 102.655ZM209.677 109.45C207.127 109.45 205.012 108.355 203.332 106.165C201.682 103.975 200.857 100.78 200.857 96.58C200.857 92.32 201.697 89.11 203.377 86.95C205.087 84.76 207.292 83.665 209.992 83.665C211.672 83.665 213.007 84.01 213.997 84.7C215.017 85.39 215.857 86.26 216.517 87.31H216.697C216.577 86.68 216.472 85.81 216.382 84.7C216.322 83.59 216.292 82.51 216.292 81.46V74.8H224.932V109H218.452L216.607 105.85H216.292C215.692 106.84 214.867 107.695 213.817 108.415C212.767 109.105 211.387 109.45 209.677 109.45ZM213.187 102.655C214.567 102.655 215.542 102.22 216.112 101.35C216.682 100.48 216.982 99.145 217.012 97.345V96.67C217.012 94.72 216.727 93.22 216.157 92.17C215.617 91.12 214.597 90.595 213.097 90.595C212.077 90.595 211.222 91.09 210.532 92.08C209.872 93.07 209.542 94.615 209.542 96.715C209.542 98.785 209.872 100.3 210.532 101.26C211.222 102.19 212.107 102.655 213.187 102.655ZM242.058 83.665C245.688 83.665 248.553 84.61 250.653 86.5C252.753 88.39 253.803 91.24 253.803 95.05V98.875H238.458C238.518 100.165 238.998 101.23 239.898 102.07C240.828 102.91 242.163 103.33 243.903 103.33C245.463 103.33 246.888 103.18 248.178 102.88C249.468 102.58 250.803 102.1 252.183 101.44V107.605C250.983 108.235 249.663 108.7 248.223 109C246.813 109.3 245.028 109.45 242.868 109.45C240.348 109.45 238.098 109.015 236.118 108.145C234.168 107.245 232.623 105.85 231.483 103.96C230.343 102.07 229.773 99.655 229.773 96.715C229.773 93.715 230.283 91.255 231.303 89.335C232.353 87.415 233.793 85.99 235.623 85.06C237.483 84.13 239.628 83.665 242.058 83.665ZM242.373 89.515C241.353 89.515 240.498 89.83 239.808 90.46C239.148 91.09 238.758 92.095 238.638 93.475H246.018C245.988 92.365 245.658 91.435 245.028 90.685C244.428 89.905 243.543 89.515 242.373 89.515ZM284.85 109L278.28 85.87H278.1C278.16 86.47 278.22 87.28 278.28 88.3C278.34 89.32 278.4 90.43 278.46 91.63C278.52 92.8 278.55 93.94 278.55 95.05V109H270.855V76.87H282.42L289.125 99.685H289.305L295.875 76.87H307.44V109H299.475V94.915C299.475 93.895 299.49 92.815 299.52 91.675C299.55 90.505 299.595 89.41 299.655 88.39C299.715 87.34 299.76 86.515 299.79 85.915H299.61L293.13 109H284.85ZM325.071 83.665C328.701 83.665 331.566 84.61 333.666 86.5C335.766 88.39 336.816 91.24 336.816 95.05V98.875H321.471C321.531 100.165 322.011 101.23 322.911 102.07C323.841 102.91 325.176 103.33 326.916 103.33C328.476 103.33 329.901 103.18 331.191 102.88C332.481 102.58 333.816 102.1 335.196 101.44V107.605C333.996 108.235 332.676 108.7 331.236 109C329.826 109.3 328.041 109.45 325.881 109.45C323.361 109.45 321.111 109.015 319.131 108.145C317.181 107.245 315.636 105.85 314.496 103.96C313.356 102.07 312.786 99.655 312.786 96.715C312.786 93.715 313.296 91.255 314.316 89.335C315.366 87.415 316.806 85.99 318.636 85.06C320.496 84.13 322.641 83.665 325.071 83.665ZM325.386 89.515C324.366 89.515 323.511 89.83 322.821 90.46C322.161 91.09 321.771 92.095 321.651 93.475H329.031C329.001 92.365 328.671 91.435 328.041 90.685C327.441 89.905 326.556 89.515 325.386 89.515ZM335.511 74.98C334.971 75.4 334.296 75.925 333.486 76.555C332.676 77.155 331.806 77.785 330.876 78.445C329.946 79.075 329.046 79.69 328.176 80.29C327.336 80.86 326.616 81.34 326.016 81.73H320.301V81.1C320.811 80.53 321.426 79.87 322.146 79.12C322.866 78.34 323.586 77.545 324.306 76.735C325.026 75.925 325.626 75.19 326.106 74.53H335.511V74.98ZM346.069 96.31L338.464 84.115H348.229L352.009 91.09L355.879 84.115H365.644L357.859 96.31L365.959 109H356.194L352.009 101.44L347.824 109H338.059L346.069 96.31ZM373.514 74.08C374.744 74.08 375.809 74.335 376.709 74.845C377.639 75.355 378.104 76.375 378.104 77.905C378.104 79.375 377.639 80.38 376.709 80.92C375.809 81.43 374.744 81.685 373.514 81.685C372.254 81.685 371.174 81.43 370.274 80.92C369.404 80.38 368.969 79.375 368.969 77.905C368.969 76.375 369.404 75.355 370.274 74.845C371.174 74.335 372.254 74.08 373.514 74.08ZM377.789 84.115V109H369.194V84.115H377.789ZM395.123 109.45C391.343 109.45 388.328 108.43 386.078 106.39C383.828 104.35 382.703 101.11 382.703 96.67C382.703 93.64 383.273 91.18 384.413 89.29C385.553 87.37 387.098 85.96 389.048 85.06C391.028 84.13 393.278 83.665 395.798 83.665C397.328 83.665 398.768 83.83 400.118 84.16C401.498 84.49 402.773 84.955 403.943 85.555L401.423 91.9C400.403 91.45 399.443 91.09 398.543 90.82C397.673 90.55 396.758 90.415 395.798 90.415C394.508 90.415 393.458 90.925 392.648 91.945C391.838 92.965 391.433 94.525 391.433 96.625C391.433 98.785 391.838 100.33 392.648 101.26C393.488 102.16 394.553 102.61 395.843 102.61C397.073 102.61 398.303 102.415 399.533 102.025C400.793 101.635 401.978 101.095 403.088 100.405V107.245C402.068 107.905 400.913 108.445 399.623 108.865C398.333 109.255 396.833 109.45 395.123 109.45ZM431.801 96.49C431.801 100.66 430.691 103.87 428.471 106.12C426.251 108.34 423.206 109.45 419.336 109.45C416.936 109.45 414.806 108.955 412.946 107.965C411.086 106.945 409.616 105.475 408.536 103.555C407.486 101.605 406.961 99.25 406.961 96.49C406.961 92.38 408.071 89.215 410.291 86.995C412.511 84.775 415.571 83.665 419.471 83.665C421.871 83.665 423.986 84.16 425.816 85.15C427.676 86.14 429.131 87.595 430.181 89.515C431.261 91.405 431.801 93.73 431.801 96.49ZM415.691 96.49C415.691 98.62 415.976 100.255 416.546 101.395C417.116 102.505 418.076 103.06 419.426 103.06C420.746 103.06 421.676 102.505 422.216 101.395C422.786 100.255 423.071 98.62 423.071 96.49C423.071 94.36 422.786 92.755 422.216 91.675C421.676 90.595 420.731 90.055 419.381 90.055C418.091 90.055 417.146 90.595 416.546 91.675C415.976 92.755 415.691 94.36 415.691 96.49ZM461.523 90.19H469.713V96.085H461.523V104.005H455.628V96.085H447.438V90.19H455.628V82.135H461.523V90.19ZM501.244 83.53C499.204 83.53 497.599 84.37 496.429 86.05C495.259 87.73 494.674 90.07 494.674 93.07C494.674 96.1 495.259 98.41 496.429 100C497.599 101.56 499.369 102.34 501.739 102.34C503.149 102.34 504.514 102.145 505.834 101.755C507.184 101.365 508.534 100.885 509.884 100.315V107.65C508.474 108.28 507.019 108.73 505.519 109C504.049 109.3 502.474 109.45 500.794 109.45C497.314 109.45 494.464 108.76 492.244 107.38C490.024 106 488.389 104.08 487.339 101.62C486.289 99.13 485.764 96.265 485.764 93.025C485.764 89.785 486.364 86.92 487.564 84.43C488.764 81.94 490.519 79.99 492.829 78.58C495.169 77.14 498.004 76.42 501.334 76.42C502.894 76.42 504.529 76.6 506.239 76.96C507.949 77.32 509.629 77.89 511.279 78.67L508.624 85.51C507.454 84.94 506.269 84.475 505.069 84.115C503.869 83.725 502.594 83.53 501.244 83.53ZM539.873 84.115V109H533.393L532.313 105.895H531.818C531.038 107.155 529.973 108.07 528.623 108.64C527.273 109.18 525.833 109.45 524.303 109.45C522.683 109.45 521.213 109.135 519.893 108.505C518.573 107.875 517.523 106.885 516.743 105.535C515.993 104.185 515.618 102.445 515.618 100.315V84.115H524.213V97.705C524.213 99.325 524.438 100.555 524.888 101.395C525.368 102.235 526.133 102.655 527.183 102.655C528.803 102.655 529.883 101.995 530.423 100.675C530.993 99.355 531.278 97.465 531.278 95.005V84.115H539.873ZM557.959 83.665C561.109 83.665 563.569 84.445 565.339 86.005C567.109 87.565 567.994 89.785 567.994 92.665V109H562.054L560.389 105.715H560.209C559.519 106.585 558.799 107.305 558.049 107.875C557.329 108.415 556.489 108.805 555.529 109.045C554.569 109.315 553.399 109.45 552.019 109.45C549.859 109.45 548.059 108.79 546.619 107.47C545.179 106.15 544.459 104.125 544.459 101.395C544.459 98.725 545.374 96.745 547.204 95.455C549.064 94.165 551.749 93.445 555.259 93.295L559.399 93.16V92.8C559.399 91.69 559.129 90.91 558.589 90.46C558.049 89.98 557.314 89.74 556.384 89.74C555.394 89.74 554.299 89.92 553.099 90.28C551.899 90.61 550.684 91.045 549.454 91.585L546.979 85.915C548.419 85.165 550.039 84.61 551.839 84.25C553.669 83.86 555.709 83.665 557.959 83.665ZM557.464 97.975C555.904 98.035 554.794 98.32 554.134 98.83C553.504 99.31 553.189 100 553.189 100.9C553.189 101.74 553.414 102.37 553.864 102.79C554.314 103.18 554.914 103.375 555.664 103.375C556.714 103.375 557.599 103.045 558.319 102.385C559.069 101.725 559.444 100.87 559.444 99.82V97.885L557.464 97.975ZM598.056 84.115V109H591.576L590.496 105.895H590.001C589.221 107.155 588.156 108.07 586.806 108.64C585.456 109.18 584.016 109.45 582.486 109.45C580.866 109.45 579.396 109.135 578.076 108.505C576.756 107.875 575.706 106.885 574.926 105.535C574.176 104.185 573.801 102.445 573.801 100.315V84.115H582.396V97.705C582.396 99.325 582.621 100.555 583.071 101.395C583.551 102.235 584.316 102.655 585.366 102.655C586.986 102.655 588.066 101.995 588.606 100.675C589.176 99.355 589.461 97.465 589.461 95.005V84.115H598.056ZM612.588 79.66C612.588 81.49 612.543 83.035 612.453 84.295C612.363 85.555 612.288 86.515 612.228 87.175H612.633C613.443 85.885 614.418 84.985 615.558 84.475C616.698 83.935 618.003 83.665 619.473 83.665C621.123 83.665 622.608 83.98 623.928 84.61C625.248 85.24 626.298 86.23 627.078 87.58C627.888 88.9 628.293 90.64 628.293 92.8V109H619.653V95.41C619.653 92.08 618.663 90.415 616.683 90.415C615.123 90.415 614.043 91.075 613.443 92.395C612.873 93.715 612.588 95.605 612.588 98.065V109H603.993V74.8H612.588V79.66ZM646.334 102.655C647.114 102.655 647.819 102.58 648.449 102.43C649.109 102.25 649.784 102.04 650.474 101.8V108.055C649.544 108.445 648.554 108.775 647.504 109.045C646.454 109.315 645.119 109.45 643.499 109.45C641.879 109.45 640.454 109.195 639.224 108.685C638.024 108.175 637.079 107.305 636.389 106.075C635.699 104.815 635.354 103.06 635.354 100.81V90.55H632.339V87.04L636.164 84.34L638.369 79.12H643.994V84.115H650.114V90.55H643.994V100.225C643.994 101.845 644.774 102.655 646.334 102.655ZM666.043 83.665C669.673 83.665 672.538 84.61 674.638 86.5C676.738 88.39 677.788 91.24 677.788 95.05V98.875H662.443C662.503 100.165 662.983 101.23 663.883 102.07C664.813 102.91 666.148 103.33 667.888 103.33C669.448 103.33 670.873 103.18 672.163 102.88C673.453 102.58 674.788 102.1 676.168 101.44V107.605C674.968 108.235 673.648 108.7 672.208 109C670.798 109.3 669.013 109.45 666.853 109.45C664.333 109.45 662.083 109.015 660.103 108.145C658.153 107.245 656.608 105.85 655.468 103.96C654.328 102.07 653.758 99.655 653.758 96.715C653.758 93.715 654.268 91.255 655.288 89.335C656.338 87.415 657.778 85.99 659.608 85.06C661.468 84.13 663.613 83.665 666.043 83.665ZM666.358 89.515C665.338 89.515 664.483 89.83 663.793 90.46C663.133 91.09 662.743 92.095 662.623 93.475H670.003C669.973 92.365 669.643 91.435 669.013 90.685C668.413 89.905 667.528 89.515 666.358 89.515ZM676.483 74.98C675.943 75.4 675.268 75.925 674.458 76.555C673.648 77.155 672.778 77.785 671.848 78.445C670.918 79.075 670.018 79.69 669.148 80.29C668.308 80.86 667.588 81.34 666.988 81.73H661.273V81.1C661.783 80.53 662.398 79.87 663.118 79.12C663.838 78.34 664.558 77.545 665.278 76.735C665.998 75.925 666.598 75.19 667.078 74.53H676.483V74.98ZM713.03 83.665C715.88 83.665 718.055 84.385 719.555 85.825C721.055 87.265 721.805 89.59 721.805 92.8V109H713.21V95.455C713.21 93.565 712.955 92.26 712.445 91.54C711.935 90.79 711.185 90.415 710.195 90.415C708.815 90.415 707.855 91.03 707.315 92.26C706.775 93.46 706.505 95.17 706.505 97.39V109H697.91V95.455C697.91 93.655 697.67 92.365 697.19 91.585C696.71 90.805 695.99 90.415 695.03 90.415C693.56 90.415 692.555 91.075 692.015 92.395C691.505 93.715 691.25 95.62 691.25 98.11V109H682.655V84.115H689.135L690.395 87.175H690.62C691.28 86.155 692.225 85.315 693.455 84.655C694.715 83.995 696.26 83.665 698.09 83.665C699.92 83.665 701.42 83.98 702.59 84.61C703.79 85.21 704.765 86.05 705.515 87.13H705.785C706.565 86.02 707.57 85.165 708.8 84.565C710.06 83.965 711.47 83.665 713.03 83.665ZM751.415 96.49C751.415 100.66 750.305 103.87 748.085 106.12C745.865 108.34 742.82 109.45 738.95 109.45C736.55 109.45 734.42 108.955 732.56 107.965C730.7 106.945 729.23 105.475 728.15 103.555C727.1 101.605 726.575 99.25 726.575 96.49C726.575 92.38 727.685 89.215 729.905 86.995C732.125 84.775 735.185 83.665 739.085 83.665C741.485 83.665 743.6 84.16 745.43 85.15C747.29 86.14 748.745 87.595 749.795 89.515C750.875 91.405 751.415 93.73 751.415 96.49ZM735.305 96.49C735.305 98.62 735.59 100.255 736.16 101.395C736.73 102.505 737.69 103.06 739.04 103.06C740.36 103.06 741.29 102.505 741.83 101.395C742.4 100.255 742.685 98.62 742.685 96.49C742.685 94.36 742.4 92.755 741.83 91.675C741.29 90.595 740.345 90.055 738.995 90.055C737.705 90.055 736.76 90.595 736.16 91.675C735.59 92.755 735.305 94.36 735.305 96.49ZM767.647 109.45C763.867 109.45 760.852 108.43 758.602 106.39C756.352 104.35 755.227 101.11 755.227 96.67C755.227 93.64 755.797 91.18 756.937 89.29C758.077 87.37 759.622 85.96 761.572 85.06C763.552 84.13 765.802 83.665 768.322 83.665C769.852 83.665 771.292 83.83 772.642 84.16C774.022 84.49 775.297 84.955 776.467 85.555L773.947 91.9C772.927 91.45 771.967 91.09 771.067 90.82C770.197 90.55 769.282 90.415 768.322 90.415C767.032 90.415 765.982 90.925 765.172 91.945C764.362 92.965 763.957 94.525 763.957 96.625C763.957 98.785 764.362 100.33 765.172 101.26C766.012 102.16 767.077 102.61 768.367 102.61C769.597 102.61 770.827 102.415 772.057 102.025C773.317 101.635 774.502 101.095 775.612 100.405V107.245C774.592 107.905 773.437 108.445 772.147 108.865C770.857 109.255 769.357 109.45 767.647 109.45Z" fill="white"/>
</svg>
