<svg width="99" height="209" viewBox="0 0 99 209" fill="none" xmlns="http://www.w3.org/2000/svg">
<path d="M38.903 209C60.3885 209 77.806 208.003 77.806 206.773C77.806 205.543 60.3885 204.546 38.903 204.546C17.4175 204.546 0 205.543 0 206.773C0 208.003 17.4175 209 38.903 209Z" fill="#8099CC"/>
<path d="M73.1077 200.556L71.9073 198.201L64.8082 198.458L64.6533 200.556L67.9835 206.323L73.9983 201.702L73.1077 200.556Z" fill="#F6F6F6"/>
<path d="M68.7708 198.445L68.4739 203.903C68.4739 203.903 66.6282 202.86 64.4726 200.929L64.7695 197.84L68.7708 198.445Z" fill="#F6F6F6"/>
<path d="M73.5336 200.466C73.5336 200.466 71.4426 200.427 69.016 202.255C67.5704 203.349 65.389 201.097 64.7178 200.517C64.5759 200.402 64.3952 200.505 64.3693 200.711L63.5304 208.331H84.6727C84.918 208.331 85.1116 208.073 85.1116 207.751V206.142C85.1116 205.898 84.9954 205.679 84.8018 205.589L73.5336 200.466Z" fill="#4640F0"/>
<path d="M74.7211 200.878L71.3136 202.834" stroke="white" stroke-width="0.4846" stroke-miterlimit="10"/>
<path d="M76.2055 201.624L72.7979 203.594" stroke="white" stroke-width="0.4846" stroke-miterlimit="10"/>
<path d="M38.6836 200.556L37.4832 198.2L30.9778 197.235L30.2292 200.556L33.5722 206.323L39.5742 201.702L38.6836 200.556Z" fill="#F6F6F6"/>
<path d="M33.6368 198.291L34.2305 203.439C34.2305 203.439 32.3847 202.397 30.2292 200.466L30.8229 197.827L33.6368 198.291Z" fill="#F6F6F6"/>
<path d="M39.1095 200.466C39.1095 200.466 37.0185 200.427 34.5919 202.255C33.1463 203.349 30.9649 201.097 30.2937 200.517C30.1517 200.402 29.971 200.505 29.9452 200.711L29.1062 208.331H50.2357C50.481 208.331 50.6746 208.073 50.6746 207.751V206.142C50.6746 205.898 50.5584 205.679 50.3648 205.589L39.1095 200.466Z" fill="#4640F0"/>
<path d="M40.7746 201.02L37.3799 202.989" stroke="white" stroke-width="0.4846" stroke-miterlimit="10"/>
<path d="M42.2589 201.779L38.8513 203.748" stroke="white" stroke-width="0.4846" stroke-miterlimit="10"/>
<path d="M64.3694 28.6013C65.8408 26.2715 66.3184 22.7832 63.7498 21.2386C62.4075 20.4276 60.6779 20.6207 59.4775 21.599C58.9225 22.0624 58.5094 22.6287 58.1738 23.2594C57.6575 22.5257 56.8831 22.0237 55.9279 22.0495C55.1148 22.0624 54.1596 22.6931 53.553 23.504C52.7269 23.2466 51.7975 23.2208 51.0876 23.401C49.2677 23.8515 48.945 26.2328 49.9518 27.623C48.661 29.3478 48.2867 31.7677 50.1325 37.7917L50.1583 37.8561L52.6623 39.1948L52.7398 39.0532L52.8172 38.9116L52.6236 38.8086L55.1148 30.7766C55.4374 30.5578 57.5026 29.1934 58.5869 30.03C59.684 30.8796 60.9489 31.7034 61.9299 31.3043C62.3687 31.137 62.7689 30.6994 63.0528 30.3003C63.6724 29.9271 64.0983 29.3092 64.3694 28.6013ZM63.2852 22.0624C64.2403 22.6416 64.6275 23.5684 64.6534 24.5852C64.2274 22.5772 62.33 21.6118 60.4197 22.1267C61.2716 21.599 62.3558 21.5217 63.2852 22.0624ZM50.9844 37.8561C51.2683 37.9462 51.6943 38.1393 52.0815 38.5254L51.5394 38.2294L50.9844 37.8561Z" fill="#020C2D"/>
<path d="M71.7782 108.304C71.7782 108.304 74.5017 140.715 74.747 149.674C75.0051 158.632 73.1981 198.548 73.1981 198.548L61.8912 198.741C61.8912 198.741 53.9918 131.769 43.0205 110.17L71.7782 108.304Z" fill="#CC2F37"/>
<path d="M58.0705 110.016C58.0705 110.016 65.8021 147.46 65.8021 153.214C65.8021 158.967 66.9379 198.471 66.9379 198.471" stroke="white" stroke-width="0.4846" stroke-miterlimit="10"/>
<path d="M61.3232 194.378H73.3013" stroke="white" stroke-width="0.4846" stroke-miterlimit="10"/>
<path d="M71.804 108.304C71.804 108.304 65.5181 135.322 59.1418 154.436C53.9918 169.882 42.5687 199.462 42.5687 199.462L29.8936 199.153L40.9036 154.9C41.4845 152.596 41.8588 150.24 42.0137 147.859C42.5816 138.887 40.7358 120.751 39.9614 109.127L71.804 108.304Z" fill="#FF383C"/>
<path d="M49.7969 108.806C49.7969 108.806 52.7656 143.83 50.0937 149.275C47.4219 154.719 34.4112 199.063 34.4112 199.063" stroke="white" stroke-width="0.4846" stroke-miterlimit="10"/>
<path d="M31.1585 195.137H43.8852" stroke="white" stroke-width="0.4846" stroke-miterlimit="10"/>
<path d="M60.4454 108.497L50.9714 120.879" stroke="white" stroke-width="0.4846" stroke-miterlimit="10"/>
<path d="M56.612 57.3054C56.612 57.3054 56.2506 54.3964 58.9482 53.9716C61.6459 53.5468 68.9128 51.6289 87.3962 57.9232C87.3962 57.9232 90.5972 40.0829 90.6231 38.6412C90.7005 34.8827 91.9009 30.0042 94.818 27.4299C95.0632 27.2239 95.231 36.7491 95.3343 41.8334C95.3343 41.8334 97.7996 67.4227 94.7922 69.997C91.7847 72.5714 53.6304 66.0711 56.612 57.3054Z" fill="#D2A983"/>
<path d="M62.0848 52.8775C62.0848 52.8775 51.6555 51.1527 51.9653 59.2619C52.2751 67.3712 72.5914 72.8803 78.1158 71.5545L76.3991 53.534L62.0848 52.8775Z" fill="#FFC634"/>
<path d="M78.0254 71.2971C76.3991 73.2408 60.5358 69.1604 58.7933 66.5217C58.7933 66.5217 58.5223 57.6658 59.1935 57.4856C66.086 55.6192 78.0254 71.2971 78.0254 71.2971Z" fill="#E5AE35"/>
<path d="M47.2412 51.9636C47.2412 51.9636 33.043 53.4053 32.1524 65.1315C31.2618 76.8577 38.5932 109.308 38.5932 109.308L74.1403 108.175L72.1913 67.8989C72.0493 64.9127 71.1199 62.0165 69.5194 59.5194C68.0351 57.2024 66.2926 54.5895 65.3116 54.4607L49.3967 50.3804L47.2412 51.9636Z" fill="#FFC634"/>
<path d="M44.3112 56.3787C35.6891 52.929 32.6042 59.2748 32.1524 65.1315C31.2618 76.8578 38.5932 109.308 38.5932 109.308L74.1403 108.175" fill="#E5AE35"/>
<path d="M63.1044 92.8059C63.1819 93.4238 63.0915 93.9515 62.885 93.9773C62.6785 94.003 62.4591 93.5267 62.3687 92.9089C62.2913 92.2911 62.3816 91.7633 62.5881 91.7376C62.7947 91.7118 63.027 92.1881 63.1044 92.8059Z" fill="white"/>
<path d="M51.7072 41.37L50.8811 49.3377L59.116 56.1855L60.3293 52.6329L59.6969 46.0425L53.0624 40.0443C53.0624 40.0443 52.0428 40.7651 51.9137 41.0354C51.7717 41.2928 51.7072 41.37 51.7072 41.37Z" fill="#D2A983"/>
<path d="M53.0495 40.0443L59.684 46.0425L60.1486 49.9556C60.1486 49.9556 54.1209 48.2951 53.9143 43.3394" fill="#020C2D"/>
<path d="M60.3423 61.3214C60.4197 61.9392 60.3294 62.467 60.1229 62.4927C59.9163 62.5184 59.6969 62.0422 59.6066 61.4243C59.5291 60.8065 59.6195 60.2788 59.826 60.253C60.0325 60.2273 60.2519 60.7035 60.3423 61.3214Z" fill="white"/>
<path d="M60.8844 67.6157C60.9618 68.2335 60.8715 68.7613 60.665 68.787C60.4584 68.8128 60.239 68.3365 60.1487 67.7187C60.0712 67.1008 60.1616 66.5731 60.3681 66.5473C60.5875 66.5216 60.8069 66.9978 60.8844 67.6157Z" fill="white"/>
<path d="M61.4394 73.9229C61.5168 74.5407 61.4265 75.0685 61.22 75.0942C61.0134 75.1199 60.794 74.6437 60.7037 74.0258C60.6262 73.408 60.7166 72.8802 60.9231 72.8545C61.1296 72.8159 61.3619 73.305 61.4394 73.9229Z" fill="white"/>
<path d="M61.9944 80.2172C62.0718 80.835 61.9815 81.3628 61.775 81.3885C61.5685 81.4143 61.349 80.938 61.2587 80.3202C61.1812 79.7023 61.2716 79.1746 61.4781 79.1488C61.6846 79.1231 61.9169 79.5993 61.9944 80.2172Z" fill="white"/>
<path d="M62.5495 86.5116C62.6269 87.1294 62.5366 87.6572 62.33 87.6829C62.1235 87.7087 61.9041 87.2324 61.8137 86.6145C61.7363 85.9967 61.8267 85.4689 62.0332 85.4432C62.2397 85.4175 62.472 85.8937 62.5495 86.5116Z" fill="white"/>
<path d="M63.6595 99.1131C63.7369 99.7309 63.6466 100.259 63.4401 100.284C63.2335 100.31 63.0141 99.8339 62.9238 99.216C62.8463 98.5982 62.9367 98.0704 63.1432 98.0447C63.3497 98.019 63.5691 98.4952 63.6595 99.1131Z" fill="white"/>
<path d="M64.2016 105.407C64.279 106.025 64.1887 106.553 63.9822 106.579C63.7756 106.604 63.5562 106.128 63.4659 105.51C63.3884 104.893 63.4788 104.365 63.6853 104.339C63.8918 104.313 64.1241 104.79 64.2016 105.407Z" fill="white"/>
<path d="M50.623 48.7327L46.2473 50.7793L57.2058 60.0599L59.1161 56.1726L50.623 48.7327Z" fill="white"/>
<path d="M60.3293 51.7705C60.5229 51.8349 62.2396 53.0191 62.2396 53.0191L62.3042 58.8758L59.116 56.1727L60.3293 51.7705Z" fill="white"/>
<path d="M69.9583 92.4198L77.8706 67.6672C78.3094 66.2899 79.3033 65.183 80.594 64.6295L96.8058 57.6529C97.2833 57.447 97.7738 57.9232 97.606 58.4252L89.6163 82.6758C89.1904 83.9758 88.2481 85.0442 87.0348 85.6106L70.7973 93.1792C70.3068 93.4109 69.8034 92.9346 69.9583 92.4198Z" fill="#4640F0"/>
<path d="M71.3265 93.8743L79.2387 69.1218C79.6776 67.7445 80.6715 66.6375 81.9622 66.084L98.161 59.1075C98.6386 58.9015 99.1291 59.3778 98.9613 59.8798L90.9716 84.1303C90.5457 85.4304 89.6034 86.4987 88.3901 87.0651L72.1526 94.6337C71.6621 94.8526 71.1587 94.3892 71.3265 93.8743Z" fill="white"/>
<path d="M75.3795 75.7508L81.3427 77.5142L73.8047 80.552L75.3795 75.7508Z" fill="#020C2D"/>
<path d="M82.3881 70.4604L96.4056 64.4879" stroke="#1E214D" stroke-width="0.5144" stroke-miterlimit="10"/>
<path d="M82.3881 73.0992L93.9661 68.3237" stroke="#1E214D" stroke-width="0.5144" stroke-miterlimit="10"/>
<path d="M76.1023 87.979L91.1007 81.4272L90.1326 84.555L74.8503 91.39L76.1023 87.979Z" fill="#4640F0"/>
<path d="M81.4072 80.1014C80.5295 80.8866 64.8082 96.9636 57.2703 104.21C55.2438 106.167 51.9783 105.691 50.5584 103.232L37.3154 81.1054L49.8614 71.4001C49.9518 71.5417 56.5088 82.6501 58.0189 88.2236C58.5094 90.0514 59.3742 89.9227 60.8715 89.0088L72.3204 81.9679C72.3204 81.9679 72.3075 79.9727 72.5527 79.2133C73.0303 77.7845 75.3278 75.8537 75.3278 75.8537L74.3339 78.8915C74.1532 79.4064 73.5724 79.7797 74.4888 79.8826L81.7557 74.5151C81.7557 74.5151 82.414 74.4636 81.7944 75.1715C81.162 75.8795 80.4908 76.6261 80.5682 76.6904C80.6586 76.7419 82.6463 75.3517 82.7367 75.8924C82.827 76.4201 81.1103 77.7073 81.1878 77.7588C81.2523 77.8103 83.1239 76.2785 83.2272 76.7805C83.3304 77.2825 81.9235 78.235 81.8461 78.441C81.7815 78.6341 83.382 77.4112 83.4466 77.6815C83.524 77.939 81.9106 79.6638 81.4072 80.1014Z" fill="#D2A983"/>
<path d="M46.5313 61.566C46.5313 61.566 42.9559 51.5517 36.0634 55.7737C29.1708 59.9828 34.2822 80.5262 38.1028 84.7482L52.9205 74.4636L46.5313 61.566Z" fill="#FFC634"/>
<path d="M52.4042 37.8303C52.3267 38.0363 52.0686 38.1006 51.9008 37.9462C51.3587 37.4184 50.2874 36.6976 49.9001 38.7957C49.3709 41.6533 52.3654 41.1641 52.6107 41.5503C53.0883 42.3355 54.6501 44.9613 56.9605 45.9782C58.3674 46.596 60.4584 46.699 61.9944 45.2188C63.5304 43.7385 64.2274 44.7554 63.582 28.9874C63.582 28.9874 62.8721 30.3389 61.8653 30.6993C60.8456 31.0469 59.2193 29.6438 58.0705 29.322C57.1283 29.0646 55.3083 28.3695 54.1983 31.6261C53.6949 33.1321 52.8817 36.5817 52.4042 37.8303Z" fill="#D2A983"/>
<path d="M63.0528 36.8777C63.0528 36.8777 62.7946 35.5519 62.2396 36.9292" stroke="#1E214D" stroke-width="0.328" stroke-miterlimit="10"/>
<path d="M58.5352 36.955L51.3716 37.1481C51.3716 37.1481 49.9905 37.0065 49.6549 38.2165" stroke="#1E214D" stroke-width="0.328" stroke-miterlimit="10"/>
<path d="M64.1241 38.7829C64.7371 38.7829 65.2341 37.6476 65.2341 36.2471C65.2341 34.8467 64.7371 33.7114 64.1241 33.7114C63.511 33.7114 63.014 34.8467 63.014 36.2471C63.014 37.6476 63.511 38.7829 64.1241 38.7829Z" stroke="#1E214D" stroke-width="0.3361" stroke-miterlimit="10"/>
<path d="M60.3551 39.5809C61.3888 39.5809 62.2267 38.2208 62.2267 36.5431C62.2267 34.8654 61.3888 33.5054 60.3551 33.5054C59.3215 33.5054 58.4836 34.8654 58.4836 36.5431C58.4836 38.2208 59.3215 39.5809 60.3551 39.5809Z" stroke="#1E214D" stroke-width="0.328" stroke-miterlimit="10"/>
<path d="M63.5304 40.3275C63.5304 40.3275 62.601 40.7908 60.3293 40.572C60.3293 40.572 61.5555 42.2196 62.4461 41.8978C63.3368 41.5889 63.5304 40.3275 63.5304 40.3275Z" fill="white"/>
<path d="M50.3519 38.5769L51.9266 39.7611C51.9395 39.774 51.3458 36.8907 50.3519 38.5769Z" fill="#BC8F6E"/>
<path d="M61.6717 36.9936C61.6717 37.3412 61.5297 37.6115 61.3619 37.6115C61.1941 37.6115 61.0521 37.3283 61.0521 36.9936C61.0521 36.6461 61.1941 36.3758 61.3619 36.3758C61.5426 36.3629 61.6717 36.6461 61.6717 36.9936Z" fill="#020C2D"/>
<path d="M63.6595 36.6847C63.6595 37.0323 63.5175 37.3026 63.3497 37.3026C63.1819 37.3026 63.0399 37.0194 63.0399 36.6847C63.0399 36.3501 63.1819 36.0669 63.3497 36.0669C63.5304 36.0669 63.6595 36.3372 63.6595 36.6847Z" fill="#020C2D"/>
<path d="M59.1031 34.3034C58.6514 34.6124 59.3613 33.1965 59.9679 33.0291C60.5746 32.8618 61.1941 33.1836 61.3232 33.7242C61.3361 33.7242 60.2003 33.544 59.1031 34.3034Z" fill="#020C2D"/>
<path d="M63.7627 34.149C63.1173 34.0589 62.6527 34.1747 62.6527 34.1747C62.743 33.6598 63.2206 33.2994 63.7756 33.2866" fill="#020C2D"/>
<path d="M62.7301 36.6719L63.6595 39.3106C63.6724 39.3492 63.6465 39.4007 63.6078 39.4007L62.5107 39.4779C62.472 39.4779 62.4462 39.4522 62.4462 39.4007L62.614 36.6719C62.614 36.6204 62.7043 36.5946 62.7301 36.6719Z" fill="#BC8F6E"/>
<path d="M43.6659 19.6682L38.8256 14.8412H13.8884V0H43.6659V19.6682Z" fill="#4640F0"/>
<path d="M21.891 8.90728C22.8177 8.90728 23.569 8.15811 23.569 7.23395C23.569 6.30979 22.8177 5.56061 21.891 5.56061C20.9643 5.56061 20.2131 6.30979 20.2131 7.23395C20.2131 8.15811 20.9643 8.90728 21.891 8.90728Z" fill="#F9F9F9"/>
<path d="M29.7129 7.23395C29.7129 8.16072 28.9643 8.90728 28.035 8.90728C27.1056 8.90728 26.357 8.16072 26.357 7.23395C26.357 6.30717 27.1056 5.56061 28.035 5.56061C28.9514 5.56061 29.7129 6.30717 29.7129 7.23395Z" fill="#F9F9F9"/>
<path d="M34.166 8.90728C35.0927 8.90728 35.844 8.15811 35.844 7.23395C35.844 6.30979 35.0927 5.56061 34.166 5.56061C33.2393 5.56061 32.488 6.30979 32.488 7.23395C32.488 8.15811 33.2393 8.90728 34.166 8.90728Z" fill="#F9F9F9"/>
</svg>
