<svg width="194" height="491" viewBox="0 0 194 491" fill="none" xmlns="http://www.w3.org/2000/svg">
<g clip-path="url(#clip0)">
<path d="M101.434 191.737L74.2085 74.4656C73.8351 71.4148 79.3736 64.0678 82.0494 62.5424C89.3925 58.3397 98.478 57.7171 106.754 59.4604C133.793 65.0952 156.756 173.214 152.244 170.599C152.244 170.599 111.671 191.799 98.5402 183.175" fill="#020C2D"/>
<path d="M103.612 84.6455C103.612 85.0502 103.923 85.3926 104.327 85.3926C106.039 85.3926 109.959 85.0191 110.519 89.4708C111.079 93.9848 106.786 96.5064 104.203 96.6621C103.456 96.6932 101.745 96.8489 101.216 97.4093C99.6603 99.0903 98.9447 102.795 97.7312 107.402C95.0864 117.582 103.083 122.221 103.083 122.221C103.083 122.221 76.4176 135.327 76.6666 122.19C76.6666 122.19 78.7824 98.0007 78.6579 97.8762C76.5732 95.7904 68.4834 94.8876 73.5862 77.6721C78.2845 61.7019 89.9836 62.8537 92.9706 63.3829C95.4909 63.8499 104.203 64.3791 103.612 84.6455Z" fill="#FAA6A0"/>
<path d="M84.7252 61.8264C84.7252 61.8264 101.092 83.4625 103.923 85.2681C103.954 85.2681 115.093 58.8378 84.7252 61.8264Z" fill="#020C2D"/>
<path d="M108.59 90.7784C108.59 90.7784 105.914 85.1125 102.523 92.7085L108.59 90.7784Z" fill="#FA6759"/>
<path d="M88.7703 84.6455C86.5611 84.5832 84.7253 86.3577 84.6631 88.568C84.6009 90.7783 86.3744 92.6151 88.5836 92.6773C90.7927 92.7396 92.6285 90.9651 92.6907 88.7548C92.7529 86.5445 90.9794 84.7078 88.7703 84.6455Z" fill="#FF8A80"/>
<path d="M72.0927 86.1398C73.9285 85.7974 75.3287 84.2097 75.3909 82.2796C75.422 80.7853 74.6441 79.4778 73.4307 78.7617C73.4307 78.7617 71.7194 83.2135 72.0927 86.1398Z" fill="#FF8A80"/>
<path d="M75.4842 84.0852L81.5826 87.136C81.5826 87.136 78.5956 89.3152 76.9777 88.1322C75.3597 86.9181 75.4842 84.0852 75.4842 84.0852Z" fill="white"/>
<path d="M80.1515 79.6645L79.1869 84.0229L77.0711 83.0889C76.6666 82.9022 76.6044 82.3729 76.9467 82.1239L80.1515 79.6645Z" fill="#FA6759"/>
<path d="M87.9612 78.0146C88.4902 78.7617 88.179 76.1779 87.3078 75.5864C86.4366 74.9949 85.3165 75.1194 84.8186 75.8665C84.8186 75.8665 86.7166 76.2401 87.9612 78.0146Z" fill="black"/>
<path d="M76.4488 73.6562C75.5776 73.9053 77.4133 72.0685 78.4712 72.1619C79.5291 72.2553 80.307 73.0336 80.2448 73.9676C80.2759 73.9676 78.5646 73.0647 76.4488 73.6562Z" fill="black"/>
<path d="M84.4453 81.2211C84.1653 81.9371 83.6363 82.4352 83.2629 82.2795C82.9207 82.1239 82.8584 81.439 83.1696 80.6918C83.4496 79.9758 83.9786 79.4777 84.3519 79.6334C84.6942 79.789 84.7564 80.5051 84.4453 81.2211Z" fill="black"/>
<path d="M78.8135 78.5438C78.5335 79.2287 78.0356 79.6957 77.6934 79.5711C77.3511 79.4466 77.32 78.7617 77.6 78.0768C77.8801 77.392 78.3779 76.925 78.7202 77.0495C79.0313 77.1429 79.0935 77.8278 78.8135 78.5438Z" fill="black"/>
<path d="M78.6579 97.9074C78.6579 97.9074 86.281 99.3705 90.1081 99.1215C93.9663 98.8724 74.7375 120.944 78.6579 97.9074Z" fill="black"/>
<path d="M112.915 488.136C156.786 488.136 192.351 486.087 192.351 483.56C192.351 481.032 156.786 478.983 112.915 478.983C69.044 478.983 33.4794 481.032 33.4794 483.56C33.4794 486.087 69.044 488.136 112.915 488.136Z" fill="#8099CC"/>
<path d="M82.8274 449.72L80.0581 469.395C80.0581 469.395 75.6087 482.439 71.5016 477.396C67.3945 472.352 63.2873 469.675 63.2873 469.675L61.9494 449.222L82.8274 449.72Z" fill="#FBA4A0"/>
<path d="M72.0616 450.467L71.3459 477.209C71.3459 477.209 84.383 479.17 79.5291 470.422L82.3917 451.868L72.0616 450.467Z" fill="#FF8A80"/>
<path d="M148.541 448.226L154.671 467.838C154.671 467.838 159.338 471.917 161.018 471.823C164.068 471.636 165.686 466.344 165.686 466.344L166.183 448.226H148.541Z" fill="#FBA4A0"/>
<path d="M157.347 442.965L161.61 475.403C161.61 475.403 170.384 477.707 165.53 468.99L166.588 444.023L157.347 442.965Z" fill="#FF8A80"/>
<path d="M61.9493 469.582L45.4897 482.937C44.6496 483.56 45.2408 484.618 46.4542 484.618L70.7548 484.805C71.346 484.805 71.8749 484.556 72.0616 484.151L73.8974 480.384C74.4263 479.295 75.4842 479.201 75.3909 480.353L76.2932 483.995C76.231 484.556 82.0494 484.4 82.1117 483.902C82.4228 480.664 81.7694 470.111 81.1782 467.185C81.0849 466.749 80.6493 466.437 80.0892 466.344C79.5603 466.282 79.0313 466.406 78.7202 466.718C77.0711 468.305 71.8438 473.068 69.0435 472.103C67.1766 471.45 64.7497 470.298 64.0029 469.613C63.474 469.177 62.5094 469.146 61.9493 469.582Z" fill="#00F1C0"/>
<path d="M165.872 465.659L175.207 481.318C176.202 482.844 175.642 484.649 173.838 485.739C170.913 487.482 168.517 490.938 166.681 491C163.352 491.093 158.187 487.607 155.169 486.268C153.146 485.396 151.56 484.089 151.809 482.408L154.142 466.687C154.173 466.5 154.516 466.406 154.671 466.562L158.249 469.8C159.432 470.858 162.605 470.734 163.383 469.457C163.943 468.554 165.281 465.628 165.281 465.628C165.437 465.504 165.748 465.504 165.872 465.659Z" fill="#00F1C0"/>
<path d="M116.307 189.838C123.868 203.193 127.85 212.968 132.175 229.934C137.216 249.609 191.635 416.067 194 451.868C187.808 453.362 146.643 453.145 142.723 452.927C130.277 417.188 98.7269 301.162 93.4062 278.655C92.5973 275.199 87.2455 275.946 87.65 279.495C90.6682 305.209 107.034 413.452 115.155 452.989C111.919 454.639 64.7185 454.265 60.9536 453.798C56.8776 409.717 35.1907 242.823 67.9233 188.748C82.8584 186.693 101.123 189.371 116.307 189.838Z" fill="#4640F0"/>
<path d="M69.8524 194.601C69.8524 194.601 56.5353 227.6 56.5353 274.141C56.5353 320.713 71.7815 438.669 71.7815 438.669" stroke="white" stroke-width="0.3961" stroke-miterlimit="10"/>
<path d="M162.139 438.669L108.901 193.075" stroke="white" stroke-width="0.3961" stroke-miterlimit="10"/>
<path d="M99.5981 194.383C99.5981 194.383 100.065 237.032 119.169 233.67" stroke="white" stroke-width="0.3961" stroke-miterlimit="10"/>
<path opacity="0.21" d="M68.1412 195.472L129.717 241.858C129.717 241.858 132.3 216.828 121.347 196.282L68.1412 195.472Z" fill="black"/>
<path d="M59.8958 235.631C79.0313 238.994 75.9509 196.562 75.9509 196.562" stroke="white" stroke-width="0.3961" stroke-miterlimit="10"/>
<path d="M96.7667 117.022C96.7667 117.022 100.656 115.901 100.034 116.711C99.3803 117.551 98.0112 118.454 96.6111 119.388L96.7667 117.022Z" fill="#D10022"/>
<path d="M112.293 438.918H59.1179" stroke="white" stroke-width="0.3961" stroke-miterlimit="10"/>
<path d="M192.258 438.451L137.34 438.918" stroke="white" stroke-width="0.3961" stroke-miterlimit="10"/>
<path d="M134.602 269.845C134.602 269.533 134.913 266.047 134.913 266.047L133.326 271.059L134.602 269.845Z" fill="#DF473A"/>
<path d="M124.739 274.794L123.65 275.666C123.65 275.666 124.801 277.752 125.268 277.596C125.268 277.565 124.459 276.569 124.739 274.794Z" fill="#DF473A"/>
<path d="M8.86774 152.978C8.86774 152.978 49.1301 208.828 58.5579 202.165C58.5579 202.165 69.3858 194.507 63.9407 163.314C63.9407 160.294 63.9096 158.177 64.0341 157.71C64.0341 157.71 66.3677 126.89 71.4393 120.509C71.9994 119.824 73.6796 118.516 73.4618 118.454C57.9978 114.594 52.086 153.476 47.8233 171.47C47.6366 172.217 18.1399 143.452 18.1399 143.452C18.1399 143.452 2.67592 122.999 1.61802 124.182C0.0622839 125.863 6.0363 134.985 6.0363 134.985C6.0363 134.985 5.63181 136.012 4.48057 136.541C3.29821 137.07 2.6448 137.849 2.27143 139.405C1.86694 140.962 0.311201 141.896 0.062284 142.798C-0.248863 143.732 5.56958 150.581 8.86774 152.978Z" fill="#FAA6A0"/>
<path d="M17.5799 143.328C17.5799 143.328 14.4684 134.455 13.1616 134.735C11.8548 134.985 6.12968 137.475 6.25413 139.685C6.37859 141.896 11.3258 140.09 11.3258 140.09C11.3258 140.09 10.4235 145.04 12.8816 145.694C15.3707 146.347 17.5799 143.328 17.5799 143.328Z" fill="#FAA6A0"/>
<path d="M9.89449 139.685C9.89449 139.685 10.0189 141.896 8.21429 142.3C8.21429 142.3 7.8098 144.635 5.4762 144.137C5.4762 144.137 6.12961 145.164 4.69833 145.445C4.69833 145.413 10.8279 152.075 9.89449 139.685Z" fill="#FF8A80"/>
<path d="M11.108 135.451C10.1434 136.448 9.0855 137.195 7.99648 137.942C7.52976 138.347 6.78301 138.627 6.50298 138.938C6.34741 139.063 6.28518 139.249 6.31629 139.187C6.37852 139.125 6.28518 138.938 6.34741 139C6.78301 139.499 8.05871 139.748 9.24107 139.872C9.5211 139.997 9.86337 139.748 10.6723 140.339C11.0768 140.744 10.9835 141.304 10.9213 141.46L10.7657 141.927C10.4857 142.549 10.2367 143.172 9.89448 143.764L9.77002 143.732L10.1123 141.802C10.1434 141.491 10.3301 141.117 10.1434 140.931C9.92559 140.775 9.58333 140.837 9.24107 140.837C7.96537 140.837 6.5341 140.775 5.44508 139.872C5.19616 139.623 5.04059 139.218 5.16505 138.876C5.25839 138.533 5.53843 138.253 5.78734 138.066C6.34741 137.662 6.93859 137.444 7.52977 137.133L11.0146 135.389L11.108 135.451Z" fill="#FA6759"/>
<path d="M5.91175 134.704C6.40959 134.58 6.72073 134.611 7.00077 134.673C7.2808 134.735 7.46749 134.891 7.68529 135.016C7.77863 135.234 7.96532 135.389 7.99643 135.701C8.02755 135.981 8.05866 136.292 7.90309 136.759L7.80975 136.852C7.09411 136.23 6.40959 135.545 5.78729 134.829L5.91175 134.704Z" fill="#FA6759"/>
<path d="M3.26708 138.004C4.04495 138.222 4.63613 138.565 5.22731 138.907C5.81848 139.249 6.2852 139.654 6.87638 139.997C7.31199 140.464 7.90317 140.837 8.30766 141.273C8.49435 141.491 8.68103 141.647 8.86772 141.74C9.05441 141.896 9.33444 141.958 9.70782 141.864L9.80116 141.927C9.33444 142.549 8.401 142.456 7.84094 142.082C7.21864 141.74 6.6897 141.335 6.12963 140.931C5.04062 140.09 4.04495 139.125 3.17374 138.066L3.26708 138.004Z" fill="#FA6759"/>
<path d="M8.36984 142.3C8.61876 143.11 8.77433 144.168 7.68532 145.102C7.18748 145.569 6.3785 145.569 5.84955 145.445C5.28949 145.32 4.82277 145.071 4.41828 144.822C3.70264 144.168 3.26703 143.546 2.80031 142.83C2.36471 142.114 1.96022 141.366 1.77353 140.526L1.86687 140.464L3.48484 142.176C4.0449 142.705 4.51162 143.39 5.13391 143.826C5.72509 144.262 6.53408 144.635 7.2186 144.262C7.87201 143.888 8.08981 143.047 8.24538 142.3H8.36984Z" fill="#FA6759"/>
<path d="M5.66287 143.732C5.97402 144.262 6.06736 144.853 5.9429 145.445C5.88068 145.725 5.84956 146.067 5.53841 146.441C5.41396 146.628 4.91612 146.877 4.82278 146.908C4.63609 146.97 4.4494 147.032 4.29383 147.063C3.57819 147.281 2.86255 146.814 2.52029 146.69L1.80465 146.098C1.55574 145.787 1.46239 145.476 1.49351 145.133L1.58685 145.04C1.898 145.413 2.30249 145.569 2.80032 145.694C3.26704 145.849 3.70265 145.943 4.16937 145.912C4.6672 145.943 4.94724 145.6 5.13392 145.133C5.32061 144.697 5.47618 144.23 5.47618 143.763L5.66287 143.732Z" fill="#FA6759"/>
<path d="M73.4306 118.485C73.4306 118.485 63.4117 117.084 59.429 125.24C55.4463 133.397 46.5786 169.883 46.5786 169.883L21.9358 146.254L12.3836 163.625C12.3836 163.625 47.4499 207.925 57.531 204.78C67.5811 201.667 73.524 129.599 73.4306 118.485Z" fill="#00F1C0"/>
<path d="M71.8127 120.197C72.2483 121.256 59.3979 151.889 59.9268 162.224C60.4558 172.653 67.5811 190.242 67.021 191.799C67.021 191.799 75.1108 198.181 119.791 191.145C133.513 179.128 121.472 138.284 116.836 125.334C116.836 125.334 108.061 120.944 104.265 120.664C104.265 120.695 89.4236 125.427 71.8127 120.197Z" fill="#00F1C0"/>
<path d="M104.359 120.633L98.0424 112.352C98.0424 112.352 90.5126 117.707 79.1869 121.66L79.3735 124.618C79.7469 130.439 86.1565 133.864 91.1971 130.906C96.4555 127.824 102.087 123.995 104.359 120.633Z" fill="#00F1C0"/>
<path d="M77.6622 111.916C77.6622 111.916 75.7642 119.077 79.3424 121.816L78.3156 124.307C77.1333 127.731 72.0927 127.139 71.7815 123.528C71.6571 122.127 71.6571 120.82 71.8749 119.793L77.6622 111.916Z" fill="#00F1C0"/>
<path d="M109.493 284.601L167.21 247.617L143.252 210.228L102.15 236.565C92.9707 242.449 90.2949 254.653 96.1755 263.805L109.493 284.601Z" fill="#FF383C"/>
<path opacity="0.6" d="M129.966 217.575C129.966 217.575 139.269 221.903 132.082 248.271C131.708 249.672 131.366 251.259 131.646 252.691L133.264 264.023C133.513 265.237 133.669 266.856 132.642 267.541C131.366 268.413 124.023 275.137 123.121 275.448C121.316 276.04 123.276 267.074 122.996 262.373C122.934 261.533 122.747 265.362 122.623 267.043L122.405 270.716C120.196 269.72 120.258 265.486 119.916 264.054C119.449 262.155 119.823 260.91 120.04 260.443C121.036 258.357 122.965 254.186 123.245 250.481C123.432 248.271 121.876 240.145 120.601 224.953L129.966 217.575Z" fill="#00F1C0"/>
<path d="M131.148 153.352C148.386 249.734 137.185 268.039 136.064 268.786C134.664 269.72 126.606 277.129 125.61 277.441C123.619 278.094 125.797 268.288 125.454 263.089C125.392 262.155 125.174 266.358 125.05 268.195L124.801 272.242C122.405 271.152 122.436 266.513 122.063 264.926C121.565 262.84 121.97 261.501 122.218 260.972C123.307 258.668 125.423 254.123 125.734 250.045C125.921 247.648 109.586 169.353 106.723 157.866C102.803 142.238 107.719 124.275 113.226 123.684C120.072 122.968 129.717 145.382 131.148 153.352Z" fill="#FF8A80"/>
<path d="M143.252 244.566C142.567 241.609 146.27 185.386 133.731 148.62C128.13 132.183 120.072 122.999 113.226 123.777C107.719 124.4 102.803 142.331 106.723 157.959C109.586 169.447 115.653 220.782 120.663 247.025L143.252 244.566Z" fill="#00F1C0"/>
<path d="M120.476 46.8523L131.957 35.3649H175.207C184.012 35.3649 191.137 28.2359 191.137 19.4258V15.9391C191.137 7.12903 184.012 0 175.207 0H136.407C127.601 0 120.476 7.12903 120.476 15.9391V46.8523Z" fill="#FFC634"/>
<path d="M168.175 17.2466C168.175 19.4569 169.948 21.2314 172.157 21.2314C174.367 21.2314 176.14 19.4569 176.14 17.2466C176.14 15.0363 174.367 13.2618 172.157 13.2618C169.948 13.2618 168.175 15.0363 168.175 17.2466Z" fill="#F9F9F9"/>
<path d="M153.613 17.2466C153.613 19.4569 155.387 21.2314 157.596 21.2314C159.805 21.2314 161.578 19.4569 161.578 17.2466C161.578 15.0363 159.805 13.2618 157.596 13.2618C155.387 13.2618 153.613 15.0363 153.613 17.2466Z" fill="#F9F9F9"/>
<path d="M139.02 17.2466C139.02 19.4569 140.794 21.2314 143.003 21.2314C145.212 21.2314 146.986 19.4569 146.986 17.2466C146.986 15.0363 145.212 13.2618 143.003 13.2618C140.794 13.2618 139.02 15.0363 139.02 17.2466Z" fill="#F9F9F9"/>
</g>
<defs>
<clipPath id="clip0">
<rect width="194" height="491" fill="white"/>
</clipPath>
</defs>
</svg>
