<svg width="85" height="216" viewBox="0 0 85 216" fill="none" xmlns="http://www.w3.org/2000/svg">
<g clip-path="url(#clip0)">
<path d="M44.4427 84.3485L32.514 32.7588C32.3504 31.4167 34.7771 28.1846 35.9495 27.5136C39.1668 25.6647 43.1476 25.3908 46.7739 26.1578C58.6207 28.6366 68.6816 76.1999 66.7049 75.0495C66.7049 75.0495 48.9278 84.3759 43.1748 80.5823" fill="#020C2D"/>
<path d="M45.397 37.2371C45.397 37.4152 45.5333 37.5658 45.7105 37.5658C46.4603 37.5658 48.178 37.4015 48.4234 39.3599C48.6688 41.3457 46.7875 42.455 45.656 42.5234C45.3288 42.5371 44.579 42.6056 44.3472 42.8521C43.6656 43.5917 43.352 45.2214 42.8204 47.2483C41.6616 51.7266 45.1652 53.7672 45.1652 53.7672C45.1652 53.7672 33.482 59.5328 33.591 53.7535C33.591 53.7535 34.518 43.1123 34.4635 43.0576C33.5501 42.14 30.0056 41.7428 32.2414 34.1694C34.2999 27.1438 39.4258 27.6505 40.7346 27.8833C41.8388 28.0888 45.656 28.3216 45.397 37.2371Z" fill="#FAA6A0"/>
<path d="M37.1219 27.1986C37.1219 27.1986 44.2927 36.7167 45.5333 37.5111C45.5469 37.5111 50.4274 25.8839 37.1219 27.1986Z" fill="#020C2D"/>
<path d="M47.5782 39.9351C47.5782 39.9351 46.4058 37.4426 44.9198 40.7842L47.5782 39.9351Z" fill="#FA6759"/>
<path d="M38.8942 37.2371C37.9263 37.2098 37.1219 37.9904 37.0947 38.9627C37.0674 39.9351 37.8445 40.7431 38.8124 40.7705C39.7803 40.7979 40.5846 40.0173 40.6119 39.0449C40.6392 38.0726 39.8621 37.2645 38.8942 37.2371Z" fill="#FF8A80"/>
<path d="M31.587 37.8946C32.3913 37.7439 33.0048 37.0455 33.0321 36.1964C33.0457 35.539 32.7049 34.9638 32.1732 34.6488C32.1732 34.6488 31.4234 36.6072 31.587 37.8946Z" fill="#FF8A80"/>
<path d="M33.073 36.9907L35.745 38.3328C35.745 38.3328 34.4362 39.2914 33.7273 38.771C33.0184 38.2369 33.073 36.9907 33.073 36.9907Z" fill="white"/>
<path d="M35.1179 35.046L34.6953 36.9633L33.7683 36.5524C33.591 36.4703 33.5638 36.2374 33.7137 36.1279L35.1179 35.046Z" fill="#FA6759"/>
<path d="M38.5397 34.3201C38.7715 34.6488 38.6351 33.5121 38.2534 33.2519C37.8717 32.9917 37.3809 33.0465 37.1628 33.3751C37.1628 33.3751 37.9944 33.5395 38.5397 34.3201Z" fill="black"/>
<path d="M33.4956 32.4028C33.1139 32.5123 33.9182 31.7043 34.3817 31.7454C34.8452 31.7865 35.186 32.1289 35.1588 32.5397C35.1724 32.5397 34.4226 32.1426 33.4956 32.4028Z" fill="black"/>
<path d="M36.9992 35.7307C36.8765 36.0457 36.6448 36.2648 36.4812 36.1963C36.3312 36.1278 36.3039 35.8265 36.4403 35.4979C36.563 35.1829 36.7947 34.9637 36.9583 35.0322C37.1083 35.1007 37.1355 35.4157 36.9992 35.7307Z" fill="black"/>
<path d="M34.5317 34.5529C34.409 34.8542 34.1909 35.0597 34.0409 35.0049C33.8909 34.9501 33.8773 34.6488 34 34.3475C34.1227 34.0462 34.3408 33.8408 34.4908 33.8956C34.6271 33.9367 34.6544 34.2379 34.5317 34.5529Z" fill="black"/>
<path d="M34.4635 43.0713C34.4635 43.0713 37.8035 43.715 39.4803 43.6054C41.1708 43.4958 32.7458 53.2057 34.4635 43.0713Z" fill="black"/>
<path d="M49.4731 214.74C68.695 214.74 84.2775 213.839 84.2775 212.727C84.2775 211.615 68.695 210.714 49.4731 210.714C30.2512 210.714 14.6688 211.615 14.6688 212.727C14.6688 213.839 30.2512 214.74 49.4731 214.74Z" fill="#8099CC"/>
<path d="M36.2903 197.84L35.077 206.496C35.077 206.496 33.1275 212.234 31.328 210.015C29.5285 207.797 27.729 206.619 27.729 206.619L27.1428 197.621L36.2903 197.84Z" fill="#FBA4A0"/>
<path d="M31.5734 198.169L31.2598 209.933C31.2598 209.933 36.9719 210.796 34.8452 206.948L36.0994 198.785L31.5734 198.169Z" fill="#FF8A80"/>
<path d="M65.0826 197.183L67.7682 205.811C67.7682 205.811 69.8131 207.605 70.5493 207.564C71.8853 207.482 72.5942 205.153 72.5942 205.153L72.8123 197.183H65.0826Z" fill="#FBA4A0"/>
<path d="M68.9407 194.868L70.8084 209.139C70.8084 209.139 74.6528 210.152 72.5261 206.318L72.9896 195.334L68.9407 194.868Z" fill="#FF8A80"/>
<path d="M27.1428 206.578L19.931 212.453C19.563 212.727 19.822 213.193 20.3537 213.193L31.0008 213.275C31.2598 213.275 31.4916 213.165 31.5734 212.987L32.3777 211.33C32.6095 210.851 33.073 210.81 33.0321 211.316L33.4274 212.919C33.4002 213.165 35.9495 213.097 35.9768 212.878C36.1131 211.453 35.8268 206.811 35.5678 205.523C35.5269 205.331 35.336 205.195 35.0906 205.153C34.8589 205.126 34.6271 205.181 34.4908 205.318C33.7683 206.016 31.478 208.112 30.251 207.687C29.4331 207.399 28.3697 206.893 28.0425 206.591C27.8108 206.4 27.3881 206.386 27.1428 206.578Z" fill="#00F1C0"/>
<path d="M72.676 204.852L76.7658 211.741C77.2021 212.412 76.9567 213.206 76.166 213.686C74.8845 214.452 73.8348 215.973 73.0305 216C71.5718 216.041 69.3087 214.507 67.9864 213.918C67.1002 213.535 66.405 212.96 66.514 212.22L67.5365 205.304C67.5501 205.222 67.7001 205.181 67.7682 205.249L69.336 206.674C69.8541 207.139 71.2446 207.084 71.5854 206.523C71.8308 206.126 72.417 204.838 72.417 204.838C72.4852 204.784 72.6215 204.784 72.676 204.852Z" fill="#00F1C0"/>
<path d="M50.9591 83.513C54.2718 89.3883 56.0168 93.6885 57.9118 101.152C60.1203 109.808 83.9639 183.036 85 198.785C82.2871 199.443 64.251 199.347 62.5333 199.251C57.0802 183.529 43.2566 132.487 40.9254 122.585C40.571 121.065 38.2261 121.394 38.4034 122.955C39.7257 134.267 46.8965 181.885 50.4547 199.278C49.0369 200.004 28.356 199.84 26.7065 199.634C24.9206 180.242 15.4186 106.822 29.7602 83.0337C36.3039 82.1298 44.3063 83.3076 50.9591 83.513Z" fill="#4640F0"/>
<path d="M30.6054 85.6084C30.6054 85.6084 24.7706 100.125 24.7706 120.6C24.7706 141.087 31.4507 192.978 31.4507 192.978" stroke="white" stroke-width="0.3961" stroke-miterlimit="10"/>
<path d="M71.0401 192.978L47.7145 84.9373" stroke="white" stroke-width="0.3961" stroke-miterlimit="10"/>
<path d="M43.6383 85.5126C43.6383 85.5126 43.8428 104.275 52.2133 102.796" stroke="white" stroke-width="0.3961" stroke-miterlimit="10"/>
<path opacity="0.21" d="M29.8557 85.9919L56.8348 106.398C56.8348 106.398 57.9663 95.3868 53.1676 86.348L29.8557 85.9919Z" fill="black"/>
<path d="M26.243 103.659C34.6271 105.138 33.2775 86.4712 33.2775 86.4712" stroke="white" stroke-width="0.3961" stroke-miterlimit="10"/>
<path d="M42.3977 51.4801C42.3977 51.4801 44.1018 50.9871 43.8292 51.3432C43.5429 51.7129 42.9431 52.1101 42.3296 52.5209L42.3977 51.4801Z" fill="#D10022"/>
<path d="M49.2005 193.088H25.9022" stroke="white" stroke-width="0.3961" stroke-miterlimit="10"/>
<path d="M84.2366 192.883L60.1748 193.088" stroke="white" stroke-width="0.3961" stroke-miterlimit="10"/>
<path d="M58.9751 118.71C58.9751 118.573 59.1114 117.039 59.1114 117.039L58.4162 119.244L58.9751 118.71Z" fill="#DF473A"/>
<path d="M54.6536 120.887L54.1764 121.271C54.1764 121.271 54.6808 122.188 54.8853 122.12C54.8853 122.106 54.5309 121.668 54.6536 120.887Z" fill="#DF473A"/>
<path d="M3.88535 67.298C3.88535 67.298 21.5261 91.8671 25.6568 88.9363C25.6568 88.9363 30.401 85.5673 28.0153 71.8448C28.0153 70.5163 28.0016 69.5851 28.0562 69.3796C28.0562 69.3796 29.0786 55.8214 31.3007 53.0139C31.5461 52.7126 32.2823 52.1374 32.1869 52.1101C25.4114 50.4119 22.8212 67.5171 20.9535 75.4329C20.8717 75.7616 7.9479 63.1073 7.9479 63.1073C7.9479 63.1073 1.17244 54.1095 0.708923 54.63C0.0272875 55.3695 2.64477 59.3822 2.64477 59.3822C2.64477 59.3822 2.46754 59.8341 1.96313 60.0669C1.44509 60.2998 1.1588 60.6421 0.99521 61.3269C0.817985 62.0117 0.136349 62.4225 0.0272875 62.8197C-0.10904 63.2305 2.44028 66.2435 3.88535 67.298Z" fill="#FAA6A0"/>
<path d="M7.70252 63.0525C7.70252 63.0525 6.33925 59.1494 5.76667 59.2726C5.1941 59.3822 2.68568 60.4778 2.74021 61.4502C2.79474 62.4225 4.96234 61.6282 4.96234 61.6282C4.96234 61.6282 4.56699 63.8057 5.64398 64.0933C6.7346 64.3809 7.70252 63.0525 7.70252 63.0525Z" fill="#FAA6A0"/>
<path d="M4.33521 61.4501C4.33521 61.4501 4.38974 62.4225 3.59904 62.6005C3.59904 62.6005 3.42181 63.6277 2.39936 63.4085C2.39936 63.4085 2.68565 63.8605 2.05854 63.9837C2.05854 63.97 4.74419 66.9008 4.33521 61.4501Z" fill="#FF8A80"/>
<path d="M4.86689 59.5876C4.44428 60.0258 3.98077 60.3545 3.50362 60.6832C3.29913 60.8612 2.97194 60.9845 2.84925 61.1214C2.78109 61.1762 2.75382 61.2584 2.76745 61.231C2.79472 61.2036 2.75382 61.1214 2.78109 61.1488C2.97194 61.3679 3.53089 61.4775 4.04893 61.5323C4.17162 61.5871 4.32158 61.4775 4.67603 61.7377C4.85326 61.9158 4.81236 62.1623 4.7851 62.2307L4.71693 62.4362C4.59424 62.7101 4.48518 62.984 4.33522 63.2442L4.28069 63.2305L4.43064 62.3814C4.44428 62.2444 4.52607 62.0801 4.44428 61.9979C4.34885 61.9294 4.19889 61.9568 4.04893 61.9568C3.48999 61.9568 2.86288 61.9294 2.38574 61.5323C2.27668 61.4227 2.20851 61.2447 2.26304 61.094C2.30394 60.9434 2.42664 60.8201 2.5357 60.738C2.78109 60.5599 3.04011 60.4641 3.29913 60.3271L4.82599 59.5602L4.86689 59.5876Z" fill="#FA6759"/>
<path d="M2.5902 59.2589C2.80832 59.2041 2.94465 59.2178 3.06734 59.2452C3.19004 59.2726 3.27183 59.3411 3.36726 59.3959C3.40816 59.4917 3.48996 59.5602 3.50359 59.6972C3.51722 59.8204 3.53086 59.9574 3.46269 60.1628L3.42179 60.2039C3.10824 59.93 2.80832 59.6287 2.53567 59.3137L2.5902 59.2589Z" fill="#FA6759"/>
<path d="M1.43145 60.7106C1.77226 60.8064 2.03129 60.9571 2.29031 61.1077C2.54933 61.2584 2.75382 61.4364 3.01284 61.5871C3.2037 61.7925 3.46272 61.9568 3.63995 62.1486C3.72174 62.2444 3.80354 62.3129 3.88534 62.354C3.96713 62.4225 4.08983 62.4499 4.25342 62.4088L4.29432 62.4362C4.08983 62.7101 3.68085 62.669 3.43546 62.5046C3.1628 62.354 2.93105 62.176 2.68566 61.9979C2.20851 61.6281 1.77226 61.2036 1.39055 60.738L1.43145 60.7106Z" fill="#FA6759"/>
<path d="M3.66721 62.6005C3.77627 62.9566 3.84443 63.4222 3.36729 63.8331C3.14916 64.0385 2.79471 64.0385 2.56296 63.9837C2.31757 63.9289 2.11308 63.8194 1.93585 63.7098C1.6223 63.4222 1.43144 63.1483 1.22695 62.8333C1.03609 62.5183 0.858865 62.1896 0.777069 61.8199L0.817967 61.7925L1.52687 62.5457C1.77226 62.7785 1.97675 63.0798 2.2494 63.2716C2.50842 63.4633 2.86288 63.6276 3.1628 63.4633C3.44908 63.2989 3.54451 62.9292 3.61268 62.6005H3.66721Z" fill="#FA6759"/>
<path d="M2.48115 63.2305C2.61748 63.4633 2.65838 63.7236 2.60385 63.9838C2.57658 64.107 2.56295 64.2577 2.42662 64.422C2.37209 64.5042 2.15397 64.6137 2.11307 64.6274C2.03127 64.6548 1.94948 64.6822 1.88131 64.6959C1.56776 64.7918 1.25421 64.5863 1.10425 64.5316L0.790697 64.2714C0.681636 64.1344 0.640738 63.9975 0.65437 63.8468L0.695268 63.8057C0.831596 63.9701 1.00882 64.0385 1.22694 64.0933C1.43144 64.1618 1.62229 64.2029 1.82678 64.1892C2.04491 64.2029 2.1676 64.0522 2.2494 63.8468C2.33119 63.6551 2.39936 63.4497 2.39936 63.2442L2.48115 63.2305Z" fill="#FA6759"/>
<path d="M32.1732 52.1238C32.1732 52.1238 27.7835 51.5075 26.0385 55.0956C24.2935 58.6838 20.4082 74.7345 20.4082 74.7345L9.61105 64.3399L5.4258 71.9818C5.4258 71.9818 20.7899 91.47 25.2069 90.0867C29.6103 88.7172 32.2141 57.013 32.1732 52.1238Z" fill="#00F1C0"/>
<path d="M31.4643 52.877C31.6552 53.3426 26.0249 66.8186 26.2566 71.3654C26.4884 75.9533 29.6103 83.691 29.3649 84.3758C29.3649 84.3758 32.9094 87.1833 52.486 84.0882C58.498 78.8019 53.2221 60.8338 51.1909 55.1367C51.1909 55.1367 47.3464 53.2056 45.6832 53.0824C45.6832 53.0961 39.1804 55.1777 31.4643 52.877Z" fill="#00F1C0"/>
<path d="M45.7242 53.0687L42.9567 49.4258C42.9567 49.4258 39.6576 51.7814 34.6953 53.5206L34.7771 54.8217C34.9407 57.3827 37.749 58.8891 39.9575 57.5881C42.2614 56.2323 44.729 54.5478 45.7242 53.0687Z" fill="#00F1C0"/>
<path d="M34.0273 49.2341C34.0273 49.2341 33.1957 52.384 34.7634 53.5891L34.3136 54.6847C33.7955 56.1912 31.587 55.931 31.4507 54.3424C31.3962 53.7261 31.3962 53.1509 31.4916 52.6989L34.0273 49.2341Z" fill="#00F1C0"/>
<path d="M47.9736 125.201L73.2623 108.931L62.7651 92.4834L44.7562 104.07C40.7346 106.658 39.5622 112.026 42.1388 116.053L47.9736 125.201Z" fill="#FF383C"/>
<path opacity="0.6" d="M56.9439 95.7155C56.9439 95.7155 61.0201 97.6191 57.8709 109.219C57.7073 109.835 57.5574 110.534 57.68 111.164L58.3889 116.149C58.498 116.683 58.5662 117.395 58.1163 117.696C57.5574 118.08 54.34 121.038 53.9447 121.175C53.154 121.435 54.0128 117.491 53.8902 115.423C53.8629 115.053 53.7811 116.738 53.7266 117.477L53.6311 119.093C52.6632 118.655 52.6905 116.792 52.5405 116.162C52.336 115.327 52.4996 114.779 52.595 114.574C53.0313 113.656 53.8765 111.821 53.9992 110.191C54.081 109.219 53.3994 105.644 52.8404 98.9612L56.9439 95.7155Z" fill="#00F1C0"/>
<path d="M57.4619 67.4623C65.0144 109.862 60.1067 117.915 59.6159 118.244C59.0024 118.655 55.4715 121.914 55.0353 122.051C54.1628 122.339 55.1171 118.025 54.9671 115.738C54.9398 115.327 54.8444 117.176 54.7899 117.984L54.6808 119.764C53.6311 119.285 53.6447 117.244 53.4811 116.546C53.263 115.628 53.4402 115.039 53.5493 114.806C54.0265 113.793 54.9535 111.794 55.0898 109.999C55.1716 108.945 48.0144 74.5016 46.7602 69.4481C45.0425 62.5731 47.1965 54.671 49.6095 54.4108C52.6087 54.0958 56.8348 63.9563 57.4619 67.4623Z" fill="#FF8A80"/>
<path d="M62.765 107.59C62.4651 106.289 64.0874 81.5559 58.5934 65.3819C56.1395 58.1509 52.6087 54.1108 49.6095 54.4532C47.1965 54.7271 45.0425 62.6155 46.7602 69.4905C48.0144 74.544 50.6728 97.1273 52.8677 108.672L62.765 107.59Z" fill="#00F1C0"/>
<path d="M52.7859 20.6112L57.8163 15.5577H76.7658C80.6239 15.5577 83.7458 12.4215 83.7458 8.54578V7.01192C83.7458 3.13619 80.6239 0 76.7658 0H59.7658C55.9077 0 52.7859 3.13619 52.7859 7.01192V20.6112Z" fill="#FFC634"/>
<path d="M73.6848 7.58715C73.6848 8.5595 74.4619 9.34013 75.4298 9.34013C76.3978 9.34013 77.1748 8.5595 77.1748 7.58715C77.1748 6.61479 76.3978 5.83417 75.4298 5.83417C74.4619 5.83417 73.6848 6.61479 73.6848 7.58715Z" fill="#F9F9F9"/>
<path d="M67.3047 7.58715C67.3047 8.5595 68.0818 9.34013 69.0497 9.34013C70.0176 9.34013 70.7947 8.5595 70.7947 7.58715C70.7947 6.61479 70.0176 5.83417 69.0497 5.83417C68.0818 5.83417 67.3047 6.61479 67.3047 7.58715Z" fill="#F9F9F9"/>
<path d="M60.911 7.58715C60.911 8.5595 61.688 9.34013 62.656 9.34013C63.6239 9.34013 64.401 8.5595 64.401 7.58715C64.401 6.61479 63.6239 5.83417 62.656 5.83417C61.688 5.83417 60.911 6.61479 60.911 7.58715Z" fill="#F9F9F9"/>
</g>
<defs>
<clipPath id="clip0">
<rect width="85" height="216" fill="white"/>
</clipPath>
</defs>
</svg>
