<svg width="225" height="476" viewBox="0 0 225 476" fill="none" xmlns="http://www.w3.org/2000/svg">
<path d="M88.4159 476C137.247 476 176.832 473.729 176.832 470.928C176.832 468.127 137.247 465.857 88.4159 465.857C39.5851 465.857 0 468.127 0 470.928C0 473.729 39.5851 476 88.4159 476Z" fill="#8099CC"/>
<path d="M166.154 456.769L163.426 451.404L147.291 451.99L146.939 456.769L154.508 469.902L168.178 459.378L166.154 456.769Z" fill="#F6F6F6"/>
<path d="M156.297 451.961L155.623 464.391C155.623 464.391 151.428 462.016 146.529 457.619L147.203 450.583L156.297 451.961Z" fill="#F6F6F6"/>
<path d="M167.122 456.564C167.122 456.564 162.37 456.476 156.855 460.639C153.569 463.13 148.611 458 147.086 456.681C146.763 456.417 146.353 456.652 146.294 457.121L144.387 474.476H192.438C192.995 474.476 193.435 473.889 193.435 473.156V469.492C193.435 468.935 193.171 468.437 192.731 468.231L167.122 456.564Z" fill="#4640F0"/>
<path d="M169.821 457.502L162.076 461.958" stroke="white" stroke-width="0.4846" stroke-miterlimit="10"/>
<path d="M173.194 459.202L165.45 463.687" stroke="white" stroke-width="0.4846" stroke-miterlimit="10"/>
<path d="M87.9172 456.769L85.189 451.404L70.4041 449.205L68.7027 456.769L76.3005 469.902L89.9413 459.378L87.9172 456.769Z" fill="#F6F6F6"/>
<path d="M76.4472 451.609L77.7966 463.336C77.7966 463.336 73.6017 460.961 68.7027 456.564L70.0521 450.554L76.4472 451.609Z" fill="#F6F6F6"/>
<path d="M88.8853 456.564C88.8853 456.564 84.133 456.476 78.618 460.639C75.3325 463.13 70.3748 458 68.8494 456.681C68.5267 456.417 68.116 456.652 68.0574 457.121L66.1506 474.476H114.172C114.729 474.476 115.169 473.889 115.169 473.156V469.492C115.169 468.935 114.905 468.437 114.465 468.231L88.8853 456.564Z" fill="#4640F0"/>
<path d="M92.6695 457.824L84.9544 462.31" stroke="white" stroke-width="0.4846" stroke-miterlimit="10"/>
<path d="M96.043 459.554L88.2985 464.039" stroke="white" stroke-width="0.4846" stroke-miterlimit="10"/>
<path d="M146.294 65.1396C149.638 59.8335 150.724 51.8889 144.886 48.371C141.835 46.5241 137.904 46.9639 135.176 49.1918C133.915 50.2472 132.976 51.5371 132.213 52.9736C131.04 51.3026 129.28 50.1593 127.109 50.2179C125.261 50.2472 123.09 51.6837 121.711 53.5306C119.834 52.9443 117.722 52.8856 116.108 53.2961C111.972 54.3221 111.239 59.7455 113.527 62.9116C110.593 66.8399 109.743 72.3513 113.937 86.0711L113.996 86.2177L119.687 89.2665L119.863 88.944L120.039 88.6215L119.599 88.387L125.261 70.094C125.994 69.5956 130.688 66.4881 133.152 68.3937C135.645 70.3285 138.52 72.2047 140.75 71.2959C141.747 70.9148 142.657 69.9181 143.302 69.0093C144.71 68.1591 145.678 66.752 146.294 65.1396ZM143.83 50.2472C146.001 51.5664 146.881 53.6772 146.939 55.9931C145.971 51.4198 141.659 49.2212 137.318 50.3938C139.254 49.1918 141.718 49.0159 143.83 50.2472ZM115.874 86.2177C116.519 86.4229 117.487 86.8626 118.367 87.7421L117.135 87.0678L115.874 86.2177Z" fill="#020C2D"/>
<path d="M163.132 246.663C163.132 246.663 169.322 320.48 169.879 340.884C170.466 361.287 166.359 452.196 166.359 452.196L140.662 452.635C140.662 452.635 122.709 300.105 97.7739 250.914L163.132 246.663Z" fill="#CC2F37"/>
<path d="M131.979 250.562C131.979 250.562 149.55 335.841 149.55 348.945C149.55 362.05 152.132 452.02 152.132 452.02" stroke="white" stroke-width="0.4846" stroke-miterlimit="10"/>
<path d="M139.371 442.697H166.594" stroke="white" stroke-width="0.4846" stroke-miterlimit="10"/>
<path d="M163.191 246.663C163.191 246.663 148.905 308.197 134.413 351.731C122.709 386.909 96.747 454.277 96.747 454.277L67.94 453.573L92.9628 352.786C94.2829 347.538 95.1336 342.174 95.4856 336.75C96.7764 316.317 92.5815 275.011 90.8214 248.539L163.191 246.663Z" fill="#FF383C"/>
<path d="M113.175 247.806C113.175 247.806 119.922 327.574 113.849 339.975C107.777 352.375 78.2073 453.368 78.2073 453.368" stroke="white" stroke-width="0.4846" stroke-miterlimit="10"/>
<path d="M70.8148 444.427H99.7392" stroke="white" stroke-width="0.4846" stroke-miterlimit="10"/>
<path d="M137.376 247.103L115.844 275.304" stroke="white" stroke-width="0.4846" stroke-miterlimit="10"/>
<path d="M128.664 130.514C128.664 130.514 127.842 123.888 133.973 122.921C140.104 121.954 156.62 117.586 198.628 131.921C198.628 131.921 205.903 91.2893 205.962 88.0059C206.138 79.4457 208.866 68.3351 215.495 62.4719C216.053 62.0028 216.434 83.6965 216.669 95.2762C216.669 95.2762 222.272 153.556 215.437 159.419C208.602 165.282 121.887 150.478 128.664 130.514Z" fill="#D2A983"/>
<path d="M141.102 120.429C141.102 120.429 117.399 116.501 118.103 134.97C118.807 153.439 164.981 165.986 177.536 162.966L173.634 121.924L141.102 120.429Z" fill="#FFC634"/>
<path d="M177.33 162.38C173.634 166.807 137.581 157.514 133.621 151.504C133.621 151.504 133.005 131.335 134.531 130.924C150.196 126.673 177.33 162.38 177.33 162.38Z" fill="#E5AE35"/>
<path d="M107.366 118.348C107.366 118.348 75.0978 121.631 73.0737 148.338C71.0496 175.044 87.7119 248.949 87.7119 248.949L168.501 246.37L164.071 154.641C163.748 147.839 161.636 141.243 157.999 135.556C154.625 130.279 150.665 124.328 148.435 124.035L112.265 114.742L107.366 118.348Z" fill="#FFC634"/>
<path d="M100.707 128.403C81.1115 120.546 74.1004 134.999 73.0737 148.338C71.0496 175.044 87.7119 248.949 87.7119 248.949L168.501 246.37" fill="#E5AE35"/>
<path d="M143.419 211.367C143.595 212.774 143.39 213.976 142.92 214.034C142.451 214.093 141.952 213.008 141.747 211.601C141.571 210.194 141.776 208.992 142.246 208.933C142.715 208.875 143.243 209.959 143.419 211.367Z" fill="white"/>
<path d="M117.516 94.2209L115.639 112.367L134.355 127.963L137.112 119.872L135.675 104.862L120.596 91.2013C120.596 91.2013 118.279 92.843 117.986 93.4586C117.663 94.045 117.516 94.2209 117.516 94.2209Z" fill="#D2A983"/>
<path d="M120.567 91.2013L135.645 104.862L136.701 113.774C136.701 113.774 123.002 109.993 122.533 98.7062" fill="#020C2D"/>
<path d="M137.142 139.66C137.318 141.067 137.112 142.269 136.643 142.328C136.173 142.387 135.675 141.302 135.469 139.895C135.293 138.488 135.499 137.286 135.968 137.227C136.437 137.168 136.936 138.253 137.142 139.66Z" fill="white"/>
<path d="M138.374 153.996C138.55 155.403 138.344 156.605 137.875 156.663C137.406 156.722 136.907 155.637 136.701 154.23C136.525 152.823 136.731 151.621 137.2 151.563C137.699 151.504 138.198 152.589 138.374 153.996Z" fill="white"/>
<path d="M139.635 168.36C139.811 169.768 139.606 170.97 139.136 171.028C138.667 171.087 138.168 170.002 137.963 168.595C137.787 167.188 137.992 165.986 138.462 165.927C138.931 165.839 139.459 166.953 139.635 168.36Z" fill="white"/>
<path d="M140.896 182.696C141.072 184.103 140.867 185.305 140.398 185.364C139.928 185.422 139.43 184.338 139.224 182.93C139.048 181.523 139.254 180.321 139.723 180.263C140.192 180.204 140.72 181.289 140.896 182.696Z" fill="white"/>
<path d="M142.158 197.031C142.334 198.438 142.129 199.64 141.659 199.699C141.19 199.758 140.691 198.673 140.486 197.266C140.31 195.859 140.515 194.657 140.984 194.598C141.454 194.539 141.982 195.624 142.158 197.031Z" fill="white"/>
<path d="M144.681 225.731C144.857 227.139 144.651 228.34 144.182 228.399C143.713 228.458 143.214 227.373 143.009 225.966C142.833 224.559 143.038 223.357 143.507 223.298C143.977 223.24 144.475 224.324 144.681 225.731Z" fill="white"/>
<path d="M145.913 240.067C146.089 241.474 145.883 242.676 145.414 242.735C144.945 242.793 144.446 241.708 144.241 240.301C144.065 238.894 144.27 237.692 144.739 237.634C145.209 237.575 145.737 238.66 145.913 240.067Z" fill="white"/>
<path d="M115.052 110.989L105.108 115.651L130.013 136.787L134.355 127.934L115.052 110.989Z" fill="white"/>
<path d="M137.112 117.908C137.552 118.055 141.454 120.752 141.454 120.752L141.6 134.09L134.355 127.934L137.112 117.908Z" fill="white"/>
<path d="M158.996 210.487L176.979 154.113C177.976 150.976 180.235 148.455 183.168 147.194L220.013 131.305C221.099 130.836 222.213 131.921 221.832 133.064L203.673 188.295C202.705 191.256 200.564 193.689 197.806 194.979L160.903 212.217C159.788 212.744 158.644 211.66 158.996 210.487Z" fill="#4640F0"/>
<path d="M162.106 213.8L180.088 157.426C181.085 154.289 183.344 151.768 186.278 150.507L223.093 134.618C224.179 134.149 225.293 135.234 224.912 136.377L206.754 191.608C205.786 194.569 203.644 197.002 200.887 198.292L163.983 215.529C162.868 216.028 161.724 214.972 162.106 213.8Z" fill="white"/>
<path d="M171.317 172.523L184.87 176.54L167.738 183.458L171.317 172.523Z" fill="#020C2D"/>
<path d="M187.246 160.474L219.104 146.872" stroke="#1E214D" stroke-width="0.5144" stroke-miterlimit="10"/>
<path d="M187.246 166.484L213.559 155.608" stroke="#1E214D" stroke-width="0.5144" stroke-miterlimit="10"/>
<path d="M172.96 200.373L207.047 185.452L204.847 192.575L170.114 208.142L172.96 200.373Z" fill="#4640F0"/>
<path d="M185.016 182.432C183.022 184.22 147.291 220.836 130.16 237.34C125.554 241.796 118.132 240.712 114.906 235.112L84.8078 184.719L113.321 162.615C113.527 162.937 128.429 188.236 131.861 200.93C132.976 205.093 134.941 204.8 138.344 202.718L164.365 186.683C164.365 186.683 164.335 182.139 164.893 180.409C165.978 177.155 171.2 172.758 171.2 172.758L168.941 179.676C168.53 180.849 167.21 181.699 169.293 181.934L185.808 169.709C185.808 169.709 187.305 169.592 185.896 171.204C184.459 172.816 182.934 174.517 183.11 174.663C183.315 174.781 187.833 171.614 188.038 172.846C188.243 174.048 184.342 176.979 184.518 177.097C184.664 177.214 188.918 173.725 189.153 174.869C189.387 176.012 186.19 178.181 186.014 178.65C185.867 179.09 189.505 176.305 189.651 176.921C189.827 177.507 186.16 181.435 185.016 182.432Z" fill="#D2A983"/>
<path d="M105.753 140.217C105.753 140.217 97.6272 117.41 81.9623 127.025C66.2973 136.611 77.914 183.399 86.5972 193.015L120.274 169.592L105.753 140.217Z" fill="#FFC634"/>
<path d="M119.1 86.159C118.924 86.6281 118.338 86.7747 117.956 86.4229C116.724 85.2209 114.289 83.5792 113.409 88.3577C112.207 94.8658 119.012 93.7518 119.57 94.6313C120.655 96.4195 124.205 102.4 129.456 104.716C132.653 106.123 137.405 106.358 140.896 102.986C144.387 99.615 145.971 101.931 144.505 66.0191C144.505 66.0191 142.891 69.0973 140.603 69.9181C138.286 70.7096 134.589 67.5142 131.978 66.7813C129.837 66.195 125.701 64.6119 123.178 72.0288C122.034 75.4588 120.186 83.3154 119.1 86.159Z" fill="#D2A983"/>
<path d="M143.302 83.9897C143.302 83.9897 142.715 80.9701 141.454 84.1069" stroke="#1E214D" stroke-width="0.328" stroke-miterlimit="10"/>
<path d="M133.035 84.1655L116.754 84.6053C116.754 84.6053 113.615 84.2828 112.852 87.0385" stroke="#1E214D" stroke-width="0.328" stroke-miterlimit="10"/>
<path d="M145.737 88.3284C147.13 88.3284 148.259 85.7428 148.259 82.5532C148.259 79.3636 147.13 76.778 145.737 76.778C144.343 76.778 143.214 79.3636 143.214 82.5532C143.214 85.7428 144.343 88.3284 145.737 88.3284Z" stroke="#1E214D" stroke-width="0.3361" stroke-miterlimit="10"/>
<path d="M137.171 90.146C139.52 90.146 141.424 87.0484 141.424 83.2274C141.424 79.4065 139.52 76.3089 137.171 76.3089C134.822 76.3089 132.917 79.4065 132.917 83.2274C132.917 87.0484 134.822 90.146 137.171 90.146Z" stroke="#1E214D" stroke-width="0.328" stroke-miterlimit="10"/>
<path d="M144.387 91.8463C144.387 91.8463 142.275 92.9017 137.112 92.4033C137.112 92.4033 139.899 96.1557 141.923 95.4228C143.947 94.7192 144.387 91.8463 144.387 91.8463Z" fill="white"/>
<path d="M114.436 87.8593L118.015 90.5564C118.044 90.5857 116.695 84.019 114.436 87.8593Z" fill="#BC8F6E"/>
<path d="M140.163 84.2535C140.163 85.045 139.84 85.6606 139.459 85.6606C139.078 85.6606 138.755 85.0157 138.755 84.2535C138.755 83.462 139.078 82.8463 139.459 82.8463C139.87 82.817 140.163 83.462 140.163 84.2535Z" fill="#020C2D"/>
<path d="M144.681 83.5499C144.681 84.3415 144.358 84.9571 143.977 84.9571C143.595 84.9571 143.273 84.3121 143.273 83.5499C143.273 82.7877 143.595 82.1428 143.977 82.1428C144.387 82.1428 144.681 82.7584 144.681 83.5499Z" fill="#020C2D"/>
<path d="M134.325 78.1265C133.299 78.8301 134.912 75.6054 136.291 75.2243C137.67 74.8432 139.078 75.5761 139.371 76.8073C139.4 76.8073 136.819 76.3969 134.325 78.1265Z" fill="#020C2D"/>
<path d="M144.915 77.7747C143.448 77.5695 142.392 77.8333 142.392 77.8333C142.598 76.6607 143.683 75.8399 144.945 75.8105" fill="#020C2D"/>
<path d="M142.568 83.5206L144.681 89.5303C144.71 89.6183 144.651 89.7356 144.563 89.7356L142.07 89.9114C141.982 89.9114 141.923 89.8528 141.923 89.7356L142.304 83.5206C142.304 83.4033 142.51 83.3447 142.568 83.5206Z" fill="#BC8F6E"/>
<path d="M99.2406 44.7945L88.2399 33.8011H31.5646V0H99.2406V44.7945Z" fill="#4640F0"/>
<path d="M49.7523 20.2865C51.8585 20.2865 53.5659 18.5803 53.5659 16.4755C53.5659 14.3707 51.8585 12.6644 49.7523 12.6644C47.6462 12.6644 45.9388 14.3707 45.9388 16.4755C45.9388 18.5803 47.6462 20.2865 49.7523 20.2865Z" fill="#F9F9F9"/>
<path d="M67.5294 16.4755C67.5294 18.5862 65.828 20.2865 63.7158 20.2865C61.6037 20.2865 59.9023 18.5862 59.9023 16.4755C59.9023 14.3647 61.6037 12.6644 63.7158 12.6644C65.7986 12.6644 67.5294 14.3647 67.5294 16.4755Z" fill="#F9F9F9"/>
<path d="M77.65 20.2865C79.7562 20.2865 81.4636 18.5803 81.4636 16.4755C81.4636 14.3707 79.7562 12.6644 77.65 12.6644C75.5439 12.6644 73.8365 14.3707 73.8365 16.4755C73.8365 18.5803 75.5439 20.2865 77.65 20.2865Z" fill="#F9F9F9"/>
</svg>
