<svg xmlns="http://www.w3.org/2000/svg" viewBox="0 0 360.54 386.24"><defs><style>.cls-1{isolation:isolate;}.cls-2,.cls-24{fill:#020c2d;}.cls-3{fill:#faa6a0;}.cls-4{fill:#fa6759;}.cls-5{fill:#ff8a80;}.cls-6{fill:#fff;}.cls-7{fill:#8099cc;}.cls-8{fill:#fba4a0;}.cls-16,.cls-9{fill:#00f1c0;}.cls-10{fill:#4640f0;}.cls-11,.cls-20,.cls-25,.cls-26,.cls-27{fill:none;}.cls-11,.cls-20{stroke:#fff;}.cls-11,.cls-20,.cls-24,.cls-25,.cls-26,.cls-27{stroke-miterlimit:10;}.cls-11{stroke-width:0.4px;}.cls-12{opacity:0.21;mix-blend-mode:multiply;}.cls-13{fill:#d10022;}.cls-14{fill:#df473a;}.cls-15{fill:#ff383c;}.cls-16{opacity:0.6;}.cls-17{fill:#ffc634;}.cls-18{fill:#f9f9f9;}.cls-19{fill:#f6f6f6;}.cls-20{stroke-width:0.48px;}.cls-21{fill:#cc2f37;}.cls-22{fill:#d2a983;}.cls-23{fill:#e5ae35;}.cls-24,.cls-25,.cls-26,.cls-27{stroke:#1e214d;}.cls-24{stroke-width:0;}.cls-25{stroke-width:0.51px;}.cls-26{stroke-width:0.33px;}.cls-27{stroke-width:0.34px;}.cls-28{fill:#bc8f6e;}</style></defs><g class="cls-1"><g id="Capa_2" data-name="Capa 2"><g id="Capa_1-2" data-name="Capa 1"><path class="cls-2" d="M290.23,159,269.55,69.94c-.29-2.32,3.92-7.89,6-9.06,5.58-3.2,12.48-3.66,18.78-2.35,20.54,4.27,38,86.38,34.56,84.4,0,0-30.82,16.1-40.79,9.55"/><path class="cls-3" d="M291.87,77.66a.54.54,0,0,0,.54.57c1.3,0,4.29-.28,4.71,3.11s-2.84,5.35-4.8,5.46c-.57,0-1.88.14-2.26.56-1.18,1.29-1.74,4.09-2.64,7.59a9.94,9.94,0,0,0,4.06,11.26s-20.25,10-20.06,0c0,0,1.6-18.36,1.51-18.45-1.58-1.58-7.72-2.26-3.86-15.35,3.57-12.12,12.47-11.26,14.73-10.86C285.7,61.87,292.33,62.29,291.87,77.66Z"/><path class="cls-2" d="M277.54,60.34S290,76.77,292.13,78.13C292.13,78.13,300.6,58.08,277.54,60.34Z"/><path class="cls-4" d="M295.65,82.32s-2-4.3-4.62,1.46"/><path class="cls-5" d="M280.61,77.68a3,3,0,1,0,3,3.11A3,3,0,0,0,280.61,77.68Z"/><path class="cls-5" d="M267.94,78.81a3,3,0,0,0,1-5.6S267.65,76.58,267.94,78.81Z"/><path class="cls-6" d="M270.5,77.25l4.63,2.31s-2.26,1.65-3.49.74S270.5,77.25,270.5,77.25Z"/><path class="cls-4" d="M274.05,73.88l-.74,3.31-1.61-.71a.43.43,0,0,1-.09-.73Z"/><path d="M280,72.64c.4.56.17-1.4-.49-1.85a1.37,1.37,0,0,0-1.91.21A4.3,4.3,0,0,1,280,72.64Z"/><path d="M271.25,69.33c-.66.18.75-1.2,1.54-1.14a1.36,1.36,0,0,1,1.35,1.36A4.26,4.26,0,0,0,271.25,69.33Z"/><path d="M277.32,75.07c-.22.56-.62.92-.89.81s-.3-.65-.08-1.2.62-.92.89-.81S277.55,74.52,277.32,75.07Z"/><path d="M273,73c-.22.53-.6.87-.85.77s-.3-.62-.08-1.15.59-.87.85-.77S273.24,72.5,273,73Z"/><path d="M272.93,87.74a48.7,48.7,0,0,0,8.7.91C284.54,88.46,269.93,105.24,272.93,87.74Z"/><ellipse class="cls-7" cx="298.94" cy="380.58" rx="60.35" ry="3.47"/><path class="cls-8" d="M276.1,354.89,274,369.82s-3.38,9.91-6.51,6.07a31,31,0,0,0-6.23-5.86l-1-15.52Z"/><path class="cls-5" d="M267.9,355.45l-.54,20.31s9.91,1.49,6.23-5.15l2.16-14.08Z"/><path class="cls-8" d="M326,353.74l4.65,14.9s3.54,3.1,4.81,3c2.32-.15,3.54-4.15,3.54-4.15l.38-13.77Z"/><path class="cls-5" d="M332.7,349.76,336,374.4s6.66,1.76,3-4.87l.82-18.95Z"/><path class="cls-9" d="M260.23,370l-12.51,10.13c-.64.48-.18,1.28.73,1.28l18.46.15a1.06,1.06,0,0,0,1-.5l1.39-2.85c.4-.83,1.2-.89,1.13,0l.68,2.75c0,.44,4.38.32,4.41-.08a76.92,76.92,0,0,0-.7-12.69.92.92,0,0,0-.83-.64h0a1.22,1.22,0,0,0-1,.29c-1.25,1.2-5.23,4.83-7.36,4.09a15.54,15.54,0,0,1-3.84-1.88A1.31,1.31,0,0,0,260.23,370Z"/><path class="cls-9" d="M339.17,367l7.1,11.9a2.31,2.31,0,0,1-1,3.35c-2.22,1.32-4,4-5.43,4-2.53.07-6.45-2.58-8.74-3.58-1.53-.67-2.73-1.65-2.54-2.93l1.76-11.93c0-.15.28-.21.41-.09l2.72,2.46c.89.81,3.31.7,3.91-.26.43-.69,1.43-2.92,1.43-2.92A.28.28,0,0,1,339.17,367Z"/><path class="cls-10" d="M301.51,157.54c5.73,10.14,8.76,17.56,12.06,30.44,3.82,15,45.17,141.35,47,168.53-4.71,1.14-36,1-39,.81-9.47-27.13-33.42-115.23-37.47-132.32-.63-2.63-4.69-2.05-4.37.63,2.3,19.51,14.72,101.71,20.9,131.73-2.47,1.26-38.32,1-41.17.62-3.1-33.47-19.57-160.19,5.29-201.26C276.12,155.15,290,157.2,301.51,157.54Z"/><path class="cls-11" d="M266.24,161.17s-10.12,25.05-10.12,60.4,11.59,124.92,11.59,124.92"/><line class="cls-11" x1="336.33" y1="346.49" x2="295.91" y2="160.01"/><path class="cls-11" d="M288.82,161s.34,32.39,14.88,29.83"/><path class="cls-12" d="M264.92,161.83l46.79,35.23s2-19-6.36-34.62Z"/><path class="cls-11" d="M258.66,192.32c14.53,2.55,12.19-29.67,12.19-29.67"/><path class="cls-13" d="M286.67,102.24s3-.85,2.47-.22a12.34,12.34,0,0,1-2.59,2Z"/><line class="cls-11" x1="298.47" y1="346.68" x2="258.08" y2="346.69"/><line class="cls-11" x1="359.24" y1="346.33" x2="317.5" y2="346.69"/><path class="cls-14" d="M315.42,218.29c0-.25.25-2.89.25-2.89l-1.2,3.8Z"/><path class="cls-14" d="M307.92,222.05l-.84.65s.87,1.58,1.24,1.46A2.74,2.74,0,0,1,307.92,222.05Z"/><path class="cls-3" d="M219.89,129.56s30.59,42.41,37.75,37.35c0,0,8.22-5.8,4.09-29.49,0-2.31,0-3.9.06-4.26,0,0,1.78-23.39,5.62-28.24.43-.53,1.7-1.52,1.53-1.56C257.2,100.42,252.7,130,249.47,143.6c-.14.57-22.55-21.26-22.55-21.26s-11.75-15.53-12.57-14.64c-1.18,1.29,3.37,8.21,3.37,8.21a2.36,2.36,0,0,1-1.19,1.19,2.79,2.79,0,0,0-1.68,2.17c-.3,1.19-1.49,1.88-1.68,2.57S217.39,127.75,219.89,129.56Z"/><path class="cls-3" d="M226.52,122.24s-2.37-6.73-3.36-6.53-5.34,2.08-5.25,3.76,3.86.3,3.86.3-.69,3.76,1.19,4.25S226.52,122.24,226.52,122.24Z"/><path class="cls-5" d="M220.68,119.47s.1,1.68-1.28,2a1.67,1.67,0,0,1-2.08,1.38s.5.79-.59,1C216.73,123.82,221.38,128.87,220.68,119.47Z"/><path class="cls-4" d="M221.59,116.23c-.83.58-1.67,1.08-2.53,1.58-.4.27-.9.46-1.23.73a.84.84,0,0,0-.31.41.32.32,0,0,0,.12.33,2.46,2.46,0,0,0,1.15.54,9.22,9.22,0,0,0,1.41.16c.23,0,.49-.07.88.2a.57.57,0,0,1,.12.56l-.09.36c-.15.48-.27,1-.44,1.43h0l.27-1.46c0-.23.17-.51,0-.68s-.46-.08-.7-.09a4.26,4.26,0,0,1-2.84-.73.7.7,0,0,1-.21-.71,1.26,1.26,0,0,1,.46-.6,9.77,9.77,0,0,1,1.31-.71l2.65-1.35Z"/><path class="cls-4" d="M217.63,115.7a1.66,1.66,0,0,1,.58.21,4.59,4.59,0,0,1,.44.33,5,5,0,0,1,.32.44,1.43,1.43,0,0,1,.19.56l0,0c-.53-.5-1-1-1.53-1.54Z"/><path class="cls-4" d="M215.62,118.2c.45.3.85.62,1.25.93s.79.65,1.21.94.81.63,1.2.92a1.49,1.49,0,0,0,.6.28.83.83,0,0,0,.67-.14l0,0a1.11,1.11,0,0,1-1.45.11,10.47,10.47,0,0,1-1.29-.88,15.84,15.84,0,0,1-2.25-2.16Z"/><path class="cls-4" d="M219.5,121.45a2,2,0,0,1-.68,1.79,1.32,1.32,0,0,1-1.09.15,2.84,2.84,0,0,1-.93-.43,7.74,7.74,0,0,1-1.29-1.34,9.49,9.49,0,0,1-1-1.54l0,0c.37.47.77.92,1.17,1.36a10.07,10.07,0,0,0,1.3,1.23,1.55,1.55,0,0,0,1.63.33,2.15,2.15,0,0,0,.79-1.53Z"/><path class="cls-4" d="M217.44,122.54a2,2,0,0,1-.06,1.15,1.47,1.47,0,0,1-.29.59.8.8,0,0,1-.37.22,2,2,0,0,1-.33.08,2.16,2.16,0,0,1-1.19-.24,4.62,4.62,0,0,1-.52-.28,1.07,1.07,0,0,1-.34-.52l0,0a1.21,1.21,0,0,0,.41.34,2.88,2.88,0,0,0,.52.17,2.6,2.6,0,0,0,1.06.18.8.8,0,0,0,.49-.16,1.92,1.92,0,0,0,.29-.45,3,3,0,0,0,.26-1Z"/><path class="cls-9" d="M268.94,103.36s-7.6-1.07-10.64,5.13-9.76,33.89-9.76,33.89l-18.72-17.93-7.26,13.19s26.64,33.63,34.29,31.25S269,111.81,268.94,103.36Z"/><path class="cls-9" d="M267.72,104.66c.33.81-9.43,24.06-9,31.93s5.81,21.26,5.39,22.46c0,0,6.15,4.85,40.08-.5,10.43-9.12,1.27-40.14-2.24-50,0,0-6.67-3.34-9.55-3.55A45.7,45.7,0,0,1,267.72,104.66Z"/><path class="cls-9" d="M292.45,105l-4.8-6.29a63.21,63.21,0,0,1-14.32,7.08l.14,2.25a6,6,0,0,0,9,4.76C286.44,110.47,290.72,107.56,292.45,105Z"/><path class="cls-9" d="M272.17,98.37s-1.43,5.44,1.27,7.52l-.77,1.89a2.56,2.56,0,0,1-5-.59,10.35,10.35,0,0,1,.07-2.83Z"/><path class="cls-15" d="M283.15,184.41h52.07a0,0,0,0,1,0,0V211.8a6.34,6.34,0,0,1-6.34,6.34H283.15a0,0,0,0,1,0,0V184.41A0,0,0,0,1,283.15,184.41Z" transform="translate(678.09 203.94) rotate(147.35)"/><path class="cls-16" d="M311.9,178.62s7.07,3.28,1.61,23.31a7.65,7.65,0,0,0-.33,3.35l1.23,8.61c.18.92.31,2.16-.47,2.68-1,.65-6.56,5.78-7.24,6-1.38.46.12-6.35-.1-9.93a35,35,0,0,0-.28,3.54l-.17,2.8c-1.67-.77-1.63-4-1.89-5.06a4.2,4.2,0,0,1,.1-2.74,23.69,23.69,0,0,0,2.44-7.57c.13-1.67-1-7.85-2-19.37Z"/><path class="cls-5" d="M312.8,129.85c13.11,73.18,4.59,87.08,3.74,87.65-1.08.72-7.19,6.34-7.94,6.58-1.51.51.14-7-.11-10.88a37.72,37.72,0,0,0-.3,3.88l-.19,3.07c-1.83-.84-1.79-4.36-2.07-5.55a4.61,4.61,0,0,1,.11-3,25.54,25.54,0,0,0,2.67-8.29c.15-1.83-12.27-61.26-14.45-70-3-11.87.77-25.5,4.94-26C304.39,106.78,311.72,123.79,312.8,129.85Z"/><path class="cls-9" d="M322,199.09c-.53-2.24,2.29-44.93-7.23-72.86-4.25-12.49-10.38-19.45-15.57-18.88-4.17.46-7.91,14.09-4.94,26,2.18,8.74,6.77,47.72,10.6,67.63Z"/><path class="cls-17" d="M304.68,49l8.73-8.72h32.86a12.11,12.11,0,0,0,12.11-12.11V25.51A12.11,12.11,0,0,0,346.27,13.4H316.79a12.11,12.11,0,0,0-12.11,12.11Z"/><path class="cls-18" d="M340.93,26.49a3,3,0,1,0,3-3A3,3,0,0,0,340.93,26.49Z"/><path class="cls-18" d="M329.85,26.49a3,3,0,1,0,3-3A3,3,0,0,0,329.85,26.49Z"/><path class="cls-18" d="M318.78,26.49a3,3,0,1,0,3-3A3,3,0,0,0,318.78,26.49Z"/><ellipse class="cls-7" cx="71.25" cy="379.73" rx="71.25" ry="4.1"/><polygon class="cls-19" points="133.88 368.31 131.7 364 118.7 364.47 118.41 368.31 124.51 378.91 135.51 370.43 133.88 368.31"/><path class="cls-19" d="M126,364.43l-.55,10a47,47,0,0,1-7.32-5.45l.54-5.67Z"/><path class="cls-10" d="M134.67,368.16s-3.82-.07-8.27,3.3c-2.64,2-6.64-2.13-7.86-3.2-.25-.22-.59,0-.63.36l-1.54,14h38.69a1,1,0,0,0,.81-1.06v-2.95a1.07,1.07,0,0,0-.55-1Z"/><line class="cls-20" x1="136.84" y1="368.9" x2="130.61" y2="372.5"/><line class="cls-20" x1="139.56" y1="370.29" x2="133.33" y2="373.89"/><polygon class="cls-19" points="70.84 368.31 68.66 364 56.73 362.21 55.37 368.31 61.47 378.91 72.47 370.43 70.84 368.31"/><path class="cls-19" d="M61.61,364.15l1.09,9.46a47.31,47.31,0,0,1-7.33-5.46l1.08-4.83Z"/><path class="cls-10" d="M71.63,368.16s-3.82-.07-8.27,3.3c-2.64,2-6.64-2.13-7.86-3.2-.25-.22-.59,0-.64.36l-1.53,14H92a1,1,0,0,0,.81-1.06v-2.95a1.07,1.07,0,0,0-.55-1Z"/><line class="cls-20" x1="74.68" y1="369.17" x2="68.45" y2="372.78"/><line class="cls-20" x1="77.39" y1="370.56" x2="71.16" y2="374.17"/><path class="cls-2" d="M117.89,52.53c2.69-4.28,3.57-10.68-1.13-13.53a6.79,6.79,0,0,0-7.81.67,10.14,10.14,0,0,0-2.39,3,4.86,4.86,0,0,0-4.11-2.22,6.23,6.23,0,0,0-4.35,2.68A8.73,8.73,0,0,0,93.59,43c-3.32.83-3.91,5.2-2.08,7.76-2.36,3.17-3,7.6.32,18.66l0,.12L96.44,72l.14-.26h0l.13-.26-.35-.19,4.56-14.74c.59-.41,4.37-2.92,6.36-1.38s4.32,3.07,6.12,2.35a5.28,5.28,0,0,0,2.06-1.85A6.06,6.06,0,0,0,117.89,52.53Zm-2-12a5.26,5.26,0,0,1,2.51,4.63,6,6,0,0,0-7.76-4.53A5,5,0,0,1,115.89,40.53Zm-22.53,29a4.74,4.74,0,0,1,2,1.23l-1-.54Z"/><path class="cls-21" d="M131.47,198.89s5,59.52,5.44,76-2.83,89.76-2.83,89.76l-20.7.37S98.92,242,78.81,202.33Z"/><path class="cls-20" d="M106.36,202s14.16,68.77,14.16,79.32,2.09,83.11,2.09,83.11"/><line class="cls-20" x1="112.32" y1="356.98" x2="134.26" y2="356.98"/><path class="cls-15" d="M131.51,198.89S120,248.51,108.32,283.61C98.87,312,78,366.3,78,366.3l-23.22-.58L74.9,284.45a70.5,70.5,0,0,0,2-12.92c1-16.49-2.35-49.79-3.77-71.14Z"/><path class="cls-20" d="M91.19,199.82s5.44,64.31.55,74.31S63,365.57,63,365.57"/><line class="cls-20" x1="57.07" y1="358.37" x2="80.36" y2="358.37"/><line class="cls-20" x1="110.69" y1="199.26" x2="93.36" y2="221.99"/><path class="cls-22" d="M103.69,105.25S103,99.9,108,99.13s18.25-4.31,52.09,7.25c0,0,5.86-32.77,5.92-35.42.15-6.9,2.33-15.85,7.67-20.58.44-.39.76,17.11.95,26.44,0,0,4.5,47-1,51.73S98.23,121.35,103.69,105.25Z"/><path class="cls-17" d="M113.69,97.12S94.59,94,95.15,108.84s37.77,25,47.89,22.58L139.9,98.34Z"/><path class="cls-23" d="M142.89,130.94c-3,3.56-32-3.92-35.22-8.77,0,0-.49-16.26.75-16.6C121,102.15,142.89,130.94,142.89,130.94Z"/><path class="cls-17" d="M86.53,95.43s-26,2.66-27.63,24.18,11.8,81.14,11.8,81.14l65.11-2.07-3.56-74a31.26,31.26,0,0,0-4.9-15.4c-2.71-4.24-5.9-9-7.7-9.28L90.5,92.53Z"/><path class="cls-23" d="M81.16,103.53c-15.79-6.33-21.44,5.32-22.26,16.08-1.64,21.53,11.8,81.14,11.8,81.14l65.11-2.07"/><path class="cls-6" d="M115.56,170.45c.15,1.13,0,2.09-.4,2.14s-.79-.83-.93-2,0-2.1.4-2.15S115.42,169.31,115.56,170.45Z"/><path class="cls-22" d="M94.71,76,93.19,90.6l15.08,12.57,2.22-6.53-1.17-12.09-12.16-11a11.84,11.84,0,0,0-2.1,1.81A2.52,2.52,0,0,1,94.71,76Z"/><path class="cls-2" d="M97.16,73.55l12.16,11,.86,7.19s-11-3-11.42-12.16"/><path class="cls-6" d="M110.5,112.62c.15,1.13,0,2.09-.4,2.14s-.79-.83-.93-2,0-2.1.4-2.15S110.36,111.48,110.5,112.62Z"/><path class="cls-6" d="M111.52,124.18c.14,1.14,0,2.1-.41,2.15s-.79-.83-.93-2,0-2.09.4-2.14S111.37,123.05,111.52,124.18Z"/><path class="cls-6" d="M112.53,135.75c.14,1.13,0,2.09-.41,2.14s-.78-.83-.93-2,0-2.09.4-2.15S112.38,134.61,112.53,135.75Z"/><path class="cls-6" d="M113.54,147.31c.15,1.14,0,2.1-.4,2.15s-.79-.83-.94-2,0-2.1.4-2.15S113.39,146.18,113.54,147.31Z"/><path class="cls-6" d="M114.55,158.88c.15,1.13,0,2.09-.4,2.14s-.79-.82-.94-2,0-2.09.41-2.14S114.4,157.75,114.55,158.88Z"/><path class="cls-6" d="M116.58,182c.14,1.14,0,2.1-.41,2.15s-.79-.83-.93-2,0-2.09.4-2.14S116.43,180.88,116.58,182Z"/><path class="cls-6" d="M117.59,193.58c.14,1.13,0,2.09-.41,2.14s-.78-.82-.93-2,0-2.09.4-2.14S117.44,192.45,117.59,193.58Z"/><polygon class="cls-6" points="92.72 89.51 84.69 93.25 104.76 110.31 108.27 103.17 92.72 89.51"/><path class="cls-6" d="M110.49,95.07c.35.12,3.51,2.3,3.51,2.3l.11,10.76-5.84-5Z"/><path class="cls-10" d="M128.13,169.73l14.49-45.47a9,9,0,0,1,5-5.57l29.67-12.82a1.12,1.12,0,0,1,1.47,1.43l-14.64,44.54a9,9,0,0,1-4.73,5.39l-29.74,13.9A1.12,1.12,0,0,1,128.13,169.73Z"/><path class="cls-6" d="M130.62,172.39l14.49-45.46a9.07,9.07,0,0,1,5-5.58l29.67-12.82a1.13,1.13,0,0,1,1.47,1.43L166.6,154.5a9,9,0,0,1-4.73,5.39l-29.74,13.9A1.12,1.12,0,0,1,130.62,172.39Z"/><polygon class="cls-24" points="138.04 139.11 148.97 142.35 135.17 147.94 138.04 139.11"/><line class="cls-25" x1="150.88" y1="129.4" x2="176.56" y2="118.42"/><line class="cls-25" x1="150.88" y1="134.24" x2="172.09" y2="125.48"/><polygon class="cls-10" points="139.39 161.57 166.85 149.54 165.07 155.29 137.09 167.85 139.39 161.57"/><path class="cls-22" d="M149.09,147.12c-1.61,1.44-30.4,31-44.21,44.27a7.83,7.83,0,0,1-12.3-1.8L68.33,149l23-17.83c.16.25,12.17,20.66,14.93,30.9.91,3.37,2.49,3.11,5.22,1.44l21-12.93a23.42,23.42,0,0,1,.43-5.05c.89-2.63,5.09-6.17,5.09-6.17l-1.82,5.59c-.33.94-1.4,1.62.29,1.82l13.31-9.86s1.22-.1.07,1.21-2.4,2.68-2.24,2.77,3.8-2.45,4-1.47-3,3.34-2.84,3.44,3.55-2.72,3.74-1.8-2.4,2.68-2.53,3,2.82-1.9,2.94-1.41S150,146.29,149.09,147.12Z"/><path class="cls-17" d="M85.23,113.05s-6.55-18.38-19.17-10.64-3.28,45.47,3.74,53.21l27.12-18.87Z"/><path class="cls-22" d="M96,69.47a.55.55,0,0,1-.91.21c-1-1-3-2.3-3.67,1.57-1,5.25,4.52,4.35,5,5.06.89,1.43,3.73,6.25,8,8.12A8.38,8.38,0,0,0,113.55,83c2.82-2.71,4.08-.85,2.9-29.8,0,0-1.29,2.5-3.15,3.14s-4.84-1.94-7-2.53c-1.72-.47-5-1.73-7.08,4.24C98.33,60.84,96.84,67.19,96,69.47Z"/><path class="cls-26" d="M115.48,67.73s-.46-2.43-1.49.08"/><path class="cls-26" d="M107.2,67.88l-13.12.35s-2.52-.25-3.14,2"/><ellipse class="cls-27" cx="117.44" cy="66.57" rx="2.03" ry="4.66"/><ellipse class="cls-26" cx="110.54" cy="67.12" rx="3.43" ry="5.59"/><path class="cls-6" d="M116.35,74.07s-1.7.85-5.85.46c0,0,2.23,3,3.87,2.44S116.35,74.07,116.35,74.07Z"/><path class="cls-28" d="M92.22,70.86,95.12,73S94,67.76,92.22,70.86Z"/><path class="cls-2" d="M113,67.93c0,.64-.25,1.15-.56,1.15s-.56-.51-.56-1.15.25-1.14.56-1.14S113,67.3,113,67.93Z"/><path class="cls-2" d="M116.6,67.37c0,.64-.25,1.15-.56,1.15s-.56-.51-.56-1.15.25-1.14.56-1.14S116.6,66.74,116.6,67.37Z"/><path class="cls-2" d="M108.25,63c-.83.58.47-2,1.6-2.33a2,2,0,0,1,2.48,1.27A6.08,6.08,0,0,0,108.25,63Z"/><path class="cls-2" d="M116.77,62.72a6.13,6.13,0,0,0-2,.06,2,2,0,0,1,2.06-1.63"/><path class="cls-28" d="M114.88,67.34l1.71,4.85a.12.12,0,0,1-.1.17l-2,.15a.13.13,0,0,1-.13-.13l.31-5C114.67,67.24,114.84,67.21,114.88,67.34Z"/><polygon class="cls-10" points="79.96 36.11 71.1 27.26 25.45 27.26 25.45 0 79.96 0 79.96 36.11"/><circle class="cls-18" cx="40.1" cy="13.29" r="3.07"/><path class="cls-18" d="M54.41,13.29a3.07,3.07,0,1,1-3.07-3.07A3.07,3.07,0,0,1,54.41,13.29Z"/><circle class="cls-18" cx="62.58" cy="13.29" r="3.07"/></g></g></g></svg>