<?xml version="1.0" encoding="UTF-8" standalone="no"?>
<svg
   xmlns:dc="http://purl.org/dc/elements/1.1/"
   xmlns:cc="http://creativecommons.org/ns#"
   xmlns:rdf="http://www.w3.org/1999/02/22-rdf-syntax-ns#"
   xmlns:svg="http://www.w3.org/2000/svg"
   xmlns="http://www.w3.org/2000/svg"
   xmlns:sodipodi="http://sodipodi.sourceforge.net/DTD/sodipodi-0.dtd"
   xmlns:inkscape="http://www.inkscape.org/namespaces/inkscape"
   width="15.497321mm"
   height="15.488745mm"
   viewBox="0 0 15.497321 15.488745"
   version="1.1"
   id="svg5323"
   inkscape:version="1.0.2 (1.0.2+r75+1)"
   sodipodi:docname="1.svg">
  <defs
     id="defs5317" />
  <sodipodi:namedview
     id="base"
     pagecolor="#ffffff"
     bordercolor="#666666"
     borderopacity="1.0"
     inkscape:pageopacity="0.0"
     inkscape:pageshadow="2"
     inkscape:zoom="0.7"
     inkscape:cx="115.86135"
     inkscape:cy="-88.846251"
     inkscape:document-units="mm"
     inkscape:current-layer="layer1"
     inkscape:document-rotation="0"
     showgrid="false"
     fit-margin-top="0"
     fit-margin-left="0"
     fit-margin-right="0"
     fit-margin-bottom="0"
     inkscape:window-width="1514"
     inkscape:window-height="842"
     inkscape:window-x="210"
     inkscape:window-y="112"
     inkscape:window-maximized="0" />
  <metadata
     id="metadata5320">
    <rdf:RDF>
      <cc:Work
         rdf:about="">
        <dc:format>image/svg+xml</dc:format>
        <dc:type
           rdf:resource="http://purl.org/dc/dcmitype/StillImage" />
        <dc:title></dc:title>
      </cc:Work>
    </rdf:RDF>
  </metadata>
  <g
     inkscape:label="Layer 1"
     inkscape:groupmode="layer"
     id="layer1"
     transform="translate(-34.739419,-397.26249)">
    <g
       id="g7114"
       transform="translate(112.19986,65.096287)">
      <g
         id="g132"
         transform="matrix(0.35277777,0,0,-0.35277777,-70.366966,335.27374)">
        <path
           d="M 0,0 C 0.29,0.5 0.779,0.468 1.253,0.468 3.473,0.469 5.694,0.426 7.913,0.486 9.014,0.516 9.492,0.189 9.449,-0.987 9.357,-3.52 9.369,-6.056 9.338,-8.591 6.356,-9.895 3.345,-9.658 0.321,-8.767 l 0.007,0.134 C -0.949,-5.799 -0.339,-2.895 0,0"
           style="fill:#6c4396;fill-opacity:1;fill-rule:evenodd;stroke:none"
           id="path134" />
      </g>
      <g
         id="g136"
         transform="matrix(0.35277777,0,0,-0.35277777,-70.253619,338.36658)">
        <path
           d="m 0,0 c 3,0.381 6.012,0.06 9.017,0.176 0.138,-3.024 0.205,-6.047 -0.045,-9.069 -2.949,-1.313 -5.897,-1.31 -8.846,0 C -0.16,-5.932 0.051,-2.964 0,0"
           style="fill:#f79821;fill-opacity:1;fill-rule:evenodd;stroke:none"
           id="path138" />
      </g>
      <g
         id="g140"
         transform="matrix(0.35277777,0,0,-0.35277777,-70.208992,341.50383)">
        <path
           d="m 0,0 c 2.949,0 5.897,0 8.845,0 0.309,-2.629 0.05,-5.268 0.142,-7.9 0.034,-0.967 -0.464,-1.225 -1.329,-1.215 -2.158,0.027 -4.317,0.029 -6.475,0 -0.87,-0.011 -1.358,0.251 -1.325,1.214 C -0.049,-5.268 -0.308,-2.629 0,0"
           style="fill:#0267ff;fill-opacity:1;fill-rule:evenodd;stroke:none"
           id="path142" />
      </g>
      <g
         id="g144"
         transform="matrix(0.35277777,0,0,-0.35277777,-70.366966,335.27374)">
        <path
           d="M 0,0 C 0.689,-1.005 0.311,-2.139 0.344,-3.21 0.401,-5.016 0.339,-6.825 0.328,-8.633 H -8.747 C -5.562,-5.49 -2.781,-2.745 0,0"
           style="fill:#0c6666;fill-opacity:1;fill-rule:evenodd;stroke:none"
           id="path146" />
      </g>
    </g>
  </g>
</svg>
