<?xml version="1.0" encoding="UTF-8" standalone="no"?>
<svg
   xmlns:dc="http://purl.org/dc/elements/1.1/"
   xmlns:cc="http://creativecommons.org/ns#"
   xmlns:rdf="http://www.w3.org/1999/02/22-rdf-syntax-ns#"
   xmlns:svg="http://www.w3.org/2000/svg"
   xmlns="http://www.w3.org/2000/svg"
   xmlns:sodipodi="http://sodipodi.sourceforge.net/DTD/sodipodi-0.dtd"
   xmlns:inkscape="http://www.inkscape.org/namespaces/inkscape"
   width="15.497321mm"
   height="15.488745mm"
   viewBox="0 0 15.497321 15.488745"
   version="1.1"
   id="svg5323"
   inkscape:version="1.0.2 (1.0.2+r75+1)"
   sodipodi:docname="2.svg">
  <defs
     id="defs5317" />
  <sodipodi:namedview
     id="base"
     pagecolor="#ffffff"
     bordercolor="#666666"
     borderopacity="1.0"
     inkscape:pageopacity="0.0"
     inkscape:pageshadow="2"
     inkscape:zoom="0.7"
     inkscape:cx="115.86135"
     inkscape:cy="-88.846251"
     inkscape:document-units="mm"
     inkscape:current-layer="layer1"
     inkscape:document-rotation="0"
     showgrid="false"
     fit-margin-top="0"
     fit-margin-left="0"
     fit-margin-right="0"
     fit-margin-bottom="0"
     inkscape:window-width="1514"
     inkscape:window-height="842"
     inkscape:window-x="210"
     inkscape:window-y="112"
     inkscape:window-maximized="0" />
  <metadata
     id="metadata5320">
    <rdf:RDF>
      <cc:Work
         rdf:about="">
        <dc:format>image/svg+xml</dc:format>
        <dc:type
           rdf:resource="http://purl.org/dc/dcmitype/StillImage" />
        <dc:title></dc:title>
      </cc:Work>
    </rdf:RDF>
  </metadata>
  <g
     inkscape:label="Layer 1"
     inkscape:groupmode="layer"
     id="layer1"
     transform="translate(-34.739419,-397.26249)">
    <g
       id="g7188"
       transform="translate(-22.489435,-47.06218)">
      <g
         id="g168"
         transform="matrix(0.35277777,0,0,-0.35277777,67.84785,453.53903)">
        <path
           d="m 0,0 c 0.508,-0.062 0.611,-0.424 0.612,-0.847 0.006,-2.144 -0.018,-4.289 0.02,-6.432 0.015,-0.878 -0.244,-1.297 -1.203,-1.303 -5.235,-0.031 -10.47,-0.107 -15.704,-0.167 0.262,0.842 0.975,1.272 1.666,1.634 C -9.81,-4.6 -5.104,-1.889 0,0"
           style="fill:#fe3502;fill-opacity:1;fill-rule:evenodd;stroke:none"
           id="path170" />
      </g>
      <g
         id="g172"
         transform="matrix(0.35277777,0,0,-0.35277777,67.84785,453.53903)">
        <path
           d="m 0,0 c -0.819,-0.923 -1.998,-1.257 -3.035,-1.81 -4.396,-2.344 -8.944,-4.398 -13.238,-6.94 -0.269,0.049 -0.457,0.235 -0.456,0.474 0.013,2.939 -0.315,5.885 0.157,8.817 2.888,-0.293 5.774,-0.448 8.654,0.094 C -6.827,0.71 -5.702,0.976 -4.775,0.1 -3.183,0.066 -1.591,0.033 0,0"
           style="fill:#6c4396;fill-opacity:1;fill-rule:evenodd;stroke:none"
           id="path174" />
      </g>
      <g
         id="g176"
         transform="matrix(0.35277777,0,0,-0.35277777,64.071682,450.6629)">
        <path
           d="m 0,0 c -1.486,0.274 -2.99,0.184 -4.483,0.146 -1.169,-0.03 -1.804,0.308 -1.684,1.592 0.217,2.316 -0.404,4.676 0.361,6.964 1.149,-1.197 0.735,-2.707 0.77,-4.101 0.083,-3.248 0.096,-3.295 3.414,-3.293 0.319,0 0.641,0.028 0.956,-0.001 C 1.101,1.142 1.719,1.979 1.745,3.696 1.771,5.402 1.233,7.232 2.47,8.778 7.891,8.864 11.505,5.285 11.073,0.257 9.958,-1 8.452,-0.554 7.084,-0.613 5.751,-0.67 4.411,-0.689 3.076,-0.58 2.02,-0.552 0.918,-0.757 0,0"
           style="fill:#f79722;fill-opacity:1;fill-rule:evenodd;stroke:none"
           id="path178" />
      </g>
      <g
         id="g180"
         transform="matrix(0.35277777,0,0,-0.35277777,64.943113,447.56611)">
        <path
           d="m 0,0 c -0.007,-2.231 -0.043,-4.462 -0.007,-6.693 0.018,-1.118 -0.411,-1.571 -1.551,-1.527 -1.751,0.068 -3.506,0.056 -5.258,0.021 -1.034,-0.021 -1.408,0.433 -1.402,1.433 0.014,2.23 -0.034,4.46 -0.058,6.69 C -5.521,0.281 -2.761,0.15 0,0"
           style="fill:#ff3503;fill-opacity:1;fill-rule:evenodd;stroke:none"
           id="path182" />
      </g>
      <g
         id="g184"
         transform="matrix(0.35277777,0,0,-0.35277777,64.071682,450.6629)">
        <path
           d="M 0,0 C 0.891,0.031 1.775,0.275 2.674,0.089 4.341,-2.613 4.073,-5.336 2.767,-8.072 0.172,-8.895 -2.485,-8.364 -5.113,-8.418 -5.538,-8.427 -5.693,-7.955 -5.868,-7.61 -5.584,-3.786 -3.515,-1.335 0,0"
           style="fill:#0d6668;fill-opacity:1;fill-rule:evenodd;stroke:none"
           id="path186" />
      </g>
      <g
         id="g188"
         transform="matrix(0.35277777,0,0,-0.35277777,65.047677,453.51045)">
        <path
           d="M 0,0 C 0.007,2.721 0.174,5.443 -0.092,8.161 2.701,8.502 5.507,8.225 8.306,8.329 8.658,5.26 7.316,2.959 4.993,1.133 4.435,0.696 3.777,0.387 3.164,0.019 2.108,0.013 1.054,0.006 0,0"
           style="fill:#0167ff;fill-opacity:1;fill-rule:evenodd;stroke:none"
           id="path190" />
      </g>
    </g>
  </g>
</svg>
