<?xml version="1.0" encoding="UTF-8" standalone="no"?>
<svg
   xmlns:dc="http://purl.org/dc/elements/1.1/"
   xmlns:cc="http://creativecommons.org/ns#"
   xmlns:rdf="http://www.w3.org/1999/02/22-rdf-syntax-ns#"
   xmlns:svg="http://www.w3.org/2000/svg"
   xmlns="http://www.w3.org/2000/svg"
   xmlns:sodipodi="http://sodipodi.sourceforge.net/DTD/sodipodi-0.dtd"
   xmlns:inkscape="http://www.inkscape.org/namespaces/inkscape"
   width="15.497321mm"
   height="15.488745mm"
   viewBox="0 0 15.497321 15.488745"
   version="1.1"
   id="svg5323"
   inkscape:version="1.0.2 (1.0.2+r75+1)"
   sodipodi:docname="3.svg">
  <defs
     id="defs5317" />
  <sodipodi:namedview
     id="base"
     pagecolor="#ffffff"
     bordercolor="#666666"
     borderopacity="1.0"
     inkscape:pageopacity="0.0"
     inkscape:pageshadow="2"
     inkscape:zoom="0.7"
     inkscape:cx="115.86135"
     inkscape:cy="-88.846251"
     inkscape:document-units="mm"
     inkscape:current-layer="layer1"
     inkscape:document-rotation="0"
     showgrid="false"
     fit-margin-top="0"
     fit-margin-left="0"
     fit-margin-right="0"
     fit-margin-bottom="0"
     inkscape:window-width="1514"
     inkscape:window-height="842"
     inkscape:window-x="210"
     inkscape:window-y="112"
     inkscape:window-maximized="0" />
  <metadata
     id="metadata5320">
    <rdf:RDF>
      <cc:Work
         rdf:about="">
        <dc:format>image/svg+xml</dc:format>
        <dc:type
           rdf:resource="http://purl.org/dc/dcmitype/StillImage" />
        <dc:title></dc:title>
      </cc:Work>
    </rdf:RDF>
  </metadata>
  <g
     inkscape:label="Layer 1"
     inkscape:groupmode="layer"
     id="layer1"
     transform="translate(-34.739419,-397.26249)">
    <g
       id="g7254"
       transform="translate(-58.019196,-48.196109)">
      <g
         id="g148"
         transform="matrix(0.35277777,0,0,-0.35277777,103.49301,451.53217)">
        <path
           d="m 0,0 c 0.071,-0.117 0.08,-0.238 0.027,-0.364 -2.768,-1.085 -5.535,-1.097 -8.302,0.009 -2.38,0.039 -4.762,0.127 -7.142,0.097 -1.195,-0.015 -1.75,0.348 -1.703,1.621 0.068,1.825 0.057,3.655 0.002,5.481 -0.033,1.081 0.285,1.619 1.47,1.578 2.378,-0.085 4.76,-0.084 7.141,-0.118 C -7.621,7.11 -7.896,5.717 -7.875,4.391 -7.822,0.893 -7.841,0.938 -4.254,0.853 -2.808,0.818 -1.206,1.324 0,0"
           style="fill:#6c4497;fill-opacity:1;fill-rule:evenodd;stroke:none"
           id="path150" />
      </g>
      <g
         id="g152"
         transform="matrix(0.35277777,0,0,-0.35277777,100.48456,457.77503)">
        <path
           d="M 0,0 C -2.456,-0.376 -4.927,-0.092 -7.389,-0.169 -8.156,-0.193 -8.577,0.116 -8.57,0.948 -8.551,3.1 -8.547,5.252 -8.572,7.404 -8.583,8.38 -8.055,8.602 -7.21,8.598 -4.819,8.587 -2.428,8.613 -0.037,8.625 0.056,8.518 0.15,8.411 0.246,8.305 0.748,5.52 1.07,2.739 0,0"
           style="fill:#ff3604;fill-opacity:1;fill-rule:evenodd;stroke:none"
           id="path154" />
      </g>
      <g
         id="g156"
         transform="matrix(0.35277777,0,0,-0.35277777,100.57381,451.65758)">
        <path
           d="M 0,0 C 2.768,-0.003 5.535,-0.006 8.302,-0.009 8.355,-0.066 8.448,-0.12 8.455,-0.183 8.613,-1.719 7.521,-3.067 7.583,-4.466 7.646,-5.878 8.631,-7.223 8.417,-8.77 c -2.828,-1 -5.678,-0.769 -8.535,-0.155 -0.081,0.05 -0.138,0.12 -0.172,0.209 0.036,2.126 0.061,4.253 0.113,6.378 C -0.158,-1.557 -0.322,-0.759 0,0"
           style="fill:#0167ff;fill-opacity:1;fill-rule:evenodd;stroke:none"
           id="path158" />
      </g>
      <g
         id="g160"
         transform="matrix(0.35277777,0,0,-0.35277777,100.53229,454.80605)">
        <path
           d="M 0,0 C 2.837,0.432 5.689,0.134 8.534,0.156 8.642,-5.166 5.111,-8.657 -0.135,-8.416 -0.09,-5.611 -0.045,-2.805 0,0"
           style="fill:#0d6667;fill-opacity:1;fill-rule:evenodd;stroke:none"
           id="path162" />
      </g>
      <g
         id="g164"
         transform="matrix(0.35277777,0,0,-0.35277777,103.49301,451.53217)">
        <path
           d="m 0,0 c -2.291,0.009 -4.583,0.063 -6.873,0.007 -1.234,-0.03 -1.68,0.437 -1.645,1.661 0.062,2.21 0.013,4.424 0.011,6.636 C -3.252,8.486 0.5,4.823 0,0"
           style="fill:#f69823;fill-opacity:1;fill-rule:evenodd;stroke:none"
           id="path166" />
      </g>
    </g>
  </g>
</svg>
