<?xml version="1.0" encoding="UTF-8" standalone="no"?>
<svg
   xmlns:dc="http://purl.org/dc/elements/1.1/"
   xmlns:cc="http://creativecommons.org/ns#"
   xmlns:rdf="http://www.w3.org/1999/02/22-rdf-syntax-ns#"
   xmlns:svg="http://www.w3.org/2000/svg"
   xmlns="http://www.w3.org/2000/svg"
   xmlns:sodipodi="http://sodipodi.sourceforge.net/DTD/sodipodi-0.dtd"
   xmlns:inkscape="http://www.inkscape.org/namespaces/inkscape"
   width="15.497321mm"
   height="15.488745mm"
   viewBox="0 0 15.497321 15.488745"
   version="1.1"
   id="svg5323"
   inkscape:version="1.0.2 (1.0.2+r75+1)"
   sodipodi:docname="4.svg">
  <defs
     id="defs5317" />
  <sodipodi:namedview
     id="base"
     pagecolor="#ffffff"
     bordercolor="#666666"
     borderopacity="1.0"
     inkscape:pageopacity="0.0"
     inkscape:pageshadow="2"
     inkscape:zoom="0.7"
     inkscape:cx="115.86135"
     inkscape:cy="-88.846251"
     inkscape:document-units="mm"
     inkscape:current-layer="layer1"
     inkscape:document-rotation="0"
     showgrid="false"
     fit-margin-top="0"
     fit-margin-left="0"
     fit-margin-right="0"
     fit-margin-bottom="0"
     inkscape:window-width="1514"
     inkscape:window-height="842"
     inkscape:window-x="210"
     inkscape:window-y="112"
     inkscape:window-maximized="0" />
  <metadata
     id="metadata5320">
    <rdf:RDF>
      <cc:Work
         rdf:about="">
        <dc:format>image/svg+xml</dc:format>
        <dc:type
           rdf:resource="http://purl.org/dc/dcmitype/StillImage" />
        <dc:title></dc:title>
      </cc:Work>
    </rdf:RDF>
  </metadata>
  <g
     inkscape:label="Layer 1"
     inkscape:groupmode="layer"
     id="layer1"
     transform="translate(-34.739419,-397.26249)">
    <g
       id="g7328"
       transform="translate(-37.608482,-50.463968)">
      <g
         id="g192"
         transform="matrix(0.35277777,0,0,-0.35277777,81.12949,453.90074)">
        <path
           d="M 0,0 C -0.374,2.461 -0.09,4.938 -0.167,7.406 -0.195,8.327 0.258,8.667 1.149,8.654 3.225,8.626 5.303,8.609 7.377,8.661 8.492,8.688 8.709,8.117 8.685,7.175 8.623,4.784 8.604,2.39 8.569,-0.002 5.712,-1.025 2.856,-1.025 0,0"
           style="fill:#6d4497;fill-opacity:1;fill-rule:evenodd;stroke:none"
           id="path194" />
      </g>
      <g
         id="g196"
         transform="matrix(0.35277777,0,0,-0.35277777,76.072773,453.91919)">
        <path
           d="M 0,0 C -0.468,2.53 -0.112,5.082 -0.205,7.622 -0.234,8.423 0.15,8.743 0.955,8.732 3.11,8.703 5.265,8.694 7.42,8.733 8.398,8.752 8.645,8.276 8.612,7.413 8.518,4.946 8.773,2.471 8.461,0.008 5.642,-0.98 2.821,-0.98 0,0"
           style="fill:#ff3502;fill-opacity:1;fill-rule:evenodd;stroke:none"
           id="path198" />
      </g>
      <g
         id="g200"
         transform="matrix(0.35277777,0,0,-0.35277777,76.072773,453.91919)">
        <path
           d="M 0,0 C 2.82,0.003 5.641,0.005 8.461,0.008 8.541,-0.944 8.62,-1.895 8.7,-2.846 9.524,-4.838 10.176,-6.817 8.292,-8.618 5.921,-8.637 3.55,-8.646 1.179,-8.682 0.376,-8.694 -0.253,-8.568 -0.21,-7.559 -0.104,-5.04 -0.472,-2.508 0,0"
           style="fill:#0d6767;fill-opacity:1;fill-rule:evenodd;stroke:none"
           id="path202" />
      </g>
      <g
         id="g204"
         transform="matrix(0.35277777,0,0,-0.35277777,81.12949,453.90074)">
        <path
           d="m 0,0 c 2.856,0 5.712,-0.001 8.569,-0.002 0.06,-2.912 0.412,-5.831 -0.197,-8.727 -2.373,-0.962 -4.83,-0.474 -7.254,-0.379 -1.004,0.039 -1.522,0.81 -1.612,1.762 -0.14,1.484 -0.418,2.984 0.178,4.443 C -0.211,-1.936 -0.105,-0.968 0,0"
           style="fill:#f79821;fill-opacity:1;fill-rule:evenodd;stroke:none"
           id="path206" />
      </g>
      <g
         id="g208"
         transform="matrix(0.35277777,0,0,-0.35277777,84.06386,457.09726)">
        <path
           d="m 0,0 c 0.741,-2.548 0.23,-5.148 0.311,-7.724 0.014,-0.461 -0.383,-0.715 -0.799,-0.699 -2.568,0.1 -5.166,-0.459 -7.702,0.336 -0.539,2.357 -0.115,4.747 -0.248,7.117 -0.042,0.759 0.241,1.236 1.075,1.198 C -4.91,0.116 -2.441,0.51 0,0"
           style="fill:#0468fe;fill-opacity:1;fill-rule:evenodd;stroke:none"
           id="path210" />
      </g>
      <g
         id="g212"
         transform="matrix(0.35277777,0,0,-0.35277777,84.06386,457.09726)">
        <path
           d="m 0,0 c -1.838,-0.001 -3.677,0 -5.516,-0.005 -2.671,-0.008 -2.676,-0.011 -2.684,-2.566 -0.006,-1.839 0.006,-3.677 0.01,-5.516 -0.631,2.018 -0.197,4.088 -0.286,6.131 -0.091,2.086 -0.045,2.055 -2.105,2.132 -1.26,0.047 -2.544,-0.255 -3.78,0.215 0.719,1.883 0.124,3.859 0.409,5.772 1.773,-0.002 3.545,-0.004 5.318,-0.005 0.42,-1.476 0.176,-2.985 0.189,-4.476 C -8.437,0.663 -8.071,0.29 -7.056,0.311 -4.687,0.359 -2.318,0.33 0.053,0.332 0.052,0.219 0.034,0.108 0,0"
           style="fill:#096afc;fill-opacity:1;fill-rule:evenodd;stroke:none"
           id="path214" />
      </g>
    </g>
  </g>
</svg>
