<svg xmlns="http://www.w3.org/2000/svg" viewBox="0 0 130.42 119.57"><defs><style>.cls-1{fill:#69e9bf;}</style></defs><g id="Capa_2" data-name="Capa 2"><g id="Capa_1-2" data-name="Capa 1"><path class="cls-1" d="M101.46,37.48c13.39,16.41,29.83,30.79,28.92,43.82S111.21,106,93,112.89s-36.4,9.15-54.11,3.35S3.9,96.57.6,80.1,8,44.59,21.42,28.15,51.08-2.07,64.38.26,88.07,21,101.46,37.48Z"/><path d="M67.13,11.35a48.44,48.44,0,1,0,48.44,48.43A48.49,48.49,0,0,0,67.13,11.35Zm0,3.12A45.31,45.31,0,0,1,111.76,67.6H87.44V62.91h4.62A7.89,7.89,0,0,0,99.94,55a8,8,0,0,0-.83-3.53l-.39-.78.66-.66a12.61,12.61,0,0,0-8.92-21.53H81.31a12.61,12.61,0,0,0-8.92,21.53l.65.66-.39.78A8,8,0,0,0,71.82,55a7.89,7.89,0,0,0,7.88,7.88h4.62V67.6H56.19V51.24l7.29-4.85a4.69,4.69,0,0,0,2.09-3.9V30.1H62.44V42.49a1.57,1.57,0,0,1-.69,1.3l-5.56,3.7V33.59a4.67,4.67,0,0,0-1.43-3.37L57,29.11a4.22,4.22,0,0,0,2.35-3.8V23.85H56.19v1.46a1.14,1.14,0,0,1-.62,1l-4.06,2-3.83-1.91a1.57,1.57,0,0,1-.86-1.4V23.85H43.69V25a4.67,4.67,0,0,0,2.59,4.19l5.92,3a1.55,1.55,0,0,1,.87,1.4V54.13l-6.79-3.39a4.68,4.68,0,0,1-2.59-4.19V36.35H40.57v3.33l-2.26-1.51-1.73,2.6,4,2.66v3.12a7.76,7.76,0,0,0,4.32,7l8.18,4.09v10H22.51a44.77,44.77,0,0,1-.69-7.82A45.37,45.37,0,0,1,67.13,14.47Zm25,59.38H76.51a1.57,1.57,0,1,1,0-3.13H111.1a45.18,45.18,0,0,1-7.29,15.63H89a1.57,1.57,0,1,1,0-3.13h3.12a4.69,4.69,0,1,0,0-9.37Zm-4.69-18,5.63-4.22-1.88-2.5L87.44,52V43.24l2.67-2.66L87.9,38.37,84.32,42V45.6l-5.27-4.22-2,2.44,7.23,5.78V59.78H79.7a4.74,4.74,0,0,1-4.25-6.88l1.4-2.8L74.6,47.85a9.38,9.38,0,0,1-2.78-6.71,9.49,9.49,0,0,1,9.48-9.48h9.16a9.49,9.49,0,0,1,6.71,16.19L94.92,50.1l1.4,2.8a4.76,4.76,0,0,1-4.26,6.88H87.44ZM23.16,70.72H53.07a1.57,1.57,0,0,1,0,3.13H45.26a4.69,4.69,0,1,0,0,9.37H59.32a3.13,3.13,0,0,1,0,6.25H48.38a4.69,4.69,0,0,0,0,9.38h4.69a1.56,1.56,0,0,1,0,3.12H50.63A45.48,45.48,0,0,1,23.16,70.72ZM68.69,102a3.13,3.13,0,0,1,3.13-3.12h6.54a4.67,4.67,0,0,0,4.4,3.12h.87a44.88,44.88,0,0,1-12.78,3A3.11,3.11,0,0,1,68.69,102Zm12.5-4.69a1.57,1.57,0,0,1,1.57-1.56H94.68a45.8,45.8,0,0,1-4.63,3.13H82.76A1.57,1.57,0,0,1,81.19,97.28ZM98.33,92.6H82.76a4.67,4.67,0,0,0-4.4,3.12H71.82a6.25,6.25,0,0,0-5.42,9.36,45.34,45.34,0,0,1-10.09-1.3,4.68,4.68,0,0,0-3.24-8.06H48.38a1.56,1.56,0,1,1,0-3.12H59.32a6.25,6.25,0,0,0,0-12.5H45.26a1.57,1.57,0,1,1,0-3.13h7.81a4.7,4.7,0,0,0,4.69-4.69,4.74,4.74,0,0,0-.29-1.56H72.11a4.5,4.5,0,0,0-.29,1.56A4.69,4.69,0,0,0,76.51,77H92.13a1.57,1.57,0,0,1,0,3.13H89a4.69,4.69,0,1,0,0,9.37h12.31C100.37,90.56,99.38,91.6,98.33,92.6Z"/></g></g></svg>