<?xml version="1.0" encoding="UTF-8" standalone="no"?>
<svg
   xmlns:dc="http://purl.org/dc/elements/1.1/"
   xmlns:cc="http://creativecommons.org/ns#"
   xmlns:rdf="http://www.w3.org/1999/02/22-rdf-syntax-ns#"
   xmlns:svg="http://www.w3.org/2000/svg"
   xmlns="http://www.w3.org/2000/svg"
   xmlns:sodipodi="http://sodipodi.sourceforge.net/DTD/sodipodi-0.dtd"
   xmlns:inkscape="http://www.inkscape.org/namespaces/inkscape"
   width="15.52334mm"
   height="15.488749mm"
   viewBox="0 0 15.52334 15.488749"
   version="1.1"
   id="svg5323"
   inkscape:version="1.0.2 (1.0.2+r75+1)"
   sodipodi:docname="clima.svg">
  <defs
     id="defs5317" />
  <sodipodi:namedview
     id="base"
     pagecolor="#ffffff"
     bordercolor="#666666"
     borderopacity="1.0"
     inkscape:pageopacity="0.0"
     inkscape:pageshadow="2"
     inkscape:zoom="0.35"
     inkscape:cx="709.33546"
     inkscape:cy="-153.58706"
     inkscape:document-units="mm"
     inkscape:current-layer="layer1"
     inkscape:document-rotation="0"
     showgrid="false"
     fit-margin-top="0"
     fit-margin-left="0"
     fit-margin-right="0"
     fit-margin-bottom="0"
     inkscape:window-width="1848"
     inkscape:window-height="1136"
     inkscape:window-x="72"
     inkscape:window-y="27"
     inkscape:window-maximized="1" />
  <metadata
     id="metadata5320">
    <rdf:RDF>
      <cc:Work
         rdf:about="">
        <dc:format>image/svg+xml</dc:format>
        <dc:type
           rdf:resource="http://purl.org/dc/dcmitype/StillImage" />
        <dc:title></dc:title>
      </cc:Work>
    </rdf:RDF>
  </metadata>
  <g
     inkscape:label="Layer 1"
     inkscape:groupmode="layer"
     id="layer1"
     transform="translate(81.845008,-188.80324)">
    <g
       id="g76"
       transform="matrix(0.35277777,0,0,-0.35277777,-74.113177,188.80327)">
      <path
         d="m 0,0 c 12.207,0.032 22.041,-9.674 22.086,-21.8 0.047,-12.274 -9.775,-22.127 -22.037,-22.105 -12.168,0.021 -21.96,9.8 -21.966,21.935 C -21.922,-9.803 -12.175,-0.032 0,0"
         style="fill:#343434;fill-opacity:1;fill-rule:evenodd;stroke:none"
         id="path78" />
    </g>
    <g
       id="g128"
       transform="matrix(0.35277777,0,0,-0.35277777,-74.036518,189.50022)">
      <path
         d="M 0,0 C 11.002,-0.046 19.971,-9.112 19.886,-20.103 19.8,-31.116 10.771,-40.01 -0.265,-39.951 c -11.004,0.06 -19.966,9.122 -19.89,20.113 C -20.08,-8.833 -11.059,0.046 0,0"
         style="fill:#ffffff;fill-opacity:1;fill-rule:evenodd;stroke:none"
         id="path130" />
    </g>
    <g
       id="g476"
       transform="matrix(0.35277777,0,0,-0.35277777,-69.8337,195.73758)">
      <path
         d="m 0,0 c -0.784,3.916 -3.352,6.187 -6.913,7.587 -0.623,0.245 -1.972,0.073 -1.491,1.289 0.425,1.073 1.445,0.268 2.104,0.062 5.104,-1.597 8.445,-6.586 8.24,-12.183 -0.193,-5.31 -4.042,-10.036 -9.18,-11.272 -3.711,-0.893 -7.16,-0.301 -10.24,1.966 -0.885,0.652 -1.658,1.013 -2.808,0.821 -2.022,-0.34 -3.623,0.507 -4.592,2.313 -0.977,1.819 -0.727,3.618 0.657,5.103 0.692,0.741 0.806,1.488 0.801,2.385 -0.017,2.96 -0.011,5.921 -0.003,8.881 0.001,0.638 -0.028,1.289 0.081,1.913 0.247,1.401 1.152,2.179 2.434,2.201 1.289,0.022 2.209,-0.744 2.536,-2.098 0.145,-0.6 -0.14,-1.265 0.367,-1.951 1.535,0.974 3.112,1.898 4.917,2.307 2.384,0.542 2.984,0.179 3.422,-2.241 0.814,-4.495 -0.338,-8.392 -3.651,-11.593 -0.344,-0.331 -0.734,-0.617 -1.12,-0.9 -0.418,-0.305 -0.893,-0.468 -1.249,0.044 -0.363,0.523 0.018,0.886 0.409,1.191 2.592,2.024 4.138,4.619 4.322,7.948 0.031,0.556 0.019,1.119 -0.025,1.675 -0.219,2.764 -0.503,2.976 -3.012,2.019 -0.886,-0.338 -1.717,-0.845 -2.529,-1.347 -1.315,-0.812 -2.053,-1.897 -1.83,-3.578 0.157,-1.18 0.066,-2.398 0.021,-3.596 -0.051,-1.382 0.132,-2.569 1.145,-3.714 1.137,-1.283 1.269,-3.013 0.353,-4.489 -0.797,-1.283 -0.295,-1.863 0.749,-2.427 0.28,-0.152 0.548,-0.327 0.832,-0.474 1.738,-0.901 1.808,-0.884 2.753,0.789 0.59,1.043 1.128,2.117 1.749,3.14 1.001,1.649 2.346,2.824 4.389,2.937 0.576,0.032 1.156,0.096 1.285,0.808 0.471,2.595 2.39,2.905 4.522,2.892 C 0.564,-2.346 0.391,-3.101 -0.769,-3.431 -2.095,-3.808 -2.768,-4.565 -3.1,-5.849 -3.342,-6.784 -4.078,-7.356 -5.045,-7.371 -8.491,-7.424 -9.394,-9.997 -10.541,-12.569 -3.848,-12.775 0.805,-7.102 0,0"
         style="fill:#353535;fill-opacity:1;fill-rule:evenodd;stroke:none"
         id="path478" />
    </g>
    <g
       id="g480"
       transform="matrix(0.35277777,0,0,-0.35277777,-69.8337,195.73758)">
      <path
         d="m 0,0 c 2.343,-6.792 -4.187,-14.468 -11.564,-13.173 0.625,1.83 1.578,3.449 2.688,4.97 0.877,1.202 2.175,1.538 3.61,1.456 0.87,-0.049 1.478,0.084 1.655,1.201 0.329,2.063 0.407,2.097 2.469,2.406 1.263,0.19 1.295,0.689 0.586,1.548 C 0.05,-1.208 -0.075,-0.569 0,0"
         style="fill:#fdfdfd;fill-opacity:1;fill-rule:evenodd;stroke:none"
         id="path482" />
    </g>
    <g
       id="g796"
       transform="matrix(0.35277777,0,0,-0.35277777,-76.81743,194.92489)">
      <path
         d="m 0,0 c 0,-1.437 0.024,-2.875 -0.007,-4.312 -0.029,-1.289 0.058,-2.373 1.194,-3.393 1.324,-1.188 1.025,-3.085 -0.297,-4.218 -1.113,-0.952 -2.847,-0.94 -3.953,0.028 -1.318,1.152 -1.588,2.998 -0.244,4.217 1.127,1.024 1.217,2.108 1.203,3.405 -0.028,2.954 -0.009,5.908 -0.007,8.862 0.001,0.479 -0.002,0.96 0.032,1.437 0.042,0.59 0.214,1.146 0.921,1.188 0.826,0.05 1.125,-0.519 1.134,-1.226 C 0.001,3.993 -0.015,1.996 -0.015,0 Z"
         style="fill:#f7f8f8;fill-opacity:1;fill-rule:evenodd;stroke:none"
         id="path798" />
    </g>
    <g
       id="g856"
       transform="matrix(0.35277777,0,0,-0.35277777,-77.301617,198.65452)">
      <path
         d="M 0,0 C -0.617,0.111 -0.964,0.531 -0.858,1.157 -0.772,1.659 -0.364,1.954 0.188,1.92 0.913,1.875 1.145,1.396 1.046,0.777 0.965,0.264 0.615,-0.055 0,0"
         style="fill:#484444;fill-opacity:1;fill-rule:evenodd;stroke:none"
         id="path858" />
    </g>
  </g>
</svg>
