<?xml version="1.0" encoding="UTF-8" standalone="no"?>
<svg
   xmlns:dc="http://purl.org/dc/elements/1.1/"
   xmlns:cc="http://creativecommons.org/ns#"
   xmlns:rdf="http://www.w3.org/1999/02/22-rdf-syntax-ns#"
   xmlns:svg="http://www.w3.org/2000/svg"
   xmlns="http://www.w3.org/2000/svg"
   xmlns:sodipodi="http://sodipodi.sourceforge.net/DTD/sodipodi-0.dtd"
   xmlns:inkscape="http://www.inkscape.org/namespaces/inkscape"
   width="15.508989mm"
   height="15.495497mm"
   viewBox="0 0 15.508989 15.495497"
   version="1.1"
   id="svg5323"
   inkscape:version="1.0.2 (1.0.2+r75+1)"
   sodipodi:docname="digital.svg">
  <defs
     id="defs5317" />
  <sodipodi:namedview
     id="base"
     pagecolor="#ffffff"
     bordercolor="#666666"
     borderopacity="1.0"
     inkscape:pageopacity="0.0"
     inkscape:pageshadow="2"
     inkscape:zoom="0.7"
     inkscape:cx="-268.91962"
     inkscape:cy="71.109655"
     inkscape:document-units="mm"
     inkscape:current-layer="layer1"
     inkscape:document-rotation="0"
     showgrid="false"
     fit-margin-top="0"
     fit-margin-left="0"
     fit-margin-right="0"
     fit-margin-bottom="0"
     inkscape:window-width="1514"
     inkscape:window-height="842"
     inkscape:window-x="287"
     inkscape:window-y="173"
     inkscape:window-maximized="0" />
  <metadata
     id="metadata5320">
    <rdf:RDF>
      <cc:Work
         rdf:about="">
        <dc:format>image/svg+xml</dc:format>
        <dc:type
           rdf:resource="http://purl.org/dc/dcmitype/StillImage" />
        <dc:title></dc:title>
      </cc:Work>
    </rdf:RDF>
  </metadata>
  <g
     inkscape:label="Layer 1"
     inkscape:groupmode="layer"
     id="layer1"
     transform="translate(-0.91069871,-321.09615)">
    <g
       id="g68"
       transform="matrix(0.35277777,0,0,-0.35277777,8.7044237,336.59156)">
      <path
         d="M 0,0 C -12.08,-0.056 -21.879,9.629 -22.089,21.558 -22.307,33.927 -12.161,43.93 -0.323,43.924 12.024,43.917 21.847,34.291 21.87,22.002 21.893,9.819 12.189,0.057 0,0"
         style="fill:#343434;fill-opacity:1;fill-rule:evenodd;stroke:none"
         id="path70" />
    </g>
    <g
       id="g120"
       transform="matrix(0.35277777,0,0,-0.35277777,15.703147,328.82011)">
      <path
         d="m 0,0 c 0.018,-11.115 -8.808,-20.019 -19.874,-20.05 -11.033,-0.031 -20.042,8.908 -20.065,19.91 -0.024,11.037 8.904,20.017 19.926,20.04 C -8.922,19.924 -0.018,11.069 0,0"
         style="fill:#ffffff;fill-opacity:1;fill-rule:evenodd;stroke:none"
         id="path122" />
    </g>
    <g
       id="g340"
       transform="matrix(0.35277777,0,0,-0.35277777,4.8094044,331.46249)">
      <path
         d="M 0,0 C 0.186,1.497 0.846,3.042 -0.454,4.385 -0.596,4.629 -0.553,4.835 -0.327,5.003 1.093,5.714 2.652,5.19 4.114,5.504 4.582,5.69 5.007,5.951 5.375,6.301 5.51,6.441 5.655,6.572 5.799,6.703 5.87,6.771 5.945,6.834 6.017,6.902 6.163,7.04 6.322,7.159 6.49,7.27 6.67,7.372 6.863,7.432 7.07,7.452 7.406,7.422 7.664,7.278 7.796,6.951 7.803,6.488 7.569,6.131 7.294,5.791 7.149,5.609 6.977,5.45 6.83,5.27 5.355,3.47 5.428,3.302 7.867,2.853 8.314,2.728 8.713,2.548 8.793,2.017 8.169,0.748 8.771,0.097 9.951,-0.242 c 1.761,-0.507 3.248,0.111 4.62,1.166 0.293,0.189 0.61,0.303 0.96,0.314 0.238,-0.012 0.471,-0.054 0.699,-0.124 4.174,-1.266 5.725,-0.293 6.795,4.27 0.19,0.436 0.307,0.961 0.977,0.824 0.915,-2.324 -0.051,-4.175 -1.599,-6.012 0.472,-0.578 1.46,-0.043 1.8,-0.775 0.285,-0.612 0.212,-1.258 0.127,-1.877 -0.206,-1.476 -0.833,-2.07 -2.667,-2.127 -3.426,-0.107 -6.856,-0.058 -10.285,-0.087 -2.31,-0.02 -4.62,-0.063 -6.931,-0.096 -0.957,0.458 -0.718,0.918 0.04,1.286 0.735,0.356 1.554,0.309 2.348,0.312 3.979,0.014 7.96,0.019 11.94,-0.004 0.717,-0.004 1.435,-0.025 2.146,0.047 0.552,0.055 1.27,0.16 1.258,0.831 -0.014,0.785 -0.802,0.626 -1.306,0.617 -2.295,-0.042 -4.585,0.154 -6.848,-0.642 -1.739,-0.612 -3.666,-0.588 -5.42,-0.02 -2.894,0.938 -5.801,0.724 -8.73,0.511 -0.576,-0.179 -1.032,-0.725 -1.72,-0.578 -0.142,0.475 -0.138,0.951 -0.004,1.428 C -1.564,-0.026 -0.519,-0.511 0,0"
         style="fill:#3b3b3b;fill-opacity:1;fill-rule:evenodd;stroke:none"
         id="path342" />
    </g>
    <g
       id="g344"
       transform="matrix(0.35277777,0,0,-0.35277777,4.4571558,331.97927)">
      <path
         d="m 0,0 c 0.412,0.521 1.001,0.415 1.547,0.418 1.919,0.011 3.837,0.007 5.756,0.001 0.398,-0.001 0.944,0.129 1.171,-0.078 1.505,-1.366 3.311,-0.694 4.989,-0.823 0.694,-0.054 1.44,-0.154 1.963,0.565 0.321,0.441 0.865,0.332 1.332,0.334 2.078,0.009 4.157,0.006 6.235,0.003 0.647,-0.001 1.36,0.041 1.444,-0.85 0.075,-0.805 -0.27,-1.439 -1.103,-1.604 C 22.637,-2.173 21.912,-2.22 21.199,-2.222 16.562,-2.238 11.926,-2.228 7.29,-2.233 6.652,-2.234 5.973,-2.138 5.387,-2.323 4.513,-2.598 5.196,-2.98 5.446,-3.301 4.862,-3.438 4.409,-3.099 3.923,-2.882 3.693,-2.654 3.39,-2.631 3.093,-2.591 2.386,-2.44 1.658,-2.469 0.948,-2.332 0.735,-2.277 0.537,-2.191 0.349,-2.077 0.078,-1.871 -0.125,-1.616 -0.221,-1.285 -0.204,-0.847 -0.224,-0.402 0,0"
         style="fill:#f6f7f7;fill-opacity:1;fill-rule:evenodd;stroke:none"
         id="path346" />
    </g>
    <g
       id="g348"
       transform="matrix(0.35277777,0,0,-0.35277777,13.085042,329.65246)">
      <path
         d="m 0,0 c -0.104,-0.624 -0.139,-1.269 -0.322,-1.869 -0.831,-2.724 -3.588,-4.071 -6.252,-3.067 -0.513,0.195 -0.983,0.505 -1.473,0.762 -0.92,0.309 -1.432,0.921 -1.43,1.917 0.06,0.496 0.203,0.936 0.758,1.088 1.063,-0.159 1.375,-1.214 2.104,-1.77 0.947,-0.723 2.037,-0.839 3.126,-0.479 0.955,0.315 0.742,1.043 0.398,1.73 -0.168,0.266 -0.327,0.536 -0.469,0.814 -0.263,0.646 -0.533,1.285 -1.289,1.515 -0.368,0.166 -0.717,0.367 -1.073,0.553 -0.77,0.459 -1.62,0.105 -2.423,0.237 -0.343,0.19 -0.463,0.492 -0.447,0.868 1.884,3.18 5.209,3.263 8.397,0.212 C -0.076,2.199 0.243,1.887 0.562,1.576 -0.052,1.202 -0.343,0.714 0,0"
         style="fill:#f3f5f5;fill-opacity:1;fill-rule:evenodd;stroke:none"
         id="path350" />
    </g>
    <g
       id="g352"
       transform="matrix(0.35277777,0,0,-0.35277777,9.8795618,330.48357)">
      <path
         d="M 0,0 C 0.057,-0.771 0.758,-1.174 1.039,-1.818 L 0.506,-2.328 C -2.002,-1.252 -2.877,2.324 -1.221,4.941 -0.394,6.25 0.701,7.287 2.258,7.7 2.943,7.784 3.636,7.756 4.207,7.757 3.069,7.939 1.792,7.479 0.532,7.854 0.174,8.018 -0.075,8.272 -0.167,8.666 -0.152,8.797 -0.136,8.925 -0.12,9.055 -0.038,9.159 0.045,9.26 0.129,9.362 0.39,9.429 0.653,9.454 0.921,9.437 3.059,9.614 5.238,9.048 7.341,9.815 8.293,9.451 7.938,8.747 7.789,8.095 7.419,6.832 8.482,5.968 8.692,4.867 7.937,4.645 7.569,5.273 7.062,5.603 4.635,7.178 2.447,6.804 0.477,4.481 0.465,2.972 -0.224,1.535 0,0"
         style="fill:#494444;fill-opacity:1;fill-rule:evenodd;stroke:none"
         id="path354" />
    </g>
    <g
       id="g356"
       transform="matrix(0.35277777,0,0,-0.35277777,7.3574124,329.26366)">
      <path
         d="M 0,0 C 0.139,0.293 0.278,0.586 0.417,0.879 0.509,0.936 0.601,0.992 0.692,1.049 1.412,1.194 1.7,-0.539 2.641,0.616 2.785,2.303 2.604,3.985 2.741,5.654 2.806,6.438 2.539,7.515 3.842,7.667 4.31,7.06 4.982,7.224 5.606,7.195 6.312,7.162 6.581,7.507 6.611,8.196 c 0.056,1.267 -0.194,2.551 0.186,3.802 0.112,0.163 0.243,0.308 0.397,0.432 l 0.084,0.117 0.139,-0.044 c 1.215,0.289 2.431,0.324 3.645,-0.009 l 0.002,10e-4 C 11.17,12.334 11.162,12.181 11.038,12.034 9.947,11.485 8.644,12.251 7.589,11.478 7.096,9.593 7.814,7.625 7.2,5.749 L 7.198,5.746 C 7.042,5.591 6.855,5.513 6.635,5.518 6.042,5.564 5.447,5.767 4.866,5.484 4.632,5.272 4.54,4.996 4.499,4.689 4.507,2.066 4.636,-0.55 3.627,-3.064 3.191,-4.151 2.786,-4.985 1.438,-4.266 1.175,-3.878 0.741,-3.864 0.347,-3.764 1.4,-2.401 -0.066,-1.271 0,0"
         style="fill:#4c4848;fill-opacity:1;fill-rule:evenodd;stroke:none"
         id="path358" />
    </g>
    <g
       id="g360"
       transform="matrix(0.35277777,0,0,-0.35277777,5.8251927,323.88486)">
      <path
         d="M 0,0 C 1.785,0.373 3.592,0.091 5.386,0.173 6.25,0.213 6.752,-0.158 6.674,-1.064 6.568,-2.293 6.986,-3.559 6.416,-4.753 6.239,-4.911 6.041,-4.956 5.816,-4.873 5.638,-4.734 5.508,-4.559 5.416,-4.354 5.194,-3.91 5.404,-3.296 4.86,-2.996 3.595,-3.754 2.393,-3.888 1.312,-2.69 1.059,-2.476 0.812,-2.254 0.561,-2.036 -0.073,-1.481 -0.498,-0.866 0,0"
         style="fill:#464040;fill-opacity:1;fill-rule:evenodd;stroke:none"
         id="path362" />
    </g>
    <g
       id="g364"
       transform="matrix(0.35277777,0,0,-0.35277777,12.105589,326.73135)">
      <path
         d="M 0,0 C -1.261,-0.028 -2.523,-0.041 -3.784,-0.088 -5.201,-0.142 -5.208,0.831 -5.258,1.83 -5.311,2.874 -5.036,3.437 -3.813,3.453 -2.549,3.471 -1.301,3.079 -0.038,3.355 0.831,2.247 0.824,1.128 0,0"
         style="fill:#4b4747;fill-opacity:1;fill-rule:evenodd;stroke:none"
         id="path366" />
    </g>
    <g
       id="g368"
       transform="matrix(0.35277777,0,0,-0.35277777,8.712714,326.55874)">
      <path
         d="m 0,0 c -0.823,-0.768 -0.375,-1.766 -0.477,-2.662 -0.206,-1.828 0.436,-3.724 -0.44,-5.5 -0.995,0.97 -0.672,2.227 -0.729,3.396 -0.074,1.507 0.256,3.036 -0.26,4.511 -1.552,1.137 -3.322,0.394 -4.983,0.55 -1.159,0.108 -2.338,0.054 -3.501,0 -0.202,-0.028 -0.404,-0.076 -0.593,-0.154 -0.158,-0.116 -0.316,-0.234 -0.461,-0.368 -0.126,-0.153 -0.262,-0.296 -0.401,-0.44 -0.313,-0.25 -0.621,-0.53 -1.067,-0.283 -0.133,0.328 -0.1,0.648 0.051,0.962 0.101,0.2 0.287,0.355 0.317,0.594 0.182,0.552 0.673,0.757 1.128,1.002 2.458,-0.111 4.849,0.69 7.317,0.513 0.88,-0.063 1.731,-0.164 2.553,-0.477 C -0.795,1.317 -0.046,0.989 0,0"
         style="fill:#4d4a4a;fill-opacity:1;fill-rule:evenodd;stroke:none"
         id="path370" />
    </g>
    <g
       id="g372"
       transform="matrix(0.35277777,0,0,-0.35277777,12.105589,326.73135)">
      <path
         d="M 0,0 C 0.165,1.12 0.195,2.239 -0.038,3.355 0.334,3.634 0.49,3.96 -0.017,4.212 -0.354,4.379 -0.776,4.378 -0.989,4.763 -0.083,5.433 0.697,5.401 1.299,4.358 1.356,2.576 1.782,0.77 0.971,-0.96 0.186,-1.75 -0.801,-1.321 -1.695,-1.366 c -1.32,-0.065 -2.645,-0.011 -3.968,-0.009 -0.332,0.12 -0.343,0.264 -0.033,0.434 1.707,0.003 3.416,-0.011 5.123,0.018 C 0.013,-0.913 0.644,-0.824 0,0"
         style="fill:#e9eaea;fill-opacity:1;fill-rule:evenodd;stroke:none"
         id="path374" />
    </g>
    <g
       id="g376"
       transform="matrix(0.35277777,0,0,-0.35277777,8.1673549,325.97895)">
      <path
         d="M 0,0 C -3.291,-0.012 -6.582,-0.024 -9.872,-0.036 -9.353,0.453 -8.708,0.24 -8.111,0.276 -7.58,0.31 -7.02,0.21 -6.633,0.717 -4.55,1.891 -2.46,1.668 -0.367,0.748 -0.245,0.499 -0.123,0.249 0,0"
         style="fill:#d8ffff;fill-opacity:1;fill-rule:evenodd;stroke:none"
         id="path378" />
    </g>
    <g
       id="g380"
       transform="matrix(0.35277777,0,0,-0.35277777,8.0378149,325.71503)">
      <path
         d="m 0,0 c -2.088,-0.011 -4.177,-0.021 -6.266,-0.031 -0.689,1.73 -0.691,3.617 -0.006,5.219 -0.135,-0.842 0.398,-1.292 1,-1.702 -0.04,-0.581 0.062,-1.167 -0.056,-1.74 -0.015,-0.461 0.28,-0.593 0.68,-0.618 1.398,-0.141 2.891,0.389 4.146,-0.63 C -0.287,0.477 -0.072,0.456 0.144,0.435 0.147,0.273 0.1,0.128 0,0"
         style="fill:#3f4d4d;fill-opacity:1;fill-rule:evenodd;stroke:none"
         id="path382" />
    </g>
    <g
       id="g384"
       transform="matrix(0.35277777,0,0,-0.35277777,4.6504074,329.7832)">
      <path
         d="m 0,0 c 0.006,-0.125 0.004,-0.25 -0.003,-0.375 -0.858,0.058 -1.184,0.708 -1.511,1.357 -0.192,1.915 -0.41,3.83 0.11,5.731 L -1.412,6.701 c 0.33,0.327 0.686,0.3 1.056,0.073 C -0.187,6.57 -0.068,6.339 0.006,6.085 0.245,4.298 0.101,2.488 0.322,0.697 0.277,0.437 0.168,0.205 0,0"
         style="fill:#484646;fill-opacity:1;fill-rule:evenodd;stroke:none"
         id="path386" />
    </g>
    <g
       id="g388"
       transform="matrix(0.35277777,0,0,-0.35277777,12.448207,327.07019)">
      <path
         d="m 0,0 c -0.003,1.766 -0.007,3.532 -0.011,5.298 0.17,0.27 0.175,0.625 0.44,0.845 C 0.577,5.975 0.851,5.81 0.855,5.638 0.922,3.224 1.328,0.791 0.508,-1.58 0.377,-1.042 0.578,-0.396 0,0"
         style="fill:#545353;fill-opacity:1;fill-rule:evenodd;stroke:none"
         id="path390" />
    </g>
    <g
       id="g392"
       transform="matrix(0.35277777,0,0,-0.35277777,5.6901494,332.80541)">
      <path
         d="M 0,0 C 0.292,-0.062 0.41,-0.261 0.428,-0.54 0.313,-0.589 0.195,-0.619 0.071,-0.632 c -1.026,-0.177 -2.05,-0.273 -3.068,0.054 -0.954,0.316 -1.44,0.95 -1.344,1.978 0.282,0.314 0.564,0.628 0.846,0.942 0.031,-0.457 0.062,-0.914 0.093,-1.371 0.108,-0.207 0.26,-0.377 0.43,-0.534 l 0.033,-0.02 C -2.022,-0.161 -0.932,0.477 0,0"
         style="fill:#4b4d4d;fill-opacity:1;fill-rule:evenodd;stroke:none"
         id="path394" />
    </g>
    <g
       id="g396"
       transform="matrix(0.35277777,0,0,-0.35277777,4.1550016,327.41486)">
      <path
         d="M 0,0 C -0.037,-1.911 -0.073,-3.821 -0.11,-5.731 -0.737,-3.808 -0.909,-1.894 0,0"
         style="fill:#e9ecec;fill-opacity:1;fill-rule:evenodd;stroke:none"
         id="path398" />
    </g>
    <g
       id="g400"
       transform="matrix(0.35277777,0,0,-0.35277777,10.096097,327.06346)">
      <path
         d="m 0,0 c -0.037,-0.148 -0.025,-0.293 0.034,-0.434 -0.2,-0.018 -0.399,-0.036 -0.597,-0.054 0.196,1.905 -0.433,3.867 0.389,5.729 C -0.094,3.495 -0.374,1.737 0,0"
         style="fill:#4d4a4a;fill-opacity:1;fill-rule:evenodd;stroke:none"
         id="path402" />
    </g>
    <g
       id="g404"
       transform="matrix(0.35277777,0,0,-0.35277777,12.599443,324.90322)">
      <path
         d="m 0,0 c -0.044,-0.334 -0.072,-0.678 -0.439,-0.844 -0.563,0.54 -1.287,0.343 -1.95,0.425 C -1.888,0.619 -1.641,0.662 0,0"
         style="fill:#353434;fill-opacity:1;fill-rule:evenodd;stroke:none"
         id="path406" />
    </g>
    <g
       id="g408"
       transform="matrix(0.35277777,0,0,-0.35277777,11.25984,324.85602)">
      <path
         d="M 0,0 C -1.215,0.003 -2.43,0.007 -3.645,0.01 -2.429,0.499 -1.214,0.534 0,0"
         style="fill:#4d4a4a;fill-opacity:1;fill-rule:evenodd;stroke:none"
         id="path410" />
    </g>
    <g
       id="g412"
       transform="matrix(0.35277777,0,0,-0.35277777,4.6328391,333.00935)">
      <path
         d="M 0,0 C 1.023,-0.018 2.045,-0.036 3.068,-0.054 2.036,-0.609 1.014,-0.504 0,0"
         style="fill:#6d6c6c;fill-opacity:1;fill-rule:evenodd;stroke:none"
         id="path414" />
    </g>
    <g
       id="g416"
       transform="matrix(0.35277777,0,0,-0.35277777,4.8094044,331.46249)">
      <path
         d="M 0,0 C -0.409,-0.718 -1.323,-0.482 -1.849,-0.978 -1.735,0.297 -0.688,-0.191 0,0"
         style="fill:#4b4d4d;fill-opacity:1;fill-rule:evenodd;stroke:none"
         id="path418" />
    </g>
    <g
       id="g420"
       transform="matrix(0.35277777,0,0,-0.35277777,13.085042,329.65246)">
      <path
         d="M 0,0 C -0.278,0.691 -1.064,1.562 0.562,1.576 0.555,1.41 0.549,1.244 0.543,1.078 0.094,0.854 0.137,0.381 0,0"
         style="fill:#625757;fill-opacity:1;fill-rule:evenodd;stroke:none"
         id="path422" />
    </g>
    <g
       id="g424"
       transform="matrix(0.35277777,0,0,-0.35277777,4.1577533,326.89395)">
      <path
         d="M 0,0 C 0.285,0.158 0.569,0.316 0.854,0.474 1.275,-0.02 1.129,-0.389 0.602,-0.675 0.341,-0.727 0.134,-0.644 -0.019,-0.427 -0.066,-0.282 -0.059,-0.14 0,0"
         style="fill:#545555;fill-opacity:1;fill-rule:evenodd;stroke:none"
         id="path426" />
    </g>
    <g
       id="g428"
       transform="matrix(0.35277777,0,0,-0.35277777,4.1510505,327.04451)">
      <path
         d="M 0,0 0.467,-0.114 C 0.911,-0.325 1.209,-0.595 0.873,-1.12 0.583,-1.101 0.293,-1.082 0.003,-1.062 0.002,-0.708 0.001,-0.354 0,0"
         style="fill:#e9ecec;fill-opacity:1;fill-rule:evenodd;stroke:none"
         id="path430" />
    </g>
    <g
       id="g432"
       transform="matrix(0.35277777,0,0,-0.35277777,11.251232,325.01844)">
      <path
         d="M 0,0 C 0,0.154 0.008,0.308 0.027,0.461 0.216,0.482 0.363,0.397 0.353,0.212 0.342,0.028 0.186,-0.04 0,0"
         style="fill:#4d4a4a;fill-opacity:1;fill-rule:evenodd;stroke:none"
         id="path434" />
    </g>
    <g
       id="g436"
       transform="matrix(0.35277777,0,0,-0.35277777,9.8952251,324.8786)">
      <path
         d="M 0,0 C -0.132,-0.144 -0.265,-0.289 -0.397,-0.433 -0.432,-0.135 -0.282,-0.006 0,0"
         style="fill:#4d4a4a;fill-opacity:1;fill-rule:evenodd;stroke:none"
         id="path438" />
    </g>
    <g
       id="g440"
       transform="matrix(0.35277777,0,0,-0.35277777,4.2874697,326.34499)">
      <path
         d="M 0,0 C 0.011,-0.26 -0.095,-0.458 -0.317,-0.594 -0.369,-0.312 -0.233,-0.13 0,0"
         style="fill:#545555;fill-opacity:1;fill-rule:evenodd;stroke:none"
         id="path442" />
    </g>
    <g
       id="g636"
       transform="matrix(0.35277777,0,0,-0.35277777,8.8922073,327.07845)">
      <path
         d="m 0,0 c 0.803,-0.115 1.697,0.255 2.391,-0.447 0.188,-0.137 0.31,-0.331 0.438,-0.519 0.164,-0.155 0.328,-0.31 0.492,-0.464 0.471,-0.665 1.747,0.418 1.923,-0.886 -4.446,-2.338 -5.242,-6.303 -1.939,-9.664 -1.25,-1.382 -2.857,-1.573 -4.606,-1.492 -1.093,0.05 -1.759,0.705 -2.347,1.414 -0.733,0.882 -0.256,1.405 0.735,1.598 1.045,0.105 2.199,0.116 1.428,1.729 -0.062,0.131 -0.105,0.374 -0.035,0.45 2.13,2.301 0.926,5.055 1.055,7.624 C -0.416,-0.363 -0.236,-0.162 0,0"
         style="fill:#fbfcfc;fill-opacity:1;fill-rule:evenodd;stroke:none"
         id="path638" />
    </g>
    <g
       id="g640"
       transform="matrix(0.35277777,0,0,-0.35277777,4.6504074,329.60871)">
      <path
         d="M 0,0 C -0.984,1.862 -0.41,3.842 -0.439,5.777 -0.189,6.182 0.059,6.594 0.618,6.173 0.654,6.104 0.708,6.038 0.722,5.964 1.636,1.116 1.656,1.104 5.904,3.751 6.247,3.965 6.576,4.146 6.989,4.112 7.571,3.975 7.937,3.581 8.214,3.082 8.295,2.885 8.321,2.678 8.293,2.466 8.069,2.073 7.496,2.304 7.275,1.901 L 7.207,1.836 C 7.02,1.752 6.886,1.614 6.8,1.428 L 6.729,1.355 C 6.549,1.281 6.426,1.153 6.36,0.97 5.993,0.62 5.625,0.27 5.258,-0.08 3.502,-0.272 1.747,-0.417 0,0"
         style="fill:#e9ecec;fill-opacity:1;fill-rule:evenodd;stroke:none"
         id="path642" />
    </g>
    <g
       id="g644"
       transform="matrix(0.35277777,0,0,-0.35277777,7.3574124,329.26366)">
      <path
         d="M 0,0 C 0.8,-0.88 1.299,-1.935 1.798,-2.936 1.434,-3.559 0.693,-3.291 0.346,-3.764 c -0.317,-0.03 -0.638,-0.04 -0.95,-0.096 -0.638,-0.115 -1.047,0.134 -1.371,0.689 -0.358,0.614 -0.114,1.078 0.283,1.5 C -1.15,-1.093 -0.566,-0.555 0,0"
         style="fill:#eff1f1;fill-opacity:1;fill-rule:evenodd;stroke:none"
         id="path646" />
    </g>
    <g
       id="g648"
       transform="matrix(0.35277777,0,0,-0.35277777,5.5104796,330.52749)">
      <path
         d="m 0,0 c 0.004,-0.352 0.008,-0.703 0.011,-1.055 0.034,-0.283 0.224,-0.47 0.411,-0.658 l 0.01,-0.011 c 0.17,-0.158 0.323,-0.338 0.547,-0.427 0.411,-0.064 0.822,-0.128 1.233,-0.191 -0.924,-0.504 -1.795,-0.557 -2.674,-0.283 -0.526,1.266 -0.363,2.55 -0.106,3.838 L -0.571,1.211 c 0.536,0.212 1.044,0.37 1.015,-0.52 L 0.434,0.68 C 0.212,0.502 0.036,0.296 0,0"
         style="fill:#c9f7f7;fill-opacity:1;fill-rule:evenodd;stroke:none"
         id="path650" />
    </g>
    <g
       id="g652"
       transform="matrix(0.35277777,0,0,-0.35277777,4.6504074,329.60871)">
      <path
         d="M 0,0 C 1.752,-0.026 3.505,-0.053 5.258,-0.08 3.565,-0.979 1.746,-0.272 0,-0.495 0,-0.33 0,-0.165 0,0"
         style="fill:#4c4848;fill-opacity:1;fill-rule:evenodd;stroke:none"
         id="path654" />
    </g>
    <g
       id="g656"
       transform="matrix(0.35277777,0,0,-0.35277777,6.4618507,330.75023)">
      <path
         d="m 0,0 c -0.077,-0.498 -0.432,-0.644 -0.847,-0.638 -0.546,0.007 -0.924,0.285 -0.833,0.867 0.06,0.391 0.328,0.749 0.792,0.719 C -0.329,0.911 -0.154,0.447 0,0"
         style="fill:#d5d8d8;fill-opacity:1;fill-rule:evenodd;stroke:none"
         id="path658" />
    </g>
    <g
       id="g660"
       transform="matrix(0.35277777,0,0,-0.35277777,5.309996,330.09964)">
      <path
         d="M 0,0 C 0.035,-1.279 0.07,-2.558 0.106,-3.838 -0.661,-2.579 -0.492,-1.294 0,0"
         style="fill:#d3dada;fill-opacity:1;fill-rule:evenodd;stroke:none"
         id="path662" />
    </g>
    <g
       id="g664"
       transform="matrix(0.35277777,0,0,-0.35277777,5.6670777,330.28375)">
      <path
         d="m 0,0 c -0.229,0.387 -0.612,0.472 -1.015,0.52 0.152,0.352 0.471,0.382 0.781,0.365 C 0.042,0.87 0.457,1.042 0.542,0.655 0.614,0.333 0.31,0.116 0,0"
         style="fill:#d3dada;fill-opacity:1;fill-rule:evenodd;stroke:none"
         id="path666" />
    </g>
    <g
       id="g668"
       transform="matrix(0.35277777,0,0,-0.35277777,7.0122193,331.17483)">
      <path
         d="M 0,0 C 0.332,-0.083 0.604,-0.434 0.451,-0.612 0.083,-1.041 -0.154,-0.624 -0.356,-0.319 -0.305,-0.137 -0.183,-0.034 0,0"
         style="fill:#f0f4f4;fill-opacity:1;fill-rule:evenodd;stroke:none"
         id="path670" />
    </g>
    <g
       id="g672"
       transform="matrix(0.35277777,0,0,-0.35277777,7.2168304,328.93794)">
      <path
         d="M 0,0 C 0.159,0.403 0.479,0.531 0.882,0.519 1.052,0.418 1.086,0.283 0.983,0.115 L 0.816,-0.043 C 0.544,-0.029 0.271,-0.015 0,0"
         style="fill:#4c4848;fill-opacity:1;fill-rule:evenodd;stroke:none"
         id="path674" />
    </g>
    <g
       id="g676"
       transform="matrix(0.35277777,0,0,-0.35277777,7.0122193,331.17483)">
      <path
         d="M 0,0 C -0.119,-0.106 -0.238,-0.212 -0.356,-0.319 -0.56,-0.29 -0.688,-0.139 -0.577,0.014 -0.422,0.226 -0.186,0.271 0,0"
         style="fill:#f3fdfd;fill-opacity:1;fill-rule:evenodd;stroke:none"
         id="path678" />
    </g>
    <g
       id="g680"
       transform="matrix(0.35277777,0,0,-0.35277777,5.8556727,331.28628)">
      <path
         d="M 0,0 C -0.271,0.03 -0.448,0.178 -0.547,0.427 -0.365,0.285 -0.183,0.142 0,0"
         style="fill:#d3dada;fill-opacity:1;fill-rule:evenodd;stroke:none"
         id="path682" />
    </g>
    <g
       id="g684"
       transform="matrix(0.35277777,0,0,-0.35277777,5.6593166,331.13176)">
      <path
         d="M 0,0 C -0.271,0.135 -0.409,0.354 -0.411,0.658 -0.274,0.439 -0.137,0.219 0,0"
         style="fill:#d3dada;fill-opacity:1;fill-rule:evenodd;stroke:none"
         id="path686" />
    </g>
    <g
       id="g688"
       transform="matrix(0.35277777,0,0,-0.35277777,5.5104796,330.52749)">
      <path
         d="M 0,0 C 0.005,0.316 0.138,0.55 0.434,0.68 0.289,0.453 0.145,0.227 0,0"
         style="fill:#d3dada;fill-opacity:1;fill-rule:evenodd;stroke:none"
         id="path690" />
    </g>
    <g
       id="g692"
       transform="matrix(0.35277777,0,0,-0.35277777,7.0494021,329.10484)">
      <path
         d="M 0,0 C 0.033,0.239 0.169,0.375 0.407,0.409 0.271,0.272 0.136,0.136 0,0"
         style="fill:#4c4848;fill-opacity:1;fill-rule:evenodd;stroke:none"
         id="path694" />
    </g>
    <g
       id="g696"
       transform="matrix(0.35277777,0,0,-0.35277777,6.8942152,329.26659)">
      <path
         d="M 0,0 C 0.013,0.234 0.144,0.355 0.369,0.386 0.246,0.257 0.123,0.128 0,0"
         style="fill:#4c4848;fill-opacity:1;fill-rule:evenodd;stroke:none"
         id="path698" />
    </g>
    <g
       id="g700"
       transform="matrix(0.35277777,0,0,-0.35277777,5.6901494,332.80541)">
      <path
         d="M 0,0 C -1.001,-0.01 -2.063,-0.447 -2.939,0.417 -1.975,0.17 -0.933,0.472 0,0"
         style="fill:#6d6c6c;fill-opacity:1;fill-rule:evenodd;stroke:none"
         id="path702" />
    </g>
    <g
       id="g704"
       transform="matrix(0.35277777,0,0,-0.35277777,5.8172552,332.26795)">
      <path
         d="m 0,0 c 0.022,-0.262 -0.093,-0.457 -0.351,-0.48 -0.123,-0.011 -0.315,0.088 -0.377,0.195 -0.128,0.22 -0.064,0.462 0.186,0.552 C -0.31,0.351 -0.107,0.24 0,0"
         style="fill:#837d7d;fill-opacity:1;fill-rule:evenodd;stroke:none"
         id="path706" />
    </g>
    <g
       id="g708"
       transform="matrix(0.35277777,0,0,-0.35277777,12.424113,332.34136)">
      <path
         d="m 0,0 c -0.096,-0.253 -0.27,-0.339 -0.521,-0.23 -0.178,0.077 -0.238,0.221 -0.153,0.395 0.109,0.224 0.308,0.351 0.536,0.238 C -0.048,0.358 -0.043,0.139 0,0"
         style="fill:#6f6666;fill-opacity:1;fill-rule:evenodd;stroke:none"
         id="path710" />
    </g>
    <g
       id="g712"
       transform="matrix(0.35277777,0,0,-0.35277777,11.765406,332.35272)">
      <path
         d="m 0,0 c -0.099,-0.072 -0.198,-0.143 -0.297,-0.214 -0.054,0.129 -0.157,0.262 -0.145,0.384 0.007,0.082 0.177,0.148 0.274,0.222 C -0.112,0.261 -0.056,0.13 0,0"
         style="fill:#716767;fill-opacity:1;fill-rule:evenodd;stroke:none"
         id="path714" />
    </g>
    <g
       id="g716"
       transform="matrix(0.35277777,0,0,-0.35277777,5.0448835,332.18752)">
      <path
         d="M 0,0 C 0.104,-0.045 0.22,-0.095 0.336,-0.145 0.243,-0.323 0.15,-0.501 0.057,-0.68 -0.021,-0.563 -0.106,-0.452 -0.173,-0.33 -0.269,-0.156 -0.21,-0.044 0,0"
         style="fill:#655d5d;fill-opacity:1;fill-rule:evenodd;stroke:none"
         id="path718" />
    </g>
    <g
       id="g720"
       transform="matrix(0.35277777,0,0,-0.35277777,4.6416233,332.65124)">
      <path
         d="M 0,0 C -0.278,0.069 -0.419,0.249 -0.43,0.534 -0.287,0.355 -0.143,0.178 0,0"
         style="fill:#6d6c6c;fill-opacity:1;fill-rule:evenodd;stroke:none"
         id="path722" />
    </g>
    <g
       id="g724"
       transform="matrix(0.35277777,0,0,-0.35277777,12.096805,330.10532)">
      <path
         d="m 0,0 c 1.112,-1.863 0.687,-2.862 -1.313,-3.034 -2.28,-0.196 -3.474,1.257 -4.463,2.998 -0.732,1.085 -0.559,2.058 0.362,2.939 0.879,0.804 1.741,0.763 2.588,-0.052 C -2.466,1.325 -1.548,0.35 0,0"
         style="fill:#494444;fill-opacity:1;fill-rule:evenodd;stroke:none"
         id="path726" />
    </g>
    <g
       id="g728"
       transform="matrix(0.35277777,0,0,-0.35277777,11.251409,328.79926)">
      <path
         d="M 0,0 C 1.868,0.528 3.16,-0.145 3.705,-1.664 3.868,-2.119 4.009,-2.69 3.522,-2.937 2.852,-3.277 2.78,-2.594 2.679,-2.188 2.359,-0.916 1.057,-0.83 0,0"
         style="fill:#757171;fill-opacity:1;fill-rule:evenodd;stroke:none"
         id="path730" />
    </g>
    <g
       id="g732"
       transform="matrix(0.35277777,0,0,-0.35277777,12.096805,330.10532)">
      <path
         d="M 0,0 C -3.436,-0.066 -2.775,-0.297 -2.826,2.851 -2.512,2.683 -2.196,2.514 -1.881,2.345 -1.341,1.82 -0.864,1.251 -0.612,0.525 -0.408,0.35 -0.204,0.175 0,0"
         style="fill:#dfe1e1;fill-opacity:1;fill-rule:evenodd;stroke:none"
         id="path734" />
    </g>
    <g
       id="g736"
       transform="matrix(0.35277777,0,0,-0.35277777,10.187043,329.08124)">
      <path
         d="m 0,0 c -0.472,-0.936 -0.376,-1.942 -0.363,-2.938 -0.446,-0.21 -0.428,-0.648 -0.509,-1.037 -0.85,1.601 -0.729,3.099 0.477,4.481 C -0.263,0.337 -0.132,0.169 0,0"
         style="fill:#d9dada;fill-opacity:1;fill-rule:evenodd;stroke:none"
         id="path738" />
    </g>
    <g
       id="g740"
       transform="matrix(0.35277777,0,0,-0.35277777,11.880976,329.92014)">
      <path
         d="M 0,0 C -0.583,0.495 -1.499,0.758 -1.27,1.821 0.003,1.806 0.343,1.141 0,0"
         style="fill:#554848;fill-opacity:1;fill-rule:evenodd;stroke:none"
         id="path742" />
    </g>
    <g
       id="g744"
       transform="matrix(0.35277777,0,0,-0.35277777,10.742209,327.89562)">
      <path
         d="M 0,0 C -0.443,0.725 -1.488,0.144 -1.923,0.886 -0.189,0.909 1.545,0.945 3.279,0.947 3.728,0.948 4.34,0.96 4.257,0.282 4.195,-0.229 3.676,-0.077 3.305,-0.068 2.204,-0.044 1.102,-0.022 0,0"
         style="fill:#e6f0f0;fill-opacity:1;fill-rule:evenodd;stroke:none"
         id="path746" />
    </g>
    <g
       id="g748"
       transform="matrix(0.35277777,0,0,-0.35277777,9.8900745,327.41934)">
      <path
         d="m 0,0 c -0.298,0.045 -0.441,0.22 -0.438,0.519 0.152,0 0.304,-0.001 0.457,-0.001 C 0.012,0.346 0.006,0.173 0,0"
         style="fill:#4d4a4a;fill-opacity:1;fill-rule:evenodd;stroke:none"
         id="path750" />
    </g>
    <g
       id="g752"
       transform="matrix(0.35277777,0,0,-0.35277777,7.5635757,328.89744)">
      <path
         d="M 0,0 C 0.064,0.159 0.031,0.293 -0.101,0.404 L -0.114,0.356 C 0.344,1.098 0.402,1.977 0.736,2.772 1.703,5.071 1.066,5.996 -1.389,6.011 -2.158,6.016 -2.975,6.147 -3.612,5.513 -4.68,3.965 -6.159,3.783 -7.829,4.237 -8.119,4.078 -8.408,3.919 -8.697,3.761 -8.772,3.874 -8.807,3.997 -8.8,4.132 c -0.136,0.336 -0.271,0.671 -0.406,1.006 0.442,0.216 0.488,0.59 0.406,1.015 0.089,0.119 0.118,0.251 0.086,0.397 0.111,0.212 0.27,0.384 0.445,0.543 L -8.25,7.105 C -4.901,7.53 -1.549,7.403 1.804,7.172 2.531,6.597 2.382,5.774 2.383,5.013 2.386,2.831 2.357,0.649 2.341,-1.533 1.897,-1.954 1.466,-2.192 1.03,-1.512 0.701,-0.999 0.344,-0.503 0,0"
         style="fill:#ffffff;fill-opacity:1;fill-rule:evenodd;stroke:none"
         id="path754" />
    </g>
    <g
       id="g756"
       transform="matrix(0.35277777,0,0,-0.35277777,8.8922073,327.07845)">
      <path
         d="M 0,0 C -0.155,-0.218 -0.31,-0.437 -0.465,-0.656 -0.432,-0.351 -0.292,-0.122 0,0"
         style="fill:#4d4a4a;fill-opacity:1;fill-rule:evenodd;stroke:none"
         id="path758" />
    </g>
    <g
       id="g760"
       transform="matrix(0.35277777,0,0,-0.35277777,6.3393663,324.68859)">
      <path
         d="M 0,0 C 1.469,-1.797 2.624,-0.311 3.856,0.368 4.18,-0.491 4.392,-1.493 3.275,-1.755 2.024,-2.049 0.583,-2.39 -0.508,-1.352 -0.856,-1.021 -1.038,-0.128 0,0"
         style="fill:#e4efef;fill-opacity:1;fill-rule:evenodd;stroke:none"
         id="path762" />
    </g>
    <g
       id="g764"
       transform="matrix(0.35277777,0,0,-0.35277777,6.3393663,324.68859)">
      <path
         d="m 0,0 c -0.612,-0.594 -0.614,-1.159 0.254,-1.393 0.595,-0.16 1.267,-0.012 1.894,-0.083 1.435,-0.162 1.81,0.609 1.708,1.844 0.859,-0.58 0.212,-1.443 0.404,-2.148 -1.604,-0.841 -3.315,-0.207 -4.969,-0.362 -0.318,0.12 -0.426,0.342 -0.323,0.665 0.267,0.664 -0.347,1.574 0.574,2.054 C -0.305,0.385 -0.153,0.192 0,0"
         style="fill:#e8e2e2;fill-opacity:1;fill-rule:evenodd;stroke:none"
         id="path766" />
    </g>
    <g
       id="g768"
       transform="matrix(0.35277777,0,0,-0.35277777,6.0151988,325.34246)">
      <path
         d="M 0,0 C 1.728,-0.115 3.457,-0.233 5.179,0.074 5.196,-0.137 5.214,-0.348 5.231,-0.558 3.478,-0.56 1.725,-0.562 -0.029,-0.563 -0.167,-0.431 -0.209,-0.303 -0.154,-0.18 -0.101,-0.061 -0.05,0 0,0"
         style="fill:#553333;fill-opacity:1;fill-rule:evenodd;stroke:none"
         id="path770" />
    </g>
    <g
       id="g772"
       transform="matrix(0.35277777,0,0,-0.35277777,6.4654491,324.28173)">
      <path
         d="M 0,0 C 0.926,0.39 1.595,0.275 2.27,0.204 1.463,-0.943 1.463,-0.943 0,0"
         style="fill:#e2f6f6;fill-opacity:1;fill-rule:evenodd;stroke:none"
         id="path774" />
    </g>
    <g
       id="g776"
       transform="matrix(0.35277777,0,0,-0.35277777,11.217471,326.09815)">
      <path
         d="m 0,0 c -0.004,-0.671 -0.347,-0.927 -0.88,-0.919 -0.538,0.009 -0.866,0.296 -0.839,0.866 0.021,0.462 0.322,0.676 0.754,0.703 C -0.44,0.682 -0.07,0.487 0,0"
         style="fill:#d9e0e0;fill-opacity:1;fill-rule:evenodd;stroke:none"
         id="path778" />
    </g>
    <g
       id="g780"
       transform="matrix(0.35277777,0,0,-0.35277777,11.696861,326.19238)">
      <path
         d="M 0,0 C -0.05,0.025 -0.101,0.05 -0.151,0.076 -0.098,0.147 -0.045,0.218 0.007,0.289 0.057,0.24 0.106,0.19 0.156,0.141 0.104,0.094 0.052,0.047 0,0"
         style="fill:#d2ecec;fill-opacity:1;fill-rule:evenodd;stroke:none"
         id="path782" />
    </g>
    <g
       id="g784"
       transform="matrix(0.35277777,0,0,-0.35277777,8.1999162,326.36721)">
      <path
         d="m 0,0 c -3.352,0.085 -6.704,0.185 -10.053,-0.067 0.183,0.138 0.363,0.388 0.553,0.396 3.045,0.129 6.092,0.23 9.135,-0.05 C -0.236,0.267 -0.121,0.096 0,0"
         style="fill:#545555;fill-opacity:1;fill-rule:evenodd;stroke:none"
         id="path786" />
    </g>
    <g
       id="g788"
       transform="matrix(0.35277777,0,0,-0.35277777,4.6466327,326.39529)">
      <path
         d="M 0,0 C -0.148,-0.181 -0.297,-0.362 -0.445,-0.543 -0.405,-0.273 -0.258,-0.091 0,0"
         style="fill:#545555;fill-opacity:1;fill-rule:evenodd;stroke:none"
         id="path790" />
    </g>
    <g
       id="g792"
       transform="matrix(0.35277777,0,0,-0.35277777,6.0151988,325.34246)">
      <path
         d="m 0,0 c -0.01,-0.188 -0.02,-0.375 -0.029,-0.563 -0.49,0.272 -0.52,0.585 -0.084,0.939 C -0.032,0.264 0.006,0.138 0,0"
         style="fill:#464040;fill-opacity:1;fill-rule:evenodd;stroke:none"
         id="path794" />
    </g>
    <g
       id="g836"
       transform="matrix(0.35277777,0,0,-0.35277777,4.8016433,327.40279)">
      <path
         d="M 0,0 C 0.489,0.426 1.086,0.678 1.698,0.541 2.929,0.265 3.343,1.155 3.881,1.908 4.224,1.871 4.488,1.688 4.725,1.454 5.647,0.412 6.792,-0.449 7.386,-1.765 7.321,-2.13 7.102,-2.351 6.748,-2.445 5.612,-2.368 5.721,-4.252 4.312,-3.909 3.152,-3.625 2.474,-4.615 1.715,-5.305 1.344,-5.642 0.825,-5.481 0.768,-5.07 0.531,-3.377 -0.676,-1.826 0,0"
         style="fill:#4f4b4b;fill-opacity:1;fill-rule:evenodd;stroke:none"
         id="path838" />
    </g>
    <g
       id="g840"
       transform="matrix(0.35277777,0,0,-0.35277777,6.3920713,326.92739)">
      <path
         d="M 0,0 C -0.209,0.187 -0.418,0.374 -0.627,0.56 0.791,1.353 2.316,0.92 3.791,0.891 4.614,0.875 4.979,0.205 5.073,-0.592 5.28,-2.333 4.364,-3.729 3.662,-5.186 3.628,-5.257 3.364,-5.217 3.207,-5.229 2.884,-4.75 2.562,-4.271 2.239,-3.792 c 0.177,0.183 0.354,0.366 0.531,0.55 0.828,2.37 0.828,2.373 -1.723,2.804 C 0.66,-0.373 0.298,-0.27 0,0"
         style="fill:#4f4848;fill-opacity:1;fill-rule:evenodd;stroke:none"
         id="path842" />
    </g>
    <g
       id="g844"
       transform="matrix(0.35277777,0,0,-0.35277777,11.551799,330.84513)">
      <path
         d="M 0,0 C -1.914,-0.011 -3.518,1.745 -3.305,3.583 -3.26,3.97 -3.201,4.431 -2.683,4.426 -2.092,4.42 -2.253,3.933 -2.23,3.569 -2.099,1.472 -1.822,1.167 0.007,1.111 0.441,1.098 1.106,1.414 1.17,0.777 1.244,0.026 0.484,0.084 0,0"
         style="fill:#e5eaea;fill-opacity:1;fill-rule:evenodd;stroke:none"
         id="path846" />
    </g>
    <g
       id="g848"
       transform="matrix(0.35277777,0,0,-0.35277777,4.9976819,326.73117)">
      <path
         d="M 0,0 C 0.398,0.753 1.077,0.501 1.573,0.287 2.015,0.096 1.953,-0.305 1.398,-0.433 1.009,-0.04 0.383,-0.411 0,0"
         style="fill:#4f4b4b;fill-opacity:1;fill-rule:evenodd;stroke:none"
         id="path850" />
    </g>
    <g
       id="g852"
       transform="matrix(0.35277777,0,0,-0.35277777,4.9976819,326.73117)">
      <path
         d="M 0,0 C 0.5,-0.035 1.05,0.092 1.398,-0.433 0.883,-0.448 0.229,-0.911 0,0"
         style="fill:#3a3a3a;fill-opacity:1;fill-rule:evenodd;stroke:none"
         id="path854" />
    </g>
    <g
       id="g864"
       transform="matrix(0.35277777,0,0,-0.35277777,6.0923513,327.57195)">
      <path
         d="M 0,0 C 1.185,-0.021 1.415,-0.215 1.354,-1.411 1.32,-2.073 1.097,-2.464 0.363,-2.422 -0.113,-2.395 -0.6,-2.377 -1.03,-2.648 c -1.065,-0.673 -1.425,0.166 -1.725,0.878 -0.449,1.068 -0.058,1.65 1.094,1.764 C -1.266,0.033 -0.864,0 0,0"
         style="fill:#fafefe;fill-opacity:1;fill-rule:evenodd;stroke:none"
         id="path866" />
    </g>
    <g
       id="g868"
       transform="matrix(0.35277777,0,0,-0.35277777,6.3920713,326.92739)">
      <path
         d="M 0,0 C 0.859,0.005 1.72,0.044 2.578,0.008 3.981,-0.051 4.55,-0.928 3.92,-2.128 3.68,-2.584 3.321,-3.045 2.77,-3.243 1.85,-2.159 0.624,-1.337 0,0"
         style="fill:#e8ecec;fill-opacity:1;fill-rule:evenodd;stroke:none"
         id="path870" />
    </g>
  </g>
</svg>
