<svg xmlns="http://www.w3.org/2000/svg" viewBox="0 0 140.61 105.23"><defs><style>.cls-1{fill:#3c59e7;}</style></defs><g id="Capa_2" data-name="Capa 2"><g id="Capa_1-2" data-name="Capa 1"><path class="cls-1" d="M10.05,32.12C18.7,20,30.26,11.65,44.23,6.66,59.74,1.11,75.6.71,91.65,3.8A115,115,0,0,1,119.93,13c9.32,4.5,16.07,11.49,19.22,21.52,2.41,7.68,1.94,15.22-2.19,22.25a21,21,0,0,1-13.74,9.89c-4.18,1-8.37.51-12.57.27-7.89-.44-15.39.85-22.14,5.24A51.81,51.81,0,0,0,77.8,82c-4.24,4.88-8.23,10-13.19,14.18a36.66,36.66,0,0,1-17.48,8.61,30.44,30.44,0,0,1-19.35-3.12c-8.18-4.13-14.19-10.61-19.39-18a51.8,51.8,0,0,1-5.89-10C-.63,66.17-.58,58.45,1.34,50.66A52.78,52.78,0,0,1,10.05,32.12Z"/><path d="M38.85,78.12a1.57,1.57,0,0,1-1.4-2.26l3.61-7.22a5.46,5.46,0,0,1,10.09,4.1L53,71.47a4.69,4.69,0,0,1,6.5,1.3,4.62,4.62,0,0,1,.65,1.47l.19.76H67a1.57,1.57,0,0,1,0,3.13H59.16a1.58,1.58,0,0,1-1.52-1.19L57.16,75a1.57,1.57,0,0,0-1.9-1.14,1.8,1.8,0,0,0-.49.22l-5.68,3.79a1.56,1.56,0,0,1-2.16-.45,1.53,1.53,0,0,1-.18-1.35l1.41-4.25A2.33,2.33,0,0,0,43.86,70l-3.61,7.22A1.54,1.54,0,0,1,38.85,78.12Z"/><path d="M60.72,15.62H42a4.69,4.69,0,0,0-4.69,4.69V39.06A4.69,4.69,0,0,0,42,43.75H60.72a4.69,4.69,0,0,0,4.69-4.69V20.31A4.69,4.69,0,0,0,60.72,15.62Zm-7.81,3.13v8.41l-.86-.43a1.57,1.57,0,0,0-1.4,0l-.87.43V18.75Zm9.37,20.31a1.55,1.55,0,0,1-1.56,1.56H42a1.56,1.56,0,0,1-1.56-1.56V20.31A1.56,1.56,0,0,1,42,18.75h4.69V29.69a1.56,1.56,0,0,0,1.56,1.56,1.71,1.71,0,0,0,.7-.16l2.43-1.22,2.42,1.22A1.56,1.56,0,0,0,56,29.69V18.75h4.69a1.56,1.56,0,0,1,1.56,1.56Z"/><path d="M62.28,7.81H56a1.56,1.56,0,0,1,0-3.12h6.25a1.56,1.56,0,1,1,0,3.12Z"/><path d="M42,50H38.85a1.56,1.56,0,1,1,0-3.12H42A1.56,1.56,0,1,1,42,50Z"/><path d="M57.6,50H48.22a1.56,1.56,0,0,1,0-3.12H57.6a1.56,1.56,0,1,1,0,3.12Z"/><path d="M57.6,56.25H38.85a1.57,1.57,0,1,1,0-3.13H57.6a1.57,1.57,0,0,1,0,3.13Z"/><path d="M57.6,62.5H38.85a1.56,1.56,0,1,1,0-3.12H57.6a1.56,1.56,0,0,1,0,3.12Z"/><path d="M123.22,59.38H105.86A11.06,11.06,0,0,1,101,58.22l-1-.49a14.18,14.18,0,0,0-6.29-1.48H74.78a3.11,3.11,0,0,1-2-.79,2.89,2.89,0,0,1-.35-.35,3.11,3.11,0,0,1-.72-2,3,3,0,0,1,.9-2.09A3.55,3.55,0,0,1,75.07,50H92a4.56,4.56,0,0,0,3.3-1.37,4.62,4.62,0,0,0,1.37-3.73,4.69,4.69,0,0,0-3.25-4L99,31.25h2.67a7.84,7.84,0,0,1,6,2.81l2.18,2.63a10.89,10.89,0,0,0,8.41,3.93h5a1.56,1.56,0,1,0,0-3.12h-5a7.8,7.8,0,0,1-6-2.81l-2.19-2.63a10.93,10.93,0,0,0-8.41-3.94h-.87l9.27-16A6.25,6.25,0,0,0,99.21,5.82L95.3,12.61l-8,13.87V7.81A7.82,7.82,0,0,0,79.47,0H38.85A7.83,7.83,0,0,0,31,7.81V85.94a7.83,7.83,0,0,0,7.82,7.81H79.47a7.82,7.82,0,0,0,7.81-7.81V59.38h6.43a10.92,10.92,0,0,1,4.89,1.15l1,.49a14.18,14.18,0,0,0,6.29,1.48h17.36a1.56,1.56,0,1,0,0-3.12Zm-44.1,0L77,63l-6.87,5.65,1.46-8.78.65-1.12a6,6,0,0,0,2.53.59ZM93.53,45.17a1.52,1.52,0,0,1-.46,1.25,1.57,1.57,0,0,1-1.1.46h-2l1.81-3.13h0A1.68,1.68,0,0,1,93.53,45.17Zm8.4-37.79a3.13,3.13,0,0,1,5.41,3.13l-3.13,5.41L98.8,12.8Zm-4.69,8.13,5.42,3.12L86.34,46.88H79.12ZM75.51,46.88h-.44a6.72,6.72,0,0,0-4.73,2,6,6,0,0,0-1.81,4.32A6.39,6.39,0,0,0,69,55.35a4.62,4.62,0,0,1-3.49-.46,1.56,1.56,0,0,1-.58-2.13L74.55,36a9.4,9.4,0,0,1,8.12-4.7h1.86ZM34.16,7.81a4.69,4.69,0,0,1,4.69-4.69H79.47a4.69,4.69,0,0,1,4.69,4.69V9.38h-50Zm50,78.13a4.68,4.68,0,0,1-4.69,4.68H38.85a4.68,4.68,0,0,1-4.69-4.68V84.38h50Zm0-4.69h-50V12.5h50V28.12H82.68A12.53,12.53,0,0,0,71.84,34.4L62.18,51.2a4.69,4.69,0,0,0,1.72,6.4h0a7.78,7.78,0,0,0,3.88,1,6.38,6.38,0,0,0,1-.1l0,.05a1.42,1.42,0,0,0-.19.52L66.37,72.3a1.55,1.55,0,0,0,1.29,1.79,1.51,1.51,0,0,0,1.24-.33l10.31-8.49a1.49,1.49,0,0,0,.37-.42l3.15-5.47h1.43Z"/><path d="M62.28,89.06H54.47a1.56,1.56,0,0,1,0-3.12h7.81a1.56,1.56,0,1,1,0,3.12Z"/></g></g></svg>