<?xml version="1.0" encoding="UTF-8" standalone="no"?>
<svg
   xmlns:dc="http://purl.org/dc/elements/1.1/"
   xmlns:cc="http://creativecommons.org/ns#"
   xmlns:rdf="http://www.w3.org/1999/02/22-rdf-syntax-ns#"
   xmlns:svg="http://www.w3.org/2000/svg"
   xmlns="http://www.w3.org/2000/svg"
   xmlns:sodipodi="http://sodipodi.sourceforge.net/DTD/sodipodi-0.dtd"
   xmlns:inkscape="http://www.inkscape.org/namespaces/inkscape"
   width="15.487341mm"
   height="15.488758mm"
   viewBox="0 0 15.487341 15.488758"
   version="1.1"
   id="svg4645"
   inkscape:version="1.0.2 (1.0.2+r75+1)"
   sodipodi:docname="genero.svg">
  <defs
     id="defs4639" />
  <sodipodi:namedview
     id="base"
     pagecolor="#ffffff"
     bordercolor="#666666"
     borderopacity="1.0"
     inkscape:pageopacity="0.0"
     inkscape:pageshadow="2"
     inkscape:zoom="0.35"
     inkscape:cx="397.83884"
     inkscape:cy="49.27009"
     inkscape:document-units="mm"
     inkscape:current-layer="layer1"
     inkscape:document-rotation="0"
     showgrid="false"
     fit-margin-top="0"
     fit-margin-left="0"
     fit-margin-right="0"
     fit-margin-bottom="0"
     inkscape:window-width="1848"
     inkscape:window-height="1136"
     inkscape:window-x="72"
     inkscape:window-y="27"
     inkscape:window-maximized="1" />
  <metadata
     id="metadata4642">
    <rdf:RDF>
      <cc:Work
         rdf:about="">
        <dc:format>image/svg+xml</dc:format>
        <dc:type
           rdf:resource="http://purl.org/dc/dcmitype/StillImage" />
        <dc:title></dc:title>
      </cc:Work>
    </rdf:RDF>
  </metadata>
  <g
     inkscape:label="Layer 1"
     inkscape:groupmode="layer"
     id="layer1"
     transform="translate(-0.57180561,-135.13062)">
    <g
       id="g3862"
       inkscape:export-filename="/home/ali/Documents/programmes/ruby/OGP_Local/assets/images/ejes/genero.png"
       inkscape:export-xdpi="96"
       inkscape:export-ydpi="96"
       transform="matrix(0.35277777,0,0,-0.35277777,-15.973034,469.81126)">
      <g
         id="g72"
         transform="translate(68.8198,904.7959)">
        <path
           d="M 0,0 C -12.193,-0.002 -21.898,9.704 -21.921,21.921 -21.944,34.147 -12.29,43.863 -0.078,43.905 12.244,43.948 22.013,34.193 21.98,21.879 21.948,9.697 12.208,0.001 0,0"
           style="fill:#343434;fill-opacity:1;fill-rule:evenodd;stroke:none"
           id="path74" />
      </g>
      <g
         id="g124"
         transform="translate(48.8823,926.9399)">
        <path
           d="M 0,0 C 0.067,11.038 9.031,19.844 20.142,19.785 31.136,19.727 40.043,10.667 39.954,-0.368 39.864,-11.374 30.828,-20.239 19.777,-20.165 8.75,-20.089 -0.067,-11.099 0,0"
           style="fill:#ffffff;fill-opacity:1;fill-rule:evenodd;stroke:none"
           id="path126" />
      </g>
      <g
         id="g444"
         transform="translate(64.3032,916.4341)">
        <path
           d="m 0,0 c 0.272,-0.444 0.368,-0.894 -0.035,-1.308 -0.611,-0.63 -1.233,-1.251 -1.863,-1.861 -0.169,-0.164 -0.373,-0.365 -0.584,-0.399 -1.077,-0.171 -1.496,0.783 -2.057,1.372 -0.557,0.584 -1.878,1.081 -0.721,2.265 0.223,0.215 0.546,0.156 0.798,0.292 -0.209,0.275 -0.598,0.313 -0.797,0.601 -0.492,0.564 -0.745,1.099 0.213,1.439 0.506,0.18 1.13,-0.133 1.678,0.482 -0.499,0.817 -1.462,0.721 -2.193,1.016 -3.885,1.57 -5.865,5.89 -4.501,9.88 1.322,3.865 5.489,6.082 9.416,5.016 C 0.036,18.61 1.001,18.488 0.728,17.575 0.426,16.569 -0.5,17.228 -1.131,17.343 -4.856,18.02 -7.932,16.169 -8.855,12.65 -9.484,10.255 -8.514,7.666 -6.402,6.1 -4.283,4.53 -1.688,4.409 0.574,5.774 c 2.199,1.329 3.465,3.909 3.027,6.312 -0.142,0.778 -0.457,1.524 -0.684,2.287 -0.101,0.34 0,0.684 0.278,0.847 0.393,0.229 0.813,0.078 1.025,-0.302 C 5.017,13.484 5.417,11.932 5.155,10.303 4.646,7.136 2.95,4.89 -0.139,3.782 -0.719,3.575 -1.404,3.593 -1.864,3.061 -1.641,2.088 -0.823,2.594 -0.292,2.424 0.702,2.104 0.429,1.568 0.004,0.981 -0.334,0.655 -1.226,0.332 0,0"
           style="fill:#383737;fill-opacity:1;fill-rule:evenodd;stroke:none"
           id="path446" />
      </g>
      <g
         id="g448"
         transform="translate(65.7842,931.2642)">
        <path
           d="m 0,0 c -1.141,-2.156 -1.492,-4.357 -0.361,-6.635 0.246,-0.497 0.258,-0.957 -0.316,-1.181 -0.602,-0.235 -0.888,0.274 -1.067,0.684 -1.168,2.667 -1.122,5.308 0.513,7.759 C 0.508,3.235 3.03,4.356 6.16,4.149 7.672,4.048 8.966,3.26 10.33,2.671 c 0.099,0.357 0.216,0.538 0.168,0.641 -0.29,0.607 -1.36,1.052 -0.826,1.786 0.629,0.866 1.21,-0.072 1.776,-0.422 0.849,-0.526 1.051,0.255 1.391,0.696 0.113,0.451 -0.248,0.366 -0.423,0.377 -0.579,0.036 -1.268,0.053 -1.185,0.814 0.075,0.682 0.765,0.636 1.333,0.677 3.311,0.239 3.714,-0.147 3.505,-3.449 C 16.035,3.251 16.141,2.573 15.361,2.509 14.721,2.458 14.705,3.063 14.563,3.505 14.494,3.716 14.38,3.912 14.258,4.178 13.512,3.68 12.809,3.279 13.742,2.354 14.059,2.041 14.499,1.613 14.034,1.139 13.645,0.742 13.164,0.886 12.739,1.206 c -0.313,0.236 -0.644,0.448 -0.974,0.675 -0.664,-0.9 0.204,-1.358 0.462,-1.945 1.284,-2.93 1.245,-5.766 -0.701,-8.377 -1.948,-2.616 -4.652,-3.489 -7.832,-3.032 -0.078,0.012 -0.163,0.009 -0.236,0.035 -0.638,0.231 -1.673,0.23 -1.528,1.148 0.18,1.141 1.074,0.487 1.722,0.367 3.646,-0.674 6.843,1.128 7.758,4.363 C 12.3,-2.419 10.7,0.86 7.674,2.114 5.776,2.901 3.927,2.538 2.084,1.906 1.792,1.873 1.595,1.7 1.439,1.466 1.265,1.333 1.1,1.19 0.941,1.039 L 0.904,1.005 C 0.766,0.847 0.617,0.699 0.46,0.559 L 0.43,0.525 C 0.273,0.361 0.122,0.193 0,0"
           style="fill:#373636;fill-opacity:1;fill-rule:evenodd;stroke:none"
           id="path450" />
      </g>
      <g
         id="g452"
         transform="translate(59.0439,917.3965)">
        <path
           d="M 0,0 C 1.809,-0.057 1.809,-0.057 1.85,-1.641 1.058,-1.822 0.745,-0.797 -0.001,-0.894 0,-0.596 0,-0.298 0,0"
           style="fill:#e4eded;fill-opacity:1;fill-rule:evenodd;stroke:none"
           id="path454" />
      </g>
      <g
         id="g456"
         transform="translate(64.3032,916.4341)">
        <path
           d="M 0,0 C -0.675,0.083 -1.15,-0.338 -1.638,-0.838 -1.923,0.912 -1.923,0.912 0.004,0.981 0.002,0.654 0.001,0.327 0,0"
           style="fill:#e4ebeb;fill-opacity:1;fill-rule:evenodd;stroke:none"
           id="path458" />
      </g>
      <g
         id="g460"
         transform="translate(66.2441,931.8232)">
        <path
           d="M 0,0 C 0.148,0.149 0.296,0.298 0.444,0.447 0.407,0.187 0.257,0.04 0,0"
           style="fill:#383737;fill-opacity:1;fill-rule:evenodd;stroke:none"
           id="path462" />
      </g>
      <g
         id="g464"
         transform="translate(66.7251,932.3027)">
        <path
           d="M 0,0 C 0.166,0.143 0.333,0.285 0.498,0.428 0.435,0.166 0.271,0.02 0,0"
           style="fill:#383737;fill-opacity:1;fill-rule:evenodd;stroke:none"
           id="path466" />
      </g>
      <g
         id="g468"
         transform="translate(67.2231,932.7305)">
        <path
           d="M 0,0 C 0.128,0.273 0.348,0.414 0.646,0.439 0.521,0.16 0.3,0.022 0,0"
           style="fill:#383737;fill-opacity:1;fill-rule:evenodd;stroke:none"
           id="path470" />
      </g>
      <g
         id="g472"
         transform="translate(65.7842,931.2642)">
        <path
           d="M 0,0 C 0.144,0.175 0.287,0.35 0.43,0.525 0.399,0.258 0.254,0.084 0,0"
           style="fill:#383737;fill-opacity:1;fill-rule:evenodd;stroke:none"
           id="path474" />
      </g>
    </g>
  </g>
</svg>
