<svg xmlns="http://www.w3.org/2000/svg" viewBox="0 0 141.36 129.45"><defs><style>.cls-1{fill:#f8c447;fill-rule:evenodd;}</style></defs><g id="Capa_2" data-name="Capa 2"><g id="Capa_1-2" data-name="Capa 1"><g id="Design"><g id="Anxiety"><g id="Anxiety-Full-Blob"><path id="path-1" class="cls-1" d="M121.61,33.66C101.06,5.22,71.31-7.91,46.29,4.94c-26,13.39-38-.21-44.55,13.86-9.53,20.5,22.65,41.46,34.1,57.31C46.62,91,44.33,112.6,72.21,126.44,97.9,139.2,178.15,111.91,121.61,33.66Z"/><path id="path-1-2" data-name="path-1" class="cls-1" d="M121.61,33.66C101.06,5.22,71.31-7.91,46.29,4.94c-26,13.39-38-.21-44.55,13.86-9.53,20.5,22.65,41.46,34.1,57.31C46.62,91,44.33,112.6,72.21,126.44,97.9,139.2,178.15,111.91,121.61,33.66Z"/></g></g></g><path d="M51.89,37.54A15.51,15.51,0,1,0,67.4,53.05,15.51,15.51,0,0,0,51.89,37.54Zm0,27.65A12.14,12.14,0,1,1,64,53.05,12.14,12.14,0,0,1,51.89,65.19Zm0-34.56a22.4,22.4,0,0,0-5.13,44.21v5.89H41.53a1.69,1.69,0,0,0-1.68,1.69v6.91A1.68,1.68,0,0,0,41.53,91h5.23v7a1.68,1.68,0,0,0,1.68,1.68h6.91A1.68,1.68,0,0,0,57,98h0V91h5.23a1.68,1.68,0,0,0,1.68-1.68V82.42a1.69,1.69,0,0,0-1.68-1.69H57V74.84a22.4,22.4,0,0,0-5.14-44.21Zm3.18,41.18a1.67,1.67,0,0,0-1.4,1.66v9a1.68,1.68,0,0,0,1.68,1.68h5.23v3.54H55.35a1.69,1.69,0,0,0-1.68,1.69v7H50.12v-7a1.69,1.69,0,0,0-1.68-1.69H43.21V84.1h5.23a1.68,1.68,0,0,0,1.68-1.68h0v-9a1.68,1.68,0,0,0-1.4-1.66,19.05,19.05,0,1,1,6.35,0Zm77-55.66h-17.1a1.68,1.68,0,0,0-1.68,1.68v6.91a1.68,1.68,0,0,0,1.68,1.68h4.7L112.05,34a22.5,22.5,0,1,0,7.26,7.27l7.58-7.58v4.7a1.69,1.69,0,0,0,1.69,1.68h6.91a1.68,1.68,0,0,0,1.68-1.68h0V21.28A5.14,5.14,0,0,0,132,16.15Zm1.78,20.55h-3.55V29.63a1.69,1.69,0,0,0-1.68-1.69,1.66,1.66,0,0,0-1.19.5L116,39.86a1.69,1.69,0,0,0-.18,2.17,19.11,19.11,0,1,1-4.49-4.49,1.68,1.68,0,0,0,2.16-.18l11.43-11.43a1.68,1.68,0,0,0,0-2.38,1.65,1.65,0,0,0-1.19-.49h-7.08V19.51H132a1.77,1.77,0,0,1,1.77,1.77Zm-33.54.84a15.51,15.51,0,1,0,15.5,15.51A15.51,15.51,0,0,0,100.27,37.54Zm0,27.65a12.14,12.14,0,1,1,12.14-12.14,12.15,12.15,0,0,1-12.14,12.14Z"/></g></g></svg>