<?xml version="1.0" encoding="UTF-8" standalone="no"?>
<svg
   xmlns:dc="http://purl.org/dc/elements/1.1/"
   xmlns:cc="http://creativecommons.org/ns#"
   xmlns:rdf="http://www.w3.org/1999/02/22-rdf-syntax-ns#"
   xmlns:svg="http://www.w3.org/2000/svg"
   xmlns="http://www.w3.org/2000/svg"
   xmlns:sodipodi="http://sodipodi.sourceforge.net/DTD/sodipodi-0.dtd"
   xmlns:inkscape="http://www.inkscape.org/namespaces/inkscape"
   width="15.497321mm"
   height="15.488745mm"
   viewBox="0 0 15.497321 15.488745"
   version="1.1"
   id="svg5323"
   inkscape:version="1.0.2 (1.0.2+r75+1)"
   sodipodi:docname="participacion.svg">
  <defs
     id="defs5317" />
  <sodipodi:namedview
     id="base"
     pagecolor="#ffffff"
     bordercolor="#666666"
     borderopacity="1.0"
     inkscape:pageopacity="0.0"
     inkscape:pageshadow="2"
     inkscape:zoom="0.7"
     inkscape:cx="-396.7762"
     inkscape:cy="-216.76312"
     inkscape:document-units="mm"
     inkscape:current-layer="layer1"
     inkscape:document-rotation="0"
     showgrid="false"
     fit-margin-top="0"
     fit-margin-left="0"
     fit-margin-right="0"
     fit-margin-bottom="0"
     inkscape:window-width="1514"
     inkscape:window-height="842"
     inkscape:window-x="227"
     inkscape:window-y="162"
     inkscape:window-maximized="0" />
  <metadata
     id="metadata5320">
    <rdf:RDF>
      <cc:Work
         rdf:about="">
        <dc:format>image/svg+xml</dc:format>
        <dc:type
           rdf:resource="http://purl.org/dc/dcmitype/StillImage" />
        <dc:title></dc:title>
      </cc:Work>
    </rdf:RDF>
  </metadata>
  <g
     inkscape:label="Layer 1"
     inkscape:groupmode="layer"
     id="layer1"
     transform="translate(-34.739419,-397.26249)">
    <g
       id="g64"
       transform="matrix(0.35277777,0,0,-0.35277777,42.461019,397.2625)">
      <path
         d="m 0,0 c 12.229,0.02 21.968,-9.619 22.041,-21.814 0.074,-12.274 -9.742,-22.122 -22.021,-22.091 -12.194,0.03 -21.909,9.763 -21.908,21.95 C -21.887,-9.745 -12.192,-0.02 0,0"
         style="fill:#343434;fill-opacity:1;fill-rule:evenodd;stroke:none"
         id="path66" />
    </g>
    <g
       id="g116"
       transform="matrix(0.35277777,0,0,-0.35277777,49.520384,404.99779)">
      <path
         d="m 0,0 c 0,-11.105 -8.853,-19.991 -19.925,-19.999 -11.03,-0.008 -20.006,8.944 -20.015,19.961 -0.009,11.024 8.945,19.984 19.978,19.99 C -8.881,19.958 0,11.081 0,0"
         style="fill:#ffffff;fill-opacity:1;fill-rule:evenodd;stroke:none"
         id="path118" />
    </g>
    <g
       id="g272"
       transform="matrix(0.35277777,0,0,-0.35277777,42.051585,407.2216)">
      <path
         d="M 0,0 C -1.422,1.446 -1.094,3.092 -0.847,4.634 -0.637,5.938 0.568,6.657 1.807,6.516 3.1,6.368 4.135,5.499 4.212,4.27 4.306,2.792 4.546,1.245 3.164,-0.217 4.81,-0.71 6.118,-1.409 6.05,-3.28 6.021,-4.101 5.907,-4.67 4.9,-4.657 c -2.15,0.03 -4.3,0.009 -6.451,0.013 -0.666,0.001 -0.95,0.3 -1.008,1.009 C -2.711,-1.765 -2.352,-1.173 0,0"
         style="fill:#443f3f;fill-opacity:1;fill-rule:evenodd;stroke:none"
         id="path274" />
    </g>
    <g
       id="g276"
       transform="matrix(0.35277777,0,0,-0.35277777,46.731394,405.43926)">
      <path
         d="m 0,0 c 0.428,-1.797 0.504,-3.559 -0.582,-5.179 2.767,-1.454 3.121,-2.211 2.096,-4.37 -0.261,0.205 -0.597,0.316 -0.775,0.623 -0.34,1.19 -0.859,2.056 -2.336,1.437 -0.439,-0.184 -0.957,-0.19 -1.397,-0.009 -1.437,0.59 -2.035,-0.154 -2.35,-1.406 -0.178,-0.312 -0.491,-0.445 -0.791,-0.596 -0.878,2.376 -0.515,3.146 2.113,4.394 -1.235,1.575 -0.976,3.331 -0.607,5.099 0.796,0.132 1.203,-1.086 2.098,-0.598 0.469,0.151 0.915,0.359 1.371,0.541 C -0.78,0.075 -0.399,0.208 0,0"
         style="fill:#423e3e;fill-opacity:1;fill-rule:evenodd;stroke:none"
         id="path278" />
    </g>
    <g
       id="g280"
       transform="matrix(0.35277777,0,0,-0.35277777,39.985719,407.10634)">
      <path
         d="M 0,0 C -0.109,-0.822 0.6,-0.799 1.064,-1.03 1.9,-1.447 2.438,-2.036 2.52,-3.044 2.656,-4.73 2.503,-4.962 0.777,-4.988 c -1.678,-0.024 -3.357,-0.027 -5.034,0.001 -1.692,0.029 -1.99,0.359 -1.769,1.967 0.133,0.972 0.378,1.915 1.602,2.066 1.295,0.131 1.816,1.756 3.223,1.675 0.232,0.043 0.465,0.048 0.7,0.017 C -0.155,0.615 0.146,0.458 0,0"
         style="fill:#4b4646;fill-opacity:1;fill-rule:evenodd;stroke:none"
         id="path282" />
    </g>
    <g
       id="g284"
       transform="matrix(0.35277777,0,0,-0.35277777,41.183928,404.54355)">
      <path
         d="m 0,0 c -0.847,0.254 -0.961,0.947 -0.982,1.677 -0.02,0.709 -0.002,1.419 -0.011,2.128 -0.024,1.734 -0.024,1.826 -1.718,1.874 -1.268,0.036 -1.747,0.597 -1.586,1.744 0.2,1.431 -0.557,2.964 0.457,4.305 1.18,-0.097 2.332,-0.119 3.521,0.165 C 0.798,12.159 2.05,12.378 2.935,11.22 2.906,10.943 2.766,10.737 2.52,10.606 1.302,10.087 0.003,10.335 -1.261,10.263 -2.196,10.209 -2.751,9.957 -2.731,8.872 -2.712,7.875 -2.262,7.423 -1.323,7.307 -0.238,7.171 0.948,7.396 1.833,6.483 2.183,6.009 2.013,5.606 1.664,5.229 -0.031,4.247 0.628,2.678 0.686,1.26 0.722,1.043 0.722,0.827 0.698,0.609 0.611,0.239 0.31,0.115 0,0"
         style="fill:#514d4d;fill-opacity:1;fill-rule:evenodd;stroke:none"
         id="path286" />
    </g>
    <g
       id="g288"
       transform="matrix(0.35277777,0,0,-0.35277777,39.650509,406.98545)">
      <path
         d="m 0,0 c -1.235,-0.225 -2.086,-1.478 -3.474,-1.296 0.157,0.376 1.335,0.139 0.58,1.09 -0.992,1.253 -0.577,2.767 -0.438,4.148 0.111,1.107 0.961,1.804 2.13,1.928 C -0.011,5.997 1.388,5.249 1.613,4.118 1.915,2.598 2.313,0.97 0.95,-0.343 0.76,-0.18 0.57,-0.017 0.38,0.146 0.254,0.445 0.253,0.759 0.262,1.076 0.278,1.642 0.062,1.989 -0.568,1.911 -0.885,1.872 -1.261,1.808 -1.343,1.478 -1.464,0.993 -1.018,0.818 -0.687,0.62 -0.415,0.457 -0.141,0.304 0,0"
         style="fill:#504a4a;fill-opacity:1;fill-rule:evenodd;stroke:none"
         id="path290" />
    </g>
    <g
       id="g292"
       transform="matrix(0.35277777,0,0,-0.35277777,45.387628,401.36457)">
      <path
         d="m 0,0 c 0.146,-1.603 0.174,-3.205 -0.017,-4.806 -0.121,-0.167 -0.256,-0.322 -0.406,-0.463 -0.727,-0.281 -1.466,-0.205 -2.206,-0.064 -0.318,-0.036 -0.508,-0.239 -0.647,-0.504 0.051,-0.773 0.144,-1.546 -0.078,-2.31 -1.192,0.083 -0.75,1.18 -1.111,1.769 -0.184,0.194 -0.402,0.206 -0.642,0.107 -0.154,-0.097 -0.304,-0.185 -0.456,-0.284 -0.083,-0.055 -0.163,-0.1 -0.246,-0.153 -0.188,-0.1 -0.381,-0.154 -0.593,-0.164 -0.106,0.035 -0.206,0.071 -0.311,0.106 -0.667,0.512 -1.122,1.166 -1.38,1.964 -0.218,1.621 -0.312,3.24 0.056,4.854 0.101,0.237 0.262,0.424 0.478,0.562 0.404,0.077 0.705,-0.098 0.955,-0.39 0.114,-0.199 0.176,-0.418 0.188,-0.647 -0.128,-1.023 -0.271,-2.05 -0.11,-3.083 0.053,-0.17 0.108,-0.343 0.178,-0.507 0.099,-0.138 0.207,-0.272 0.335,-0.385 0.082,-0.031 0.157,-0.072 0.237,-0.102 0.278,-0.032 0.544,0.025 0.811,0.094 0.199,0.055 0.396,0.089 0.598,0.114 0.923,0.112 1.866,-0.064 2.77,0.222 0.152,0.129 0.298,0.262 0.423,0.417 0.342,0.961 0.173,1.924 0.042,2.886 -0.028,0.22 -0.01,0.437 0.046,0.651 0.117,0.195 0.287,0.318 0.506,0.372 C -0.357,0.238 -0.163,0.156 0,0"
         style="fill:#4e4e4e;fill-opacity:1;fill-rule:evenodd;stroke:none"
         id="path294" />
    </g>
    <g
       id="g296"
       transform="matrix(0.35277777,0,0,-0.35277777,41.176696,399.51767)">
      <path
         d="M 0,0 C 2.406,0.359 4.823,0.112 7.235,0.141 7.635,0.146 8.002,0.019 8.174,-0.406 8.428,-0.805 8.167,-0.963 7.854,-1.098 6.802,-0.974 6.213,-1.824 5.424,-2.261 3.463,-2.941 1.968,-1.938 0.481,-0.899 0.172,-0.679 -0.084,-0.43 0,0"
         style="fill:#443b3b;fill-opacity:1;fill-rule:evenodd;stroke:none"
         id="path298" />
    </g>
    <g
       id="g300"
       transform="matrix(0.35277777,0,0,-0.35277777,41.671079,402.72541)">
      <path
         d="M 0,0 C 0.151,0.367 0.302,0.735 0.453,1.102 0.401,1.462 0.521,1.787 0.65,2.111 1.138,3.285 0.452,4.729 1.485,5.776 0.879,6.543 0.02,6.2 -0.741,6.285 -2.23,6.452 -3.762,5.945 -5.221,6.574 -4.317,6.909 -3.369,6.64 -2.45,6.776 -2.094,7.009 -1.741,7.25 -1.305,7.315 -0.146,7.569 0.9,7.046 1.991,6.837 3.126,5.238 2.144,3.462 2.408,1.795 2.398,1.558 2.345,1.325 2.254,1.104 2.095,0.815 1.877,0.562 1.676,0.302 1.522,0.034 1.359,-0.231 1.156,-0.467 0.988,-0.592 0.798,-0.647 0.588,-0.636 0.394,-0.565 0.232,-0.448 0.102,-0.287 0.068,-0.192 0.034,-0.096 0,0"
         style="fill:#613434;fill-opacity:1;fill-rule:evenodd;stroke:none"
         id="path302" />
    </g>
    <g
       id="g304"
       transform="matrix(0.35277777,0,0,-0.35277777,46.731394,405.43926)">
      <path
         d="M 0,0 C -0.298,-0.147 -0.596,-0.294 -0.894,-0.441 -1.385,-0.562 -2.407,0.684 -2.296,-0.986 -3.763,-1.594 -3.763,-1.594 -4.629,-0.007 -3.08,2.094 -1.811,2.096 0,0"
         style="fill:#605757;fill-opacity:1;fill-rule:evenodd;stroke:none"
         id="path306" />
    </g>
    <g
       id="g308"
       transform="matrix(0.35277777,0,0,-0.35277777,47.059019,408.61909)">
      <path
         d="m 0,0 c 0.195,-0.179 0.39,-0.357 0.585,-0.535 -2.551,-0.205 -5.102,-0.317 -7.649,0.049 0.186,0.158 0.372,0.316 0.558,0.474 0.218,0.421 0.476,1.052 0.94,0.938 C -3.944,0.528 -2.355,0.605 -0.731,0.848 -0.369,0.902 -0.171,0.355 0,0"
         style="fill:#433939;fill-opacity:1;fill-rule:evenodd;stroke:none"
         id="path310" />
    </g>
    <g
       id="g312"
       transform="matrix(0.35277777,0,0,-0.35277777,43.912276,399.83411)">
      <path
         d="M 0,0 C 0.14,0.164 0.28,0.328 0.42,0.491 1.241,-0.185 0.895,-1.122 0.873,-1.931 0.841,-3.089 1.11,-3.746 2.423,-3.583 2.879,-3.526 3.371,-3.514 3.783,-3.822 3.664,-3.904 3.544,-3.987 3.424,-4.07 2.136,-4.556 0.866,-4.804 -0.314,-3.794 -0.873,-2.475 -1.096,-1.183 0,0"
         style="fill:#5f5a5a;fill-opacity:1;fill-rule:evenodd;stroke:none"
         id="path314" />
    </g>
    <g
       id="g316"
       transform="matrix(0.35277777,0,0,-0.35277777,41.183928,404.54355)">
      <path
         d="M 0,0 C 0.17,0.142 0.341,0.284 0.512,0.425 2.564,1.538 4.733,0.952 6.87,0.864 7.287,0.693 7.68,0.501 7.644,-0.053 5.094,-0.305 2.545,-0.385 0,0"
         style="fill:#333333;fill-opacity:1;fill-rule:evenodd;stroke:none"
         id="path318" />
    </g>
    <g
       id="g320"
       transform="matrix(0.35277777,0,0,-0.35277777,41.202555,400.33276)">
      <path
         d="M 0,0 C -0.374,-0.002 -0.748,-0.004 -1.122,-0.006 -0.93,0.837 -1.35,1.958 -0.073,2.311 0.109,2.148 0.292,1.986 0.474,1.823 0.717,1.111 0.42,0.54 0,0"
         style="fill:#5b5858;fill-opacity:1;fill-rule:evenodd;stroke:none"
         id="path322" />
    </g>
    <g
       id="g324"
       transform="matrix(0.35277777,0,0,-0.35277777,43.88042,404.56214)">
      <path
         d="M 0,0 C -0.166,0.15 -0.331,0.3 -0.496,0.45 -0.638,0.632 -0.701,0.839 -0.701,1.068 -0.595,1.945 -0.562,2.84 -0.134,3.647 0.441,3.515 0.465,3.061 0.49,2.596 0.521,2.01 0.357,1.37 0.918,0.917 0.869,0.354 0.59,0.021 0,0"
         style="fill:#575050;fill-opacity:1;fill-rule:evenodd;stroke:none"
         id="path326" />
    </g>
    <g
       id="g328"
       transform="matrix(0.35277777,0,0,-0.35277777,45.387628,401.36457)">
      <path
         d="M 0,0 C -0.146,0.001 -0.292,0.003 -0.439,0.005 L -0.515,0.31 c 0,0 0.116,0.206 0.116,0.206 C -0.091,0.479 0.068,0.328 0,0"
         style="fill:#525252;fill-opacity:1;fill-rule:evenodd;stroke:none"
         id="path330" />
    </g>
    <g
       id="g332"
       transform="matrix(0.35277777,0,0,-0.35277777,44.231822,403.42373)">
      <path
         d="M 0,0 C 0.103,0.312 0.327,0.468 0.646,0.503 0.432,0.335 0.216,0.167 0,0"
         style="fill:#575050;fill-opacity:1;fill-rule:evenodd;stroke:none"
         id="path334" />
    </g>
    <g
       id="g336"
       transform="matrix(0.35277777,0,0,-0.35277777,45.238474,403.22339)">
      <path
         d="M 0,0 0.406,0.463 C 0.455,0.146 0.31,0.001 0,0"
         style="fill:#525252;fill-opacity:1;fill-rule:evenodd;stroke:none"
         id="path338" />
    </g>
    <g
       id="g500"
       transform="matrix(0.35277777,0,0,-0.35277777,41.600982,408.56088)">
      <path
         d="M 0,0 C -0.304,0.019 -0.414,0.244 -0.45,0.476 -0.555,1.149 -0.393,1.752 0.194,2.15 0.669,2.472 1.197,2.716 1.716,2.24 2.567,1.459 3.363,1.439 4.22,2.259 4.748,2.765 5.287,2.412 5.698,2.035 6.178,1.593 6.485,1.024 6.311,0.33 6.282,0.213 6.035,0.03 6.002,0.051 4.44,1.059 2.583,-1.421 1.051,0.504 0.641,1.02 0.345,0.198 0,0"
         style="fill:#eaeded;fill-opacity:1;fill-rule:evenodd;stroke:none"
         id="path502" />
    </g>
    <g
       id="g504"
       transform="matrix(0.35277777,0,0,-0.35277777,43.208097,406.02547)">
      <path
         d="m 0,0 c 0.017,-2.361 -0.719,-3.148 -2.262,-2.664 -0.707,0.221 -0.999,0.724 -1.04,1.414 -0.047,0.768 0.482,0.88 1.076,0.945 C -1.533,-0.229 -0.844,-0.117 0,0"
         style="fill:#f1f5f5;fill-opacity:1;fill-rule:evenodd;stroke:none"
         id="path506" />
    </g>
    <g
       id="g508"
       transform="matrix(0.35277777,0,0,-0.35277777,41.967518,405.86647)">
      <path
         d="M 0,0 C 1.258,2.157 1.38,2.181 3.376,1.012 2.53,0.051 1.449,0.323 0,0"
         style="fill:#e0e9e9;fill-opacity:1;fill-rule:evenodd;stroke:none"
         id="path510" />
    </g>
    <g
       id="g512"
       transform="matrix(0.35277777,0,0,-0.35277777,42.641888,407.60002)">
      <path
         d="M 0,0 C -0.083,0.091 -0.226,0.18 -0.228,0.273 -0.23,0.352 -0.069,0.436 0.019,0.517 0.068,0.461 0.128,0.412 0.163,0.348 0.265,0.164 0.206,0.045 0,0"
         style="fill:#ebe5e5;fill-opacity:1;fill-rule:evenodd;stroke:none"
         id="path514" />
    </g>
    <g
       id="g516"
       transform="matrix(0.35277777,0,0,-0.35277777,47.059019,408.61909)">
      <path
         d="M 0,0 C -0.58,0.069 -0.884,1.269 -1.822,0.185 -2.3,-0.367 -3.898,-0.353 -4.455,0.173 -5.427,1.092 -5.863,0.343 -6.506,-0.012 -6.684,0.528 -6.774,1.08 -6.539,1.617 -6.144,2.52 -5.302,2.896 -4.447,2.35 -3.701,1.873 -3.123,1.687 -2.284,2.107 -0.814,2.845 -0.187,2.511 0.124,0.934 0.181,0.642 0.046,0.312 0,0"
         style="fill:#ebeded;fill-opacity:1;fill-rule:evenodd;stroke:none"
         id="path518" />
    </g>
    <g
       id="g520"
       transform="matrix(0.35277777,0,0,-0.35277777,46.495915,406.01975)">
      <path
         d="m 0,0 c 0.145,-2.26 -0.437,-3.008 -2.033,-2.751 -0.854,0.138 -1.219,0.672 -1.272,1.453 -0.061,0.904 0.607,0.945 1.265,1.01 C -1.359,-0.221 -0.683,-0.099 0,0"
         style="fill:#ecf0f0;fill-opacity:1;fill-rule:evenodd;stroke:none"
         id="path522" />
    </g>
    <g
       id="g524"
       transform="matrix(0.35277777,0,0,-0.35277777,45.921275,405.78724)">
      <path
         d="M 0,0 C -0.462,0.258 -1.464,-0.5 -1.422,0.582 -1.387,1.464 -0.58,1.591 0.187,1.479 0.76,1.395 1.228,1.156 1.403,0.545 0.935,0.363 0.467,0.182 0,0"
         style="fill:#eef5f5;fill-opacity:1;fill-rule:evenodd;stroke:none"
         id="path526" />
    </g>
    <g
       id="g528"
       transform="matrix(0.35277777,0,0,-0.35277777,46.047887,407.51338)">
      <path
         d="m 0,0 c -0.071,-0.273 -0.284,-0.333 -0.502,-0.257 -0.098,0.033 -0.214,0.228 -0.199,0.333 0.035,0.254 0.239,0.39 0.482,0.293 C -0.113,0.327 -0.071,0.127 0,0"
         style="fill:#cbc3c3;fill-opacity:1;fill-rule:evenodd;stroke:none"
         id="path530" />
    </g>
    <g
       id="g532"
       transform="matrix(0.35277777,0,0,-0.35277777,40.271857,408.43081)">
      <path
         d="M 0,0 C -0.396,0.349 -0.583,0.028 -0.942,-0.151 -2,-0.682 -3.16,-0.791 -4.214,-0.061 -4.405,0.071 -4.579,0.308 -4.791,0.241 -5.279,0.087 -6.03,-1.165 -6,0.523 c 0.018,1.021 1.013,1.911 1.696,1.511 1.213,-0.711 2.205,-1.087 3.395,0.017 0.3,0.278 0.88,-0.186 1.212,-0.543 C 0.713,1.067 0.865,0.51 0.667,-0.038 0.497,-0.505 0.212,-0.239 0,0"
         style="fill:#edeeee;fill-opacity:1;fill-rule:evenodd;stroke:none"
         id="path534" />
    </g>
    <g
       id="g536"
       transform="matrix(0.35277777,0,0,-0.35277777,39.650509,406.98545)">
      <path
         d="M 0,0 C -0.466,0.019 -0.944,-0.02 -1.397,0.069 -2.248,0.234 -2.492,0.873 -2.434,1.65 -2.375,2.433 -1.73,2.342 -1.208,2.423 -0.595,2.518 0.017,2.617 0.678,2.721 1.255,1.8 0.865,0.969 0.38,0.146 0.232,0.154 0.105,0.105 0,0"
         style="fill:#eef4f4;fill-opacity:1;fill-rule:evenodd;stroke:none"
         id="path538" />
    </g>
    <g
       id="g540"
       transform="matrix(0.35277777,0,0,-0.35277777,39.452777,407.51839)">
      <path
         d="M 0,0 -0.25,-0.215 C -0.301,-0.103 -0.367,0.006 -0.393,0.124 -0.401,0.16 -0.299,0.22 -0.247,0.269 -0.165,0.18 -0.082,0.09 0,0"
         style="fill:#ece7e7;fill-opacity:1;fill-rule:evenodd;stroke:none"
         id="path542" />
    </g>
    <g
       id="g544"
       transform="matrix(0.35277777,0,0,-0.35277777,41.984734,402.18573)">
      <path
         d="M 0,0 C -0.236,-0.05 -0.392,-0.182 -0.437,-0.428 -1.655,0.084 -2.943,-0.003 -4.211,-0.05 -5.224,-0.087 -5.63,0.256 -5.612,1.314 -5.551,4.905 -5.849,4.27 -2.74,4.319 -1.782,4.333 -0.823,4.281 0.135,4.259 0.375,2.831 0.605,1.402 0,0"
         style="fill:#f2f4f4;fill-opacity:1;fill-rule:evenodd;stroke:none"
         id="path546" />
    </g>
    <g
       id="g548"
       transform="matrix(0.35277777,0,0,-0.35277777,41.876219,402.88007)">
      <path
         d="M 0,0 C 0.114,-0.111 0.229,-0.111 0.342,0 0.751,0.242 0.604,0.833 1.016,1.073 1.229,1.146 1.446,1.159 1.668,1.118 2.494,0.628 1.691,-0.422 2.382,-0.959 3.396,-0.993 2.827,-2.455 3.797,-2.528 3.875,-2.769 3.817,-2.97 3.623,-3.133 2.788,-3.616 1.838,-3.41 0.952,-3.58 0.504,-3.638 0.154,-3.939 -0.263,-4.075 c -0.438,0.005 -0.893,-0.123 -1.289,0.18 -0.853,1.392 -0.451,2.929 -0.307,4.356 0.093,0.92 0.827,-0.044 1.277,-0.023 L -0.581,0.423 C -0.394,0.273 -0.202,0.13 0,0"
         style="fill:#f5f5f5;fill-opacity:1;fill-rule:evenodd;stroke:none"
         id="path550" />
    </g>
    <g
       id="g552"
       transform="matrix(0.35277777,0,0,-0.35277777,41.328814,404.25417)">
      <path
         d="M 0,0 C 0.516,0.016 1.031,0.031 1.546,0.046 2.708,0.873 4.04,0.357 5.286,0.521 5.893,0.586 6.444,0.498 6.83,-0.041 6.809,-0.171 6.778,-0.298 6.737,-0.423 4.524,-0.414 2.313,-0.404 0.101,-0.395 0.067,-0.263 0.034,-0.132 0,0"
         style="fill:#b17e7e;fill-opacity:1;fill-rule:evenodd;stroke:none"
         id="path554" />
    </g>
    <g
       id="g556"
       transform="matrix(0.35277777,0,0,-0.35277777,41.984734,402.18573)">
      <path
         d="M 0,0 C 0.382,1.409 0.23,2.835 0.135,4.259 0.29,4.282 0.443,4.277 0.596,4.246 0.604,3.213 0.619,2.18 0.619,1.147 0.619,0.661 0.574,0.184 0,0"
         style="fill:#6a6b6b;fill-opacity:1;fill-rule:evenodd;stroke:none"
         id="path558" />
    </g>
    <g
       id="g560"
       transform="matrix(0.35277777,0,0,-0.35277777,39.806578,405.50092)">
      <path
         d="m 0,0 c -0.291,-0.7 -0.963,-0.673 -1.547,-0.754 -0.422,-0.059 -1.07,-0.337 -1.201,0.265 -0.163,0.745 0.423,1.142 1.115,1.203 C -0.998,0.771 -0.376,0.652 0,0"
         style="fill:#eff6f6;fill-opacity:1;fill-rule:evenodd;stroke:none"
         id="path562" />
    </g>
    <g
       id="g564"
       transform="matrix(0.35277777,0,0,-0.35277777,43.004685,401.54219)">
      <path
         d="M 0,0 C 0.123,0.113 0.19,0.253 0.2,0.42 2.042,1.505 3.88,0.636 5.719,0.406 5.715,0.247 5.775,0.116 5.897,0.014 6.178,-1.263 6.241,-2.537 5.854,-3.807 L 5.846,-3.817 C 4.534,-4.401 3.088,-3.726 1.769,-4.251 L 1.62,-4.235 1.526,-4.352 c -0.334,-0.206 -0.65,-0.219 -0.934,0.09 l 0.009,-0.01 C 0.409,-4.143 0.255,-3.974 0.1,-3.806 V -3.807 C -0.329,-2.548 -0.184,-1.274 0,0"
         style="fill:#f2f5f5;fill-opacity:1;fill-rule:evenodd;stroke:none"
         id="path566" />
    </g>
    <g
       id="g568"
       transform="matrix(0.35277777,0,0,-0.35277777,43.912276,399.83411)">
      <path
         d="m 0,0 c -0.069,-1.246 0.197,-2.512 -0.218,-3.738 -0.885,-0.628 -1.81,-0.411 -2.739,-0.133 l -0.227,0.052 -0.225,-0.057 c -1.506,0.368 -0.406,1.538 -0.701,2.277 0.485,0.804 1.59,-0.085 2.064,0.754 C -1.404,0.623 -1.353,0.644 0,0"
         style="fill:#eef0f0;fill-opacity:1;fill-rule:evenodd;stroke:none"
         id="path570" />
    </g>
    <g
       id="g572"
       transform="matrix(0.35277777,0,0,-0.35277777,42.528541,400.35174)">
      <path
         d="m 0,0 c 0.137,-0.81 -0.321,-1.747 0.514,-2.409 0.006,-1.905 0.012,-3.811 0.019,-5.717 -0.848,0.388 -0.229,1.619 -1.134,1.974 -0.111,0.181 -0.084,0.337 0.083,0.468 0.247,1.889 0.257,3.777 -0.016,5.664 C -0.363,0.172 -0.184,0.17 0,0"
         style="fill:#e6e7e7;fill-opacity:1;fill-rule:evenodd;stroke:none"
         id="path574" />
    </g>
    <g
       id="g576"
       transform="matrix(0.35277777,0,0,-0.35277777,43.738286,404.26863)">
      <path
         d="m 0,0 c -0.503,0.037 -1.006,0.074 -1.509,0.11 -0.15,0.111 -0.24,0.258 -0.271,0.442 0.026,0.184 0.112,0.334 0.258,0.449 0.022,0.135 0.036,0.271 0.041,0.408 -0.008,0.08 -0.019,0.16 -0.03,0.241 0.183,0.064 0.334,0.171 0.449,0.329 l 0.052,0.035 c 0.156,0.159 0.329,0.298 0.517,0.418 C -0.24,2.56 0.014,2.688 0.268,2.815 0.528,1.843 0.832,0.867 0,0"
         style="fill:#fafcfc;fill-opacity:1;fill-rule:evenodd;stroke:none"
         id="path578" />
    </g>
    <g
       id="g580"
       transform="matrix(0.35277777,0,0,-0.35277777,42.869112,401.19975)">
      <path
         d="M 0,0 C 0.901,0.284 1.825,0.109 2.739,0.133 4.034,0.037 5.329,-0.06 6.624,-0.157 6.673,-0.253 6.699,-0.354 6.7,-0.462 6.501,-0.496 6.302,-0.53 6.104,-0.564 4.264,-0.56 2.424,-0.556 0.585,-0.551 0.39,-0.367 0.195,-0.184 0,0"
         style="fill:#333333;fill-opacity:1;fill-rule:evenodd;stroke:none"
         id="path582" />
    </g>
    <g
       id="g584"
       transform="matrix(0.35277777,0,0,-0.35277777,43.628749,403.04181)">
      <path
         d="M 0,0 C 1.306,0.646 2.747,0.016 4.077,0.434 2.807,-0.548 1.36,0.135 0,0"
         style="fill:#575050;fill-opacity:1;fill-rule:evenodd;stroke:none"
         id="path586" />
    </g>
    <g
       id="g588"
       transform="matrix(0.35277777,0,0,-0.35277777,43.004685,401.54219)">
      <path
         d="M 0,0 C 0.034,-1.269 0.067,-2.538 0.1,-3.807 -0.688,-2.558 -0.558,-1.284 0,0"
         style="fill:#575050;fill-opacity:1;fill-rule:evenodd;stroke:none"
         id="path590" />
    </g>
    <g
       id="g592"
       transform="matrix(0.35277777,0,0,-0.35277777,45.06967,402.88507)">
      <path
         d="M 0,0 C 0.014,1.273 0.029,2.547 0.043,3.821 0.687,2.54 0.746,1.265 0,0"
         style="fill:#525252;fill-opacity:1;fill-rule:evenodd;stroke:none"
         id="path594" />
    </g>
    <g
       id="g596"
       transform="matrix(0.35277777,0,0,-0.35277777,43.2136,403.04562)">
      <path
         d="M 0,0 C 0.311,-0.03 0.623,-0.06 0.934,-0.09 0.576,-0.542 0.263,-0.533 0,0"
         style="fill:#575050;fill-opacity:1;fill-rule:evenodd;stroke:none"
         id="path598" />
    </g>
    <g
       id="g600"
       transform="matrix(0.35277777,0,0,-0.35277777,43.564332,403.41078)">
      <path
         d="M 0,0 C -0.09,-0.241 -0.248,-0.398 -0.518,-0.418 -0.345,-0.279 -0.172,-0.139 0,0"
         style="fill:#575050;fill-opacity:1;fill-rule:evenodd;stroke:none"
         id="path602" />
    </g>
    <g
       id="g604"
       transform="matrix(0.35277777,0,0,-0.35277777,43.363813,403.57066)">
      <path
         d="M 0,0 C -0.15,-0.11 -0.3,-0.22 -0.45,-0.329 -0.3,-0.219 -0.15,-0.109 0,0"
         style="fill:#575050;fill-opacity:1;fill-rule:evenodd;stroke:none"
         id="path606" />
    </g>
    <g
       id="g608"
       transform="matrix(0.35277777,0,0,-0.35277777,43.039822,402.8849)">
      <path
         d="M 0,0 C 0.243,-0.073 0.456,-0.179 0.501,-0.466 Z"
         style="fill:#575050;fill-opacity:1;fill-rule:evenodd;stroke:none"
         id="path610" />
    </g>
    <g
       id="g612"
       transform="matrix(0.35277777,0,0,-0.35277777,42.528541,400.35174)">
      <path
         d="m 0,0 c -0.178,-0.006 -0.356,-0.013 -0.534,-0.02 -1.075,0.025 -2.15,0.049 -3.225,0.074 -0.137,0.684 -0.034,1.306 0.474,1.823 0.309,-0.02 0.811,0.072 0.898,-0.078 1.054,-1.8 2.679,-1.391 4.263,-1.176 C 1.479,-0.275 0.659,0.106 0,0"
         style="fill:#e7f1f1;fill-opacity:1;fill-rule:evenodd;stroke:none"
         id="path614" />
    </g>
    <g
       id="g616"
       transform="matrix(0.35277777,0,0,-0.35277777,42.261911,399.75883)">
      <path
         d="M 0,0 C 0.498,0.329 0.997,0.344 1.658,-0.015 1.021,-0.364 0.521,-0.392 0,0"
         style="fill:#aedfdf;fill-opacity:1;fill-rule:evenodd;stroke:none"
         id="path618" />
    </g>
    <g
       id="g620"
       transform="matrix(0.35277777,0,0,-0.35277777,42.191638,402.55075)">
      <path
         d="m 0,0 c -0.112,-0.353 0.039,-0.861 -0.551,-0.933 0.023,0.304 0.047,0.607 0.071,0.91 0.077,0.068 0.154,0.136 0.231,0.204 C -0.166,0.122 -0.083,0.061 0,0"
         style="fill:#6a6b6b;fill-opacity:1;fill-rule:evenodd;stroke:none"
         id="path622" />
    </g>
    <g
       id="g624"
       transform="matrix(0.35277777,0,0,-0.35277777,41.876219,402.88007)">
      <path
         d="M 0,0 C -0.307,-0.014 -0.503,0.123 -0.581,0.423 -0.387,0.282 -0.193,0.141 0,0"
         style="fill:#6a6b6b;fill-opacity:1;fill-rule:evenodd;stroke:none"
         id="path626" />
    </g>
    <g
       id="g628"
       transform="matrix(0.35277777,0,0,-0.35277777,42.345802,402.35693)">
      <path
         d="m 0,0 c 0.003,-0.162 -0.025,-0.317 -0.083,-0.468 -0.12,-0.02 -0.237,-0.048 -0.354,-0.081 L -0.57,-0.42 c -0.005,0.138 0.04,0.256 0.136,0.355 C -0.291,-0.033 -0.146,-0.011 0,0"
         style="fill:#6a6b6b;fill-opacity:1;fill-rule:evenodd;stroke:none"
         id="path630" />
    </g>
    <g
       id="g632"
       transform="matrix(0.35277777,0,0,-0.35277777,42.192837,402.38004)">
      <path
         d="M 0,0 C -0.028,-0.125 -0.074,-0.243 -0.136,-0.355 -0.244,-0.423 -0.36,-0.474 -0.483,-0.506 -0.322,-0.338 -0.161,-0.169 0,0"
         style="fill:#514d4d;fill-opacity:1;fill-rule:evenodd;stroke:none"
         id="path634" />
    </g>
    <g
       id="g804"
       transform="matrix(0.35277777,0,0,-0.35277777,40.976707,401.26018)">
      <path
         d="M 0,0 C 0.127,-0.055 0.312,-0.078 0.37,-0.175 0.497,-0.389 0.414,-0.607 0.166,-0.665 0.054,-0.69 -0.156,-0.607 -0.209,-0.511 -0.327,-0.298 -0.228,-0.107 0,0"
         style="fill:#a8a2a2;fill-opacity:1;fill-rule:evenodd;stroke:none"
         id="path806" />
    </g>
    <g
       id="g808"
       transform="matrix(0.35277777,0,0,-0.35277777,40.498869,401.42659)">
      <path
         d="M 0,0 C -0.096,-0.059 -0.202,-0.178 -0.286,-0.165 -0.46,-0.137 -0.517,0.018 -0.42,0.167 -0.362,0.255 -0.245,0.304 -0.154,0.371 -0.103,0.247 -0.051,0.124 0,0"
         style="fill:#837676;fill-opacity:1;fill-rule:evenodd;stroke:none"
         id="path810" />
    </g>
    <g
       id="g812"
       transform="matrix(0.35277777,0,0,-0.35277777,41.579075,401.28071)">
      <path
         d="M 0,0 C 0.086,-0.098 0.234,-0.193 0.229,-0.281 0.223,-0.387 0.089,-0.486 0.01,-0.588 -0.05,-0.537 -0.168,-0.474 -0.16,-0.436 -0.13,-0.291 -0.061,-0.155 0,0"
         style="fill:#847979;fill-opacity:1;fill-rule:evenodd;stroke:none"
         id="path814" />
    </g>
    <g
       id="g816"
       transform="matrix(0.35277777,0,0,-0.35277777,43.169009,404.04744)">
      <path
         d="M 0,0 C 0.035,-0.172 0.07,-0.345 0.105,-0.517 -1.154,-0.524 -2.413,-0.532 -3.671,-0.54 -3.605,-0.217 -3.853,0.2 -3.386,0.4 -2.31,-0.173 -1.092,0.447 0,0"
         style="fill:#88b3b3;fill-opacity:1;fill-rule:evenodd;stroke:none"
         id="path818" />
    </g>
    <g
       id="g820"
       transform="matrix(0.35277777,0,0,-0.35277777,43.169009,404.04744)">
      <path
         d="M 0,0 C -1.14,0.037 -2.349,-0.514 -3.386,0.401 -2.225,0.656 -1.065,0.655 0.091,0.375 0.073,0.247 0.043,0.122 0,0"
         style="fill:#383838;fill-opacity:1;fill-rule:evenodd;stroke:none"
         id="path822" />
    </g>
    <g
       id="g824"
       transform="matrix(0.35277777,0,0,-0.35277777,43.4682,402.21261)">
      <path
         d="M 0,0 C -0.167,0.103 -0.217,0.255 -0.079,0.34 0.019,0.4 0.187,0.365 0.317,0.342 0.359,0.335 0.384,0.23 0.417,0.17 0.278,0.113 0.139,0.056 0,0"
         style="fill:#947575;fill-opacity:1;fill-rule:evenodd;stroke:none"
         id="path826" />
    </g>
    <g
       id="g828"
       transform="matrix(0.35277777,0,0,-0.35277777,44.713435,402.13196)">
      <path
         d="m 0,0 c -0.03,-0.05 -0.061,-0.1 -0.091,-0.15 -0.076,0.058 -0.151,0.117 -0.225,0.175 0.057,0.048 0.116,0.137 0.169,0.133 C -0.094,0.153 -0.048,0.057 0,0"
         style="fill:#6e4949;fill-opacity:1;fill-rule:evenodd;stroke:none"
         id="path830" />
    </g>
    <g
       id="g832"
       transform="matrix(0.35277777,0,0,-0.35277777,44.133292,402.18622)">
      <path
         d="m 0,0 c -0.05,0.028 -0.099,0.057 -0.148,0.084 0.056,0.07 0.113,0.14 0.169,0.209 C 0.069,0.241 0.117,0.188 0.165,0.136 0.109,0.09 0.055,0.045 0,0"
         style="fill:#714f4f;fill-opacity:1;fill-rule:evenodd;stroke:none"
         id="path834" />
    </g>
  </g>
</svg>
