<svg xmlns="http://www.w3.org/2000/svg" viewBox="0 0 153.97 130.75"><defs><style>.cls-1{fill:#ed4f4e;fill-rule:evenodd;}</style></defs><g id="Capa_2" data-name="Capa 2"><g id="Capa_1-2" data-name="Capa 1"><g id="Design"><g id="Anxiety"><g id="Anxiety-Full-Blob"><path id="path-1" class="cls-1" d="M151.91,80C160.24,51.28,143.15,26.1,104,18.9,63.14,11.39,64.91-3.59,43.54.79,12.39,7.17,23.84,38.36,19.2,54.37,14.83,69.44-10,80.71,4.46,105.21,17.74,127.78,129,159.05,151.91,80Z"/><path id="path-1-2" data-name="path-1" class="cls-1" d="M151.91,80C160.24,51.28,143.15,26.1,104,18.9,63.14,11.39,64.91-3.59,43.54.79,12.39,7.17,23.84,38.36,19.2,54.37,14.83,69.44-10,80.71,4.46,105.21,17.74,127.78,129,159.05,151.91,80Z"/></g></g></g><path d="M105.12,98.82h-2.83V96.58l-2.42-2.42a1.41,1.41,0,0,1-.41-1V80.42A1.41,1.41,0,0,1,100.87,79a5.51,5.51,0,0,1,5.67,5.34v2.57L109,89.33a1.38,1.38,0,0,1,.42,1v2.83h-2.83V90.91l-2.42-2.41a1.42,1.42,0,0,1-.42-1V84.66a2.54,2.54,0,0,0-1.41-2.52V92.57L104.71,95a1.45,1.45,0,0,1,.41,1Z"/><rect x="105.12" y="83.25" width="12.74" height="2.83"/><path d="M105.12,81.83h-2.83v-9.2a3.54,3.54,0,0,1,7.08,0V79h-2.83V72.63a.71.71,0,1,0-1.42,0Z"/><path d="M113.62,76.17h-2.84V69.8a.7.7,0,0,0-.7-.71.71.71,0,0,0-.71.71v6.37h-2.83V69.8a3.54,3.54,0,0,1,7.08,0Z"/><path d="M117.86,79H115V72.63a.71.71,0,1,0-1.41,0V79h-2.84V72.63a3.54,3.54,0,0,1,7.08,0Z"/><path d="M119.28,98.82h-2.83V96a1.45,1.45,0,0,1,.41-1l2.42-2.42V75.46a.71.71,0,1,0-1.42,0V79H115V75.46a3.54,3.54,0,0,1,7.08,0v17.7a1.41,1.41,0,0,1-.41,1l-2.42,2.42Z"/><path d="M120.7,108.74H100.87a1.42,1.42,0,0,1-1.41-1.42v-8.5a1.41,1.41,0,0,1,1.41-1.41H120.7a1.41,1.41,0,0,1,1.41,1.41v8.5A1.42,1.42,0,0,1,120.7,108.74Zm-18.41-2.84h17v-5.66h-17Z"/><path d="M45.65,84.66H42.82V82.42L40.4,80A1.4,1.4,0,0,1,40,79V66.26a1.42,1.42,0,0,1,1.42-1.42,5.5,5.5,0,0,1,5.66,5.34,1.71,1.71,0,0,1,0,.32v2.25l2.42,2.42a1.38,1.38,0,0,1,.42,1V79H47.06V76.75l-2.41-2.41a1.42,1.42,0,0,1-.42-1V70.5A2.54,2.54,0,0,0,42.82,68V78.41l2.41,2.42a1.42,1.42,0,0,1,.42,1Z"/><rect x="45.65" y="69.09" width="12.74" height="2.83"/><path d="M45.65,67.67H42.82v-9.2a3.54,3.54,0,0,1,7.08,0v6.37H47.06V58.47a.71.71,0,1,0-1.41,0Z"/><path d="M54.14,62H51.31V55.64a.71.71,0,0,0-.71-.71.7.7,0,0,0-.7.71V62H47.06V55.64a3.54,3.54,0,0,1,7.08,0Z"/><path d="M58.39,64.84H55.56V58.47a.71.71,0,1,0-1.42,0v6.37H51.31V58.47a3.54,3.54,0,0,1,7.08,0Z"/><path d="M59.81,84.66H57V81.83a1.45,1.45,0,0,1,.41-1l2.42-2.42V61.3a.71.71,0,1,0-1.42,0v3.54H55.56V61.3a3.54,3.54,0,0,1,7.08,0V79a1.4,1.4,0,0,1-.42,1l-2.41,2.42Z"/><path d="M61.22,94.58H41.4A1.43,1.43,0,0,1,40,93.16v-8.5a1.42,1.42,0,0,1,1.42-1.41H61.22a1.41,1.41,0,0,1,1.42,1.41v8.5A1.42,1.42,0,0,1,61.22,94.58Zm-18.4-2.84h17V86.08h-17Z"/><path d="M72.55,77.58H69.72V73.92L67.3,71.5a1.41,1.41,0,0,1-.41-1v-17A1.41,1.41,0,0,1,68.3,52.1a6.81,6.81,0,0,1,7.08,6.56,4.51,4.51,0,0,1,0,.52v2L81.78,65a1.44,1.44,0,0,1,.68,1.22v5.66H79.63V67.06l-6.39-3.84A1.42,1.42,0,0,1,72.55,62V59.18a3.8,3.8,0,0,0-2.83-4V69.92l2.42,2.41a1.46,1.46,0,0,1,.41,1Z"/><path d="M72.55,54.93H69.72V43.6a4.25,4.25,0,1,1,8.5,0v7.08H75.38V43.6a1.42,1.42,0,1,0-2.83,0Z"/><path d="M78.2,47.85H75.37V40.77a4.25,4.25,0,0,1,8.5,0v7.08H81.05V40.77a1.42,1.42,0,1,0-2.83,0Z"/><path d="M83.86,50.68H81l0-7.08a4.25,4.25,0,1,1,8.49,0v7.08H86.71V43.6a1.42,1.42,0,1,0-2.83,0Z"/><path d="M92.38,77.58H89.54V73.34a1.42,1.42,0,0,1,.42-1l2.42-2.41V45a1.42,1.42,0,0,0-2.84,0v5.66H86.7V45a4.25,4.25,0,1,1,8.5,0V70.5a1.38,1.38,0,0,1-.42,1l-2.41,2.42Z"/><rect x="73.97" y="56.34" width="15.58" height="2.83"/><path d="M93.79,90.33H68.3a1.42,1.42,0,0,1-1.41-1.42V77.58a1.41,1.41,0,0,1,1.41-1.41H93.79a1.42,1.42,0,0,1,1.42,1.41V88.91A1.43,1.43,0,0,1,93.79,90.33ZM69.72,87.5H92.38V79H69.72Z"/><rect x="69.72" y="88.91" width="2.83" height="14.16"/><rect x="89.54" y="88.91" width="2.83" height="18.41"/><rect x="69.72" y="104.49" width="2.83" height="2.83"/><rect x="42.82" y="93.16" width="2.83" height="14.16"/><rect x="56.98" y="93.16" width="2.83" height="14.16"/><path d="M105.12,63.42a1.4,1.4,0,0,1-.54-.1A1.43,1.43,0,0,1,103.7,62V54.93H98V52.1h7.08a1.42,1.42,0,0,1,1.42,1.41v5.08l6.08-6.08a1.37,1.37,0,0,1,1-.41h9.91V20.94H83.88V35.1H81.05V19.53a1.41,1.41,0,0,1,1.41-1.42h42.48a1.41,1.41,0,0,1,1.42,1.42v34a1.42,1.42,0,0,1-1.42,1.42H114.2L106.12,63A1.41,1.41,0,0,1,105.12,63.42Z"/><path d="M105.12,37.93h-2.83a1.39,1.39,0,0,1-1.4-1.21l-1.42-9.91a1.41,1.41,0,0,1,1.2-1.6l.2,0h5.67a1.45,1.45,0,0,1,1.4,1.62l-1.42,9.91A1.4,1.4,0,0,1,105.12,37.93Zm-1.6-2.83h.37l1-7.08h-2.4Z"/><path d="M106.54,46.43h-5.67A1.41,1.41,0,0,1,99.46,45a1.31,1.31,0,0,1,.07-.44L101,40.32a1.41,1.41,0,0,1,1.34-1h2.83a1.41,1.41,0,0,1,1.34,1l1.42,4.25a1.42,1.42,0,0,1-.9,1.79A1.31,1.31,0,0,1,106.54,46.43Zm-3.7-2.83h1.73l-.47-1.42h-.79Z"/><path d="M61.22,54.93a1.42,1.42,0,0,1-1-.42l-6.66-6.66H37.15a1.42,1.42,0,0,1-1.41-1.42V23.77a1.41,1.41,0,0,1,1.41-1.41H78.22v2.83H38.57V45H54.14a1.37,1.37,0,0,1,1,.41l4.67,4.66V46.43A1.41,1.41,0,0,1,61.22,45h5.67v2.83H62.64v5.66a1.42,1.42,0,0,1-.87,1.31A1.5,1.5,0,0,1,61.22,54.93Z"/><rect x="49.9" y="28.02" width="28.32" height="2.83"/><rect x="41.4" y="33.69" width="36.82" height="2.83"/><rect x="41.4" y="39.35" width="25.49" height="2.83"/><rect x="44.23" y="28.02" width="2.83" height="2.83"/></g></g></svg>