<?xml version="1.0" encoding="UTF-8" standalone="no"?>
<svg
   xmlns:dc="http://purl.org/dc/elements/1.1/"
   xmlns:cc="http://creativecommons.org/ns#"
   xmlns:rdf="http://www.w3.org/1999/02/22-rdf-syntax-ns#"
   xmlns:svg="http://www.w3.org/2000/svg"
   xmlns="http://www.w3.org/2000/svg"
   xmlns:sodipodi="http://sodipodi.sourceforge.net/DTD/sodipodi-0.dtd"
   xmlns:inkscape="http://www.inkscape.org/namespaces/inkscape"
   width="15.527211mm"
   height="15.496051mm"
   viewBox="0 0 15.527211 15.496051"
   version="1.1"
   id="svg5323"
   inkscape:version="1.0.2 (1.0.2+r75+1)"
   sodipodi:docname="presupuesto.svg">
  <defs
     id="defs5317" />
  <sodipodi:namedview
     id="base"
     pagecolor="#ffffff"
     bordercolor="#666666"
     borderopacity="1.0"
     inkscape:pageopacity="0.0"
     inkscape:pageshadow="2"
     inkscape:zoom="0.7"
     inkscape:cx="-131.08509"
     inkscape:cy="-206.43526"
     inkscape:document-units="mm"
     inkscape:current-layer="layer1"
     inkscape:document-rotation="0"
     showgrid="false"
     fit-margin-top="0"
     fit-margin-left="0"
     fit-margin-right="0"
     fit-margin-bottom="0"
     inkscape:window-width="1514"
     inkscape:window-height="842"
     inkscape:window-x="296"
     inkscape:window-y="182"
     inkscape:window-maximized="0" />
  <metadata
     id="metadata5320">
    <rdf:RDF>
      <cc:Work
         rdf:about="">
        <dc:format>image/svg+xml</dc:format>
        <dc:type
           rdf:resource="http://purl.org/dc/dcmitype/StillImage" />
        <dc:title></dc:title>
      </cc:Work>
    </rdf:RDF>
  </metadata>
  <g
     inkscape:label="Layer 1"
     inkscape:groupmode="layer"
     id="layer1"
     transform="translate(35.558021,-238.88556)">
    <g
       id="g60"
       transform="matrix(0.35277777,0,0,-0.35277777,-27.817723,238.88559)">
      <path
         d="M 0,0 C 12.176,0.031 22.116,-9.681 22.073,-21.824 22.026,-35.158 11.226,-44.019 0.001,-43.925 c -12.152,0.102 -21.936,9.823 -21.942,21.978 C -21.947,-9.804 -12.176,-0.031 0,0"
         style="fill:#343434;fill-opacity:1;fill-rule:evenodd;stroke:none"
         id="path62" />
    </g>
    <g
       id="g112"
       transform="matrix(0.35277777,0,0,-0.35277777,-27.804283,253.67626)">
      <path
         d="m 0,0 c -11.005,0.007 -20.041,9.037 -20.017,20.005 0.024,11.003 9.023,19.875 20.062,19.968 9.49,0.081 19.833,-7.357 19.997,-20.015 C 20.184,8.974 11.008,-0.007 0,0"
         style="fill:#ffffff;fill-opacity:1;fill-rule:evenodd;stroke:none"
         id="path114" />
    </g>
    <g
       id="g224"
       transform="matrix(0.35277777,0,0,-0.35277777,-25.926376,249.59812)">
      <path
         d="m 0,0 c -0.741,1.382 -1.658,2.624 -2.665,3.837 -0.884,1.065 -1.494,1.151 -2.744,0.485 -5.425,-2.893 -11.897,-0.591 -14.212,4.916 -1.809,4.304 -0.543,9.214 3.111,12.062 3.69,2.876 8.698,2.915 12.446,0.097 C -0.38,18.627 1.074,13.689 -0.851,9.42 -1.605,7.748 -1.393,6.78 -0.173,5.534 0.842,4.496 2.043,3.786 3.128,2.896 4.787,1.535 6.26,-0.061 7.75,-1.616 c 1.093,-1.14 1.158,-2.227 0.343,-3.18 -0.858,-1.002 -1.705,-1.002 -3.292,0.001 -0.17,0.419 0.087,0.612 0.406,0.774 1.465,0.006 1.986,0.505 0.851,1.747 C 5.103,-1.23 4.07,-0.259 3.063,0.736 2.108,1.68 1.414,1.349 0.849,0.309 0.625,0.044 0.385,-0.18 0,0"
         style="fill:#3c3939;fill-opacity:1;fill-rule:evenodd;stroke:none"
         id="path226" />
    </g>
    <g
       id="g228"
       transform="matrix(0.35277777,0,0,-0.35277777,-23.712202,245.76339)">
      <path
         d="m 0,0 c 0,-2.47 0.009,-4.94 -0.01,-7.41 -0.003,-0.369 -0.004,-0.872 -0.566,-0.861 -0.561,0.012 -0.522,0.524 -0.524,0.879 -0.02,4.143 -0.017,8.286 -0.019,12.429 -0.002,3.87 -0.002,3.839 -3.977,3.901 -0.878,0.013 -2.506,-0.447 -2.492,0.491 0.022,1.454 1.621,0.509 2.509,0.71 0.606,0.136 1.269,0.049 1.906,0.019 C -0.839,10.049 -0.036,9.254 0.001,6.932 0.037,4.622 0.009,2.311 0.009,0 Z"
         style="fill:#5d5d5d;fill-opacity:1;fill-rule:evenodd;stroke:none"
         id="path230" />
    </g>
    <g
       id="g232"
       transform="matrix(0.35277777,0,0,-0.35277777,-25.441977,250.50729)">
      <path
         d="m 0,0 c -0.339,-0.838 -0.955,-0.664 -1.462,-0.665 -4.942,-0.012 -9.884,-0.035 -14.826,0.005 -2.256,0.018 -2.919,0.753 -2.972,3.068 -0.025,1.115 -0.004,2.232 0.023,3.346 0.006,0.293 0.016,0.659 0.457,0.673 0.421,0.013 0.521,-0.295 0.529,-0.625 0.022,-0.955 0.016,-1.912 0.03,-2.868 0.033,-2.341 0.215,-2.541 2.639,-2.551 4.464,-0.019 8.927,0.005 13.391,-0.016 C -1.468,0.363 -0.656,0.589 0,0"
         style="fill:#3a3a3a;fill-opacity:1;fill-rule:evenodd;stroke:none"
         id="path234" />
    </g>
    <g
       id="g236"
       transform="matrix(0.35277777,0,0,-0.35277777,-26.284833,249.6994)">
      <path
         d="m 0,0 c -0.511,-0.738 -1.115,-0.54 -1.635,-0.542 -3.839,-0.017 -7.678,-0.015 -11.517,-0.002 -0.469,0.002 -0.94,0.083 -1.401,0.17 -0.088,0.018 -0.152,0.233 -0.2,0.367 -0.061,0.169 0.02,0.309 0.218,0.346 0.307,0.059 0.621,0.128 0.932,0.129 4.159,0.007 8.317,0.005 12.477,10e-4 C -0.74,0.468 -0.346,0.461 0,0"
         style="fill:#343434;fill-opacity:1;fill-rule:evenodd;stroke:none"
         id="path238" />
    </g>
    <g
       id="g240"
       transform="matrix(0.35277777,0,0,-0.35277777,-26.977654,249.03004)">
      <path
         d="m 0,0 c -0.251,-0.477 -0.57,-0.518 -0.88,-0.519 -3.6,-0.007 -7.201,-0.013 -10.8,0.001 -0.429,0.002 -1.118,-0.16 -1.081,0.542 0.034,0.662 0.716,0.458 1.134,0.461 3.519,0.019 7.039,0.012 10.559,0.004 C -0.687,0.488 -0.274,0.513 0,0"
         style="fill:#343434;fill-opacity:1;fill-rule:evenodd;stroke:none"
         id="path242" />
    </g>
    <g
       id="g244"
       transform="matrix(0.35277777,0,0,-0.35277777,-25.926376,249.59812)">
      <path
         d="M 0,0 C 0.187,0.203 0.373,0.407 0.56,0.61 2.844,-0.34 4.488,-1.928 5.394,-4.25 L 4.801,-4.795 C 3.029,-3.368 1.434,-1.765 0,0"
         style="fill:#4c4747;fill-opacity:1;fill-rule:evenodd;stroke:none"
         id="path246" />
    </g>
    <g
       id="g248"
       transform="matrix(0.35277777,0,0,-0.35277777,-25.118832,243.45964)">
      <path
         d="m 0,0 c -0.809,0.261 -2.16,-0.366 -2.146,0.529 0.017,1.164 1.375,0.509 2.128,0.582 C 0.617,1.172 1.832,1.474 1.824,0.677 1.812,-0.45 0.539,0.384 0,0"
         style="fill:#373737;fill-opacity:1;fill-rule:evenodd;stroke:none"
         id="path250" />
    </g>
    <g
       id="g252"
       transform="matrix(0.35277777,0,0,-0.35277777,-24.995501,244.27752)">
      <path
         d="m 0,0 c -0.454,0 -0.774,-0.023 -1.09,0.007 -0.342,0.032 -0.63,0.217 -0.542,0.593 0.041,0.175 0.294,0.374 0.487,0.423 0.3,0.079 0.642,0.095 0.947,0.037 C 0.417,0.943 1.507,1.446 1.492,0.441 1.481,-0.322 0.438,0.111 0,0"
         style="fill:#383838;fill-opacity:1;fill-rule:evenodd;stroke:none"
         id="path254" />
    </g>
    <g
       id="g256"
       transform="matrix(0.35277777,0,0,-0.35277777,-25.004462,245.15738)">
      <path
         d="m 0,0 c -0.521,0.19 -1.504,-0.369 -1.515,0.523 -0.01,0.877 0.96,0.48 1.482,0.492 C 0.505,1.027 1.477,1.35 1.497,0.553 1.52,-0.335 0.527,0.174 0,0"
         style="fill:#383838;fill-opacity:1;fill-rule:evenodd;stroke:none"
         id="path258" />
    </g>
    <g
       id="g260"
       transform="matrix(0.35277777,0,0,-0.35277777,-24.376412,246.61157)">
      <path
         d="m 0,0 c -0.273,-0.339 -0.31,-0.433 -0.365,-0.445 -1.017,-0.24 -2.052,-0.617 -2.978,0.228 -0.045,0.041 0.036,0.348 0.112,0.373 C -2.203,0.497 -1.187,0.505 0,0"
         style="fill:#383838;fill-opacity:1;fill-rule:evenodd;stroke:none"
         id="path262" />
    </g>
    <g
       id="g264"
       transform="matrix(0.35277777,0,0,-0.35277777,-24.375388,245.70638)">
      <path
         d="m 0,0 c -0.268,-0.476 -0.29,-0.579 -0.338,-0.593 -1.024,-0.291 -2.056,-0.59 -3.01,0.176 -0.048,0.038 0.013,0.354 0.087,0.385 C -2.228,0.392 -1.214,0.225 0,0"
         style="fill:#383838;fill-opacity:1;fill-rule:evenodd;stroke:none"
         id="path266" />
    </g>
    <g
       id="g268"
       transform="matrix(0.35277777,0,0,-0.35277777,-24.372813,247.36486)">
      <path
         d="m 0,0 c -0.267,-0.561 -0.283,-0.667 -0.33,-0.683 -0.869,-0.307 -1.742,-0.538 -2.545,0.149 -0.055,0.047 -0.009,0.352 0.07,0.397 C -1.923,0.367 -1.071,0.014 0,0"
         style="fill:#393939;fill-opacity:1;fill-rule:evenodd;stroke:none"
         id="path270" />
    </g>
    <g
       id="g484"
       transform="matrix(0.35277777,0,0,-0.35277777,-26.562858,246.10188)">
      <path
         d="m 0,0 c -1.546,-3.9 -5.3,-6.291 -9.174,-5.842 -4.335,0.501 -7.771,3.742 -8.244,7.775 -0.514,4.374 1.717,8.242 5.659,9.811 3.986,1.587 8.124,0.312 10.755,-3.312 0.221,-0.49 -0.073,-0.637 -0.473,-0.714 -1.12,0.311 -1.799,1.274 -2.734,1.867 -3.541,2.249 -8.096,1.322 -10.511,-2.205 -2.192,-3.198 -1.216,-8.199 2.027,-10.39 3.462,-2.34 8.136,-1.468 10.539,1.967 0.49,0.7 0.75,1.616 1.74,1.847 C -0.011,0.673 0.187,0.436 0,0"
         style="fill:#e7ecec;fill-opacity:1;fill-rule:evenodd;stroke:none"
         id="path486" />
    </g>
    <g
       id="g488"
       transform="matrix(0.35277777,0,0,-0.35277777,-24.023457,251.09742)">
      <path
         d="m 0,0 c -1.467,1.764 -3.098,3.365 -4.834,4.86 0.612,2.148 1.083,2.329 2.537,0.923 C -1.032,4.56 0.203,3.306 1.437,2.052 1.88,1.602 2.443,1.138 2.069,0.405 1.574,-0.565 0.777,-0.3 0,0"
         style="fill:#f9fafa;fill-opacity:1;fill-rule:evenodd;stroke:none"
         id="path490" />
    </g>
    <g
       id="g492"
       transform="matrix(0.35277777,0,0,-0.35277777,-27.094423,243.32428)">
      <path
         d="M 0,0 C 0.167,0.187 0.335,0.373 0.503,0.559 2.462,-2.059 2.907,-4.856 1.507,-7.874 1.331,-7.652 1.155,-7.431 0.979,-7.209 0.778,-4.789 0.136,-2.429 0,0"
         style="fill:#dadbdb;fill-opacity:1;fill-rule:evenodd;stroke:none"
         id="path494" />
    </g>
    <g
       id="g496"
       transform="matrix(0.35277777,0,0,-0.35277777,-27.047927,247.2961)">
      <path
         d="M 0,0 C 1.908,-0.743 2.512,-2.113 3.478,-3.087 3.68,-3.291 3.619,-3.521 3.447,-3.707 3.174,-4.003 2.877,-3.946 2.646,-3.664 1.805,-2.643 0.684,-1.828 0,0"
         style="fill:#d8dbdb;fill-opacity:1;fill-rule:evenodd;stroke:none"
         id="path498" />
    </g>
    <g
       id="g800"
       transform="matrix(0.35277777,0,0,-0.35277777,-27.094423,243.32428)">
      <path
         d="m 0,0 c 1.23,-2.28 1.632,-4.673 0.979,-7.209 -1.176,-2.713 -3.007,-4.676 -6.006,-5.357 -3.857,-0.876 -7.719,0.993 -9.331,4.549 -1.571,3.465 -0.533,7.618 2.481,9.924 C -8.801,4.26 -4.412,4.126 -1.481,1.562 -0.943,1.091 -0.492,0.523 0,0"
         style="fill:#403d3d;fill-opacity:1;fill-rule:evenodd;stroke:none"
         id="path802" />
    </g>
    <g
       id="g860"
       transform="matrix(0.35277777,0,0,-0.35277777,-32.038498,244.97239)">
      <path
         d="m 0,0 c -0.026,4.02 3.072,7.182 7.063,7.209 3.96,0.027 7.205,-3.145 7.246,-7.084 0.04,-3.888 -3.227,-7.219 -7.12,-7.258 C 3.27,-7.172 0.026,-3.953 0,0"
         style="fill:#fbfcfc;fill-opacity:1;fill-rule:evenodd;stroke:none"
         id="path862" />
    </g>
    <g
       id="g872"
       transform="matrix(0.35277777,0,0,-0.35277777,-27.45856,244.93725)">
      <path
         d="m 0,0 c -2.717,-3.458 -7.872,-3.871 -10.977,-0.933 -0.81,0.766 -0.663,1.268 0.078,1.931 C -7.934,3.651 -2.306,3.377 0,0"
         style="fill:#3f3b3b;fill-opacity:1;fill-rule:evenodd;stroke:none"
         id="path874" />
    </g>
    <g
       id="g876"
       transform="matrix(0.35277777,0,0,-0.35277777,-28.358779,243.40143)">
      <path
         d="m 0,0 c -2.001,-0.813 -4.027,-0.512 -6.032,-0.519 -0.169,-0.001 -0.423,0.234 -0.488,0.414 -0.074,0.203 0.062,0.48 0.332,0.498 C -4.11,0.535 -2.033,0.621 0,0"
         style="fill:#363636;fill-opacity:1;fill-rule:evenodd;stroke:none"
         id="path878" />
    </g>
    <g
       id="g880"
       transform="matrix(0.35277777,0,0,-0.35277777,-28.369644,246.52528)">
      <path
         d="M 0,0 C -2.153,-0.513 -4.296,-0.503 -6.935,-0.231 -5.161,0.727 -2.42,0.828 0,0"
         style="fill:#333333;fill-opacity:1;fill-rule:evenodd;stroke:none"
         id="path882" />
    </g>
    <g
       id="g884"
       transform="matrix(0.35277777,0,0,-0.35277777,-30.112155,244.51007)">
      <path
         d="m 0,0 c -0.316,-0.9 -0.2,-1.816 0.101,-2.855 -1.227,0.28 -2.114,0.707 -2.889,1.56 0.492,0.793 1.244,1.134 2.062,1.384 C -0.463,0.227 -0.221,0.197 0,0"
         style="fill:#e1e4e4;fill-opacity:1;fill-rule:evenodd;stroke:none"
         id="path886" />
    </g>
    <g
       id="g888"
       transform="matrix(0.35277777,0,0,-0.35277777,-28.845753,245.15587)">
      <path
         d="M 0,0 C 0.024,0.28 0.048,0.56 0.072,0.84 -0.105,1.394 -0.265,1.937 0.656,1.86 1.337,1.626 1.921,1.245 2.496,0.676 2.084,-0.083 1.403,-0.403 0.665,-0.65 0.145,-0.739 -0.037,-0.48 0,0"
         style="fill:#f2f5f5;fill-opacity:1;fill-rule:evenodd;stroke:none"
         id="path890" />
    </g>
    <g
       id="g892"
       transform="matrix(0.35277777,0,0,-0.35277777,-29.527884,245.23249)">
      <path
         d="m 0,0 c -0.463,0.031 -0.783,0.241 -0.816,0.704 -0.04,0.571 0.26,0.889 0.841,0.895 C 0.493,1.604 0.8,1.324 0.843,0.9 0.901,0.331 0.538,0.048 0,0"
         style="fill:#eef6f6;fill-opacity:1;fill-rule:evenodd;stroke:none"
         id="path894" />
    </g>
    <g
       id="g896"
       transform="matrix(0.35277777,0,0,-0.35277777,-28.614225,244.49956)">
      <path
         d="m 0,0 c -0.547,-0.139 -0.468,-0.635 -0.584,-1.021 -0.098,0.125 -0.249,0.236 -0.282,0.376 -0.079,0.332 -0.64,0.666 -0.152,0.992 C -0.654,0.591 -0.273,0.323 0,0"
         style="fill:#91a5a5;fill-opacity:1;fill-rule:evenodd;stroke:none"
         id="path898" />
    </g>
    <g
       id="g900"
       transform="matrix(0.35277777,0,0,-0.35277777,-28.845753,245.15587)">
      <path
         d="M 0,0 C 0.222,-0.217 0.443,-0.433 0.665,-0.65 0.351,-1.042 -0.104,-1.292 -0.45,-0.879 -0.667,-0.621 -0.334,-0.21 0,0"
         style="fill:#aba9a9;fill-opacity:1;fill-rule:evenodd;stroke:none"
         id="path902" />
    </g>
    <g
       id="g904"
       transform="matrix(0.35277777,0,0,-0.35277777,-30.112155,244.51007)">
      <path
         d="M 0,0 C -0.241,0.03 -0.483,0.06 -0.725,0.089 -0.485,0.397 -0.192,0.562 0.159,0.3 0.284,0.206 0.187,0.049 0,0"
         style="fill:#90b8b8;fill-opacity:1;fill-rule:evenodd;stroke:none"
         id="path906" />
    </g>
  </g>
</svg>
