<svg xmlns="http://www.w3.org/2000/svg" viewBox="0 0 172.56 121.46"><defs><style>.cls-1{fill:#e16b80;}</style></defs><g id="Capa_2" data-name="Capa 2"><g id="Capa_1-2" data-name="Capa 1"><path class="cls-1" d="M1.24,33.45C3.58,26.5,8,20.59,13.7,15.36a57,57,0,0,1,20-12C41.08.78,49.18.67,57.87,2.61c3.78.85,7.47,2,11.19,3.09,5.1,1.47,10.15,3.14,15.35,4.2a50.11,50.11,0,0,0,19.71.06C110.28,8.8,116.08,7,122,5.53c5.44-1.36,10.94-2.62,17.07-2.42,10.09.34,18,4.34,23.83,11.4,4.15,5,5.95,10.36,7.11,15.8A97.38,97.38,0,0,1,171.78,48c.26,8.41.91,16.88.75,25.25A83.23,83.23,0,0,1,170,93.42a50.89,50.89,0,0,1-8,17.48c-6.73,9-20.61,12.57-35.24,9.44a58.76,58.76,0,0,1-26.21-13.26C95,102.45,89.91,97.56,84.11,93.15A79,79,0,0,0,65.54,82.9C57.44,79.65,49,77.5,40.67,75s-16.56-5.43-24-9.84C4.81,58.15-.8,49.45.09,39A21.48,21.48,0,0,1,1.24,33.45Z"/><path d="M90.81,0V15.62H62.68V45.47a7.81,7.81,0,0,0-9.22,6.09,9.06,9.06,0,0,0-.15,1.56V68.75a7.82,7.82,0,0,0,6.25,7.66V90.62H53.31v3.13H133V90.62H93.93V3.12h50V79.69h3.13V0ZM59.56,73.16a4.68,4.68,0,0,1-3.13-4.41V53.12a4.69,4.69,0,0,1,9.38,0V68.75a4.66,4.66,0,0,1-3.13,4.41V57.81H59.56ZM83,90.62H73.62V71.88H83Zm7.82,0H86.12V68.75H70.49V90.62H62.68V76.41a7.83,7.83,0,0,0,6.25-7.66V53.12a7.79,7.79,0,0,0-3.12-6.24V18.75h25Z"/><path d="M86.12,23.44H70.49v9.37H86.12ZM83,29.69H73.62V26.56H83Z"/><path d="M133.44,73.24a17.16,17.16,0,1,0-7.36,6.45l12.64,12.63a4.87,4.87,0,1,0,6.89-6.89ZM118.93,50a14.08,14.08,0,0,1,14,13.34l-.51-.45a20.53,20.53,0,0,0-27,0l-.51.45A14,14,0,0,1,118.93,50Zm3.83,11.37a17.19,17.19,0,0,1,6.13,2.69,17.21,17.21,0,0,1-6.13,2.7A4.64,4.64,0,0,0,122.76,61.37Zm-2.27,2.69a1.56,1.56,0,1,1-1.56-1.56A1.56,1.56,0,0,1,120.49,64.06Zm-5.39,2.7a17.37,17.37,0,0,1-6.13-2.7,17.35,17.35,0,0,1,6.13-2.69A4.64,4.64,0,0,0,115.1,66.76Zm3.83,11.36a14.05,14.05,0,0,1-14-13.33l.51.44a20.53,20.53,0,0,0,27,0l.51-.44A14,14,0,0,1,118.93,78.12Zm23.24,12.5a1.71,1.71,0,0,1-1.23-.5L128.89,78.07a17.76,17.76,0,0,0,2.64-2.33l11.89,11.9a1.74,1.74,0,0,1-1.25,3Z"/><path d="M109.56,7.81H97.06V23.44h12.5Zm-3.13,12.5h-6.25V10.94h6.25Z"/><path d="M125.18,7.81h-12.5V23.44h12.5Zm-3.12,12.5h-6.25V10.94h6.25Z"/><path d="M97.06,43.75h12.5V28.12H97.06Zm3.12-12.5h6.25v9.37h-6.25Z"/><path d="M112.68,43.75h12.5V28.12h-12.5Zm3.13-12.5h6.25v9.37h-6.25Z"/><path d="M140.81,7.81h-12.5V23.44h12.5Zm-3.13,12.5h-6.25V10.94h6.25Z"/><path d="M128.31,43.75h12.5V28.12h-12.5Zm3.12-12.5h6.25v9.37h-6.25Z"/><path d="M86.12,37.5H70.49v9.38H86.12ZM83,43.75H73.62V40.62H83Z"/><polygon points="72.06 54.69 83 54.69 83 57.81 72.06 57.81 72.06 60.94 86.12 60.94 86.12 51.56 72.06 51.56 72.06 54.69"/></g></g></svg>